<svg xmlns="http://www.w3.org/2000/svg" viewBox="0 0 20 20"><defs><style>.cls-1{fill:none;}.cls-2{fill:#d8dbe3;}</style></defs><title>bk-accordion-collapse</title><g id="Layer_2" data-name="Layer 2"><g id="Layer_1-2" data-name="Layer 1"><rect class="cls-1" width="20" height="20"/><path class="cls-2" d="M10,18.16A8.34,8.34,0,0,1,1.5,10,8.34,8.34,0,0,1,10,1.84,8.34,8.34,0,0,1,18.5,10,8.34,8.34,0,0,1,10,18.16ZM10,2.84A7.34,7.34,0,0,0,2.5,10,7.34,7.34,0,0,0,10,17.16,7.34,7.34,0,0,0,17.5,10,7.34,7.34,0,0,0,10,2.84Z"/><rect class="cls-2" x="6.5" y="9.52" width="7" height="1"/></g></g></svg>