<svg xmlns="http://www.w3.org/2000/svg" viewBox="0 0 20 20"><defs><style>.cls-1{fill:none;}.cls-2{fill:#d8dbe3;}</style></defs><title>bk-accordion-expand</title><g id="Layer_2" data-name="Layer 2"><g id="Layer_1-2" data-name="Layer 1"><rect class="cls-1" width="20" height="20"/><path class="cls-2" d="M10,1.84A8.35,8.35,0,0,0,1.5,10,8.35,8.35,0,0,0,10,18.16,8.34,8.34,0,0,0,18.5,10,8.34,8.34,0,0,0,10,1.84Zm0,15.32A7.35,7.35,0,0,1,2.5,10,7.35,7.35,0,0,1,10,2.84,7.34,7.34,0,0,1,17.5,10,7.34,7.34,0,0,1,10,17.16Z"/><polygon class="cls-2" points="13.5 9.52 13.5 10.52 10.5 10.52 10.5 13.36 9.5 13.36 9.5 10.52 6.5 10.52 6.5 9.52 9.5 9.52 9.5 6.64 10.5 6.64 10.5 9.52 13.5 9.52"/></g></g></svg>