<svg xmlns="http://www.w3.org/2000/svg" viewBox="0 0 58.9 58.9"><title>bk-doc-icon</title><g id="b5fbec3a-5d13-4297-95fb-7877b7def590" data-name="Layer 2"><g id="bedd76bd-eb5b-428c-abb2-37cd7c66be3d" data-name="Layer 1"><rect width="58.9" height="58.9" style="fill:none"/><path d="M52.9,14.6V54.9H21.4a8.07,8.07,0,0,1-8.1-8.1V4.4H43Z" style="fill:#fff"/><path d="M52.9,56.2H21.4a9.56,9.56,0,0,1-9.5-9.5V4.4A1.43,1.43,0,0,1,13.3,3H43a1.28,1.28,0,0,1,1,.4l9.9,10.2a1.8,1.8,0,0,1,.4.9V54.8A1.37,1.37,0,0,1,52.9,56.2ZM14.6,5.7v41a6.81,6.81,0,0,0,6.8,6.8H51.6V15.1L42.4,5.7Z" style="fill:#435058"/><path d="M52.9,16.1H43a1.43,1.43,0,0,1-1.4-1.4V4.4h2.7v9.1h8.6Z" style="fill:#435058"/><polygon points="50.4 13.6 44.1 7.1 43.9 13.6 50.4 13.6" style="fill:#185abd"/><path d="M8.1,49.9H45a3,3,0,0,0,3-3V35.4a3,3,0,0,0-3-3H8.1a3,3,0,0,0-3,3V46.8A3.1,3.1,0,0,0,8.1,49.9Z" style="fill:#185abd"/><path d="M12.75,46.7V35.48h3.61a5.31,5.31,0,0,1,2.68.67,4.76,4.76,0,0,1,1.85,1.9,5.78,5.78,0,0,1,.68,2.76v.52a5.8,5.8,0,0,1-.65,2.76A4.77,4.77,0,0,1,19.08,46a5.16,5.16,0,0,1-2.64.7Zm2.7-9.13v7h.95a2.1,2.1,0,0,0,1.78-.83,4,4,0,0,0,.63-2.46v-.49a4,4,0,0,0-.63-2.45,2.13,2.13,0,0,0-1.82-.82Z" style="fill:#fff"/><path d="M32.46,41.32a6.59,6.59,0,0,1-.61,2.91,4.42,4.42,0,0,1-1.73,1.94,4.75,4.75,0,0,1-2.55.69A4.89,4.89,0,0,1,25,46.2a4.53,4.53,0,0,1-1.73-1.89,6.43,6.43,0,0,1-.65-2.81v-.63A6.53,6.53,0,0,1,23.25,38,4.45,4.45,0,0,1,25,36a5.13,5.13,0,0,1,5.12,0,4.58,4.58,0,0,1,1.73,1.93,6.31,6.31,0,0,1,.63,2.87Zm-2.75-.47a4.74,4.74,0,0,0-.56-2.54,1.78,1.78,0,0,0-1.6-.87c-1.35,0-2.07,1-2.15,3.06v.82a4.81,4.81,0,0,0,.55,2.54,1.8,1.8,0,0,0,1.63.88,1.77,1.77,0,0,0,1.58-.87,4.65,4.65,0,0,0,.56-2.5Z" style="fill:#fff"/><path d="M42.94,42.9A4.1,4.1,0,0,1,42.31,45a3.87,3.87,0,0,1-1.62,1.39,5.55,5.55,0,0,1-2.39.5,4.36,4.36,0,0,1-3.48-1.45,5.93,5.93,0,0,1-1.28-4.07v-.55a6.72,6.72,0,0,1,.58-2.89A4.35,4.35,0,0,1,35.77,36a4.61,4.61,0,0,1,2.5-.68,4.8,4.8,0,0,1,3.28,1.08,4.22,4.22,0,0,1,1.41,3H40.27a2.07,2.07,0,0,0-.52-1.47,2.11,2.11,0,0,0-1.48-.45,1.63,1.63,0,0,0-1.48.76,4.93,4.93,0,0,0-.5,2.41v.8A5.31,5.31,0,0,0,36.75,44a1.63,1.63,0,0,0,1.55.78,2.11,2.11,0,0,0,1.43-.44,1.88,1.88,0,0,0,.52-1.4Z" style="fill:#fff"/></g></g></svg>