<svg xmlns="http://www.w3.org/2000/svg" viewBox="0 0 20 20"><title>bk-download-button</title><g id="eaaf1473-a376-4583-bc57-1e2eba6a35e2" data-name="Layer 2"><g id="a08abea5-e6de-432b-b56e-7bfcbe44014a" data-name="Layer 1"><path d="M10,2.93A7.07,7.07,0,1,0,17.07,10,7.08,7.08,0,0,0,10,2.93ZM7.33,9.34,9.5,11.51V6.69h1v4.82l2.17-2.17.71.71L10,13.42,6.62,10.05Z" style="fill:none"/><path d="M0,0V20H20V0ZM10,18.07A8.07,8.07,0,1,1,18.07,10,8.08,8.08,0,0,1,10,18.07Z" style="fill:none"/><path d="M15.36,14.61a7.07,7.07,0,0,1-10.72,0Z" style="fill:none"/><path d="M10,2.93A7.07,7.07,0,0,0,4.64,14.61H15.36A7.07,7.07,0,0,0,10,2.93Zm0,10.49L6.62,10.05l.71-.71L9.5,11.51V6.69h1v4.82l2.17-2.17.71.71Z" style="fill:#c6974b"/><path d="M10,1.93A8.07,8.07,0,1,0,18.07,10,8.08,8.08,0,0,0,10,1.93Zm5.36,12.68A7.07,7.07,0,1,1,17.07,10,7.05,7.05,0,0,1,15.36,14.61Z" style="fill:#4d4d4e"/><polygon points="13.38 10.05 10 13.42 6.62 10.05 7.33 9.34 9.5 11.51 9.5 6.69 10.5 6.69 10.5 11.51 12.67 9.34 13.38 10.05" style="fill:#4d4d4e"/></g></g></svg>