<svg xmlns="http://www.w3.org/2000/svg" viewBox="0 0 49.05 48.86"><defs><style>.cls-1{fill:#c7954a;}</style></defs><title>bk-icon-element</title><g id="Layer_2" data-name="Layer 2"><g id="Layer_2-2" data-name="Layer 2"><path class="cls-1" d="M19.75,34.14h.3a15,15,0,0,0,8.07-2.37h0l0,0a.46.46,0,0,0,.17-.36.5.5,0,0,0-.05-.21l0,0L27,29.41l-.09-.11,0-.07-.06-.07h0l0,0-.07-.05-.08,0h-.2l-.13,0-.06,0a11.6,11.6,0,0,1-6.15,1.76l-.63,0a11.67,11.67,0,0,1-7.88-19.67l0,0,0,0a.5.5,0,0,0,.08-.26.51.51,0,0,0,0-.22l0-.06v0L10.31,8.61v0l0,0v0a.48.48,0,0,0-.35-.16.46.46,0,0,0-.3.11h0l0,0A15,15,0,0,0,19.75,34.14"/><path class="cls-1" d="M16,7.79l0,0A.45.45,0,0,0,16.4,8l.16,0h0a11.62,11.62,0,0,1,4.13-.75h.54A11.76,11.76,0,0,1,32.39,18.35a11.59,11.59,0,0,1-1.79,6.71l0,0-.09.25,1.69,2.31,0,0,.26.2.23-.17,0,0h0l.06-.07,0,0A15,15,0,0,0,21.31,3.91h-.6A14.85,14.85,0,0,0,14.9,5.07h0a.46.46,0,0,0-.27.42.5.5,0,0,0,.08.26Z"/><path class="cls-1" d="M45.6,27.09a18.63,18.63,0,0,1-4.2-4.37A16.4,16.4,0,0,1,39.23,9.31,21,21,0,0,1,44,16a19.8,19.8,0,0,1,1.78,8,23.92,23.92,0,0,1-.19,3.08m-2.24,7A31.25,31.25,0,0,0,36.6,36l-1.55-2.11A18.06,18.06,0,0,1,41,24.12a18.79,18.79,0,0,0,4.41,4.25h0a19.68,19.68,0,0,1-2,5.75m-13.55,6a15.52,15.52,0,0,0-3.76,5.31h.33c-.71.07-1.43.11-2.16.11a22.13,22.13,0,0,1-6.51-1v0a20.11,20.11,0,0,0-2-4.74,18.25,18.25,0,0,1,14.73-.23c-.23.19-.45.38-.65.57m-13.46,4h0A21.31,21.31,0,0,1,5,32.25c.73.23,9,3.08,11.39,11.81l0,.08h0m9.43-19.55a.71.71,0,0,1-.93.39.7.7,0,0,1-.4-.92.72.72,0,0,1,1.33.53m19.3-13.37A23.7,23.7,0,0,0,30.47,1.14a5.43,5.43,0,0,1-1-.33A10.46,10.46,0,0,1,27.71,0c-.28-.15-.15,1.06-.15,1.06l.06.14A7.83,7.83,0,0,0,29,3.56a3,3,0,0,0,1.13.78,7,7,0,0,0,.82.28l.18.06A20.16,20.16,0,0,1,38.42,8.6a18.54,18.54,0,0,0,1.87,14.56,18.74,18.74,0,0,0-6.16,9.46l-6.9-9.36v0A2.4,2.4,0,0,0,25.15,22h0a2.42,2.42,0,0,0-1,.22l-.2.1L12.32,4.6a6.44,6.44,0,0,1-1.13-2.55h0a.13.13,0,0,0-.26,0h0c-.06.21-.13.41-.19.62l-.05.16c-.41,1.31-.7,2.49-.13,3.58.11.21.24.43.42.71l12.1,18.44a2.37,2.37,0,0,0,2,1.17h0a2.37,2.37,0,0,0,1.11-.28l.2-.1,7.14,9.7c0,.46,0,.93,0,1.41a19.71,19.71,0,0,0-2,1.32,18.39,18.39,0,0,0-11.39-1.53,18.3,18.3,0,0,0-4.86,1.54,19.3,19.3,0,0,0-4.77-5,28.28,28.28,0,0,0-6-3.12,19.76,19.76,0,0,1-.65-3.36s0-.15,0-.19c0-.35-.08-.61-.13-.86A3.33,3.33,0,0,0,3.09,25a5.05,5.05,0,0,0-.89-.9c-1-.52-1.93-1.17-2.12-.94s0,.92,0,1.14A5.5,5.5,0,0,1,.43,26a23.82,23.82,0,0,0,36.8,19,.5.5,0,0,0,.12-.71L36,42.46a.51.51,0,0,0-.39-.19.53.53,0,0,0-.27.08,20.18,20.18,0,0,1-7.77,3c.34-.77,2.16-4.43,7.56-7.21l3.83,5.21a6.67,6.67,0,0,1,1.26,2.45h0a.13.13,0,0,0,.26,0h0c0-.21.1-.41.16-.62l0-.16c.33-1.32.55-2.49-.07-3.54-.12-.21-.26-.42-.45-.69l-2.72-3.68a29.48,29.48,0,0,1,5-1.44,19.75,19.75,0,0,1-2,2.57.48.48,0,0,0,0,.66l1.38,1.89,0,0a.46.46,0,0,0,.33.13.48.48,0,0,0,.36-.15,23.84,23.84,0,0,0,2.57-29.55"/></g></g></svg>