<svg xmlns="http://www.w3.org/2000/svg" viewBox="0 0 14.94 14.94"><defs><style>.cls-1{opacity:0.2;}.cls-2{fill:#c5944b;}</style></defs><title>bk-info-icon</title><g id="Layer_2" data-name="Layer 2"><g id="Layer_1-2" data-name="Layer 1"><g class="cls-1"><path class="cls-2" d="M7.47,0a7.47,7.47,0,1,0,7.47,7.47A7.48,7.48,0,0,0,7.47,0Z"/></g><path class="cls-2" d="M9.25,11.59l-.92.35a2.45,2.45,0,0,1-.8.12,1.63,1.63,0,0,1-1.09-.34,1.1,1.1,0,0,1-.38-.87,2.93,2.93,0,0,1,0-.41A3.43,3.43,0,0,1,6.18,10l.48-1.7c0-.16.08-.31.11-.46a1.94,1.94,0,0,0,0-.4.61.61,0,0,0-.13-.45.74.74,0,0,0-.52-.13,1.31,1.31,0,0,0-.38.06L5.44,7l.13-.52c.32-.13.62-.24.91-.33A2.42,2.42,0,0,1,7.29,6a1.57,1.57,0,0,1,1.07.33,1.14,1.14,0,0,1,.38.87q0,.12,0,.39a2.68,2.68,0,0,1-.09.52L8.14,9.79a4.11,4.11,0,0,0-.11.47,2.31,2.31,0,0,0,0,.39.56.56,0,0,0,.15.46.78.78,0,0,0,.52.13,1.55,1.55,0,0,0,.4-.06l.32-.11Z"/><path class="cls-2" d="M9.16,4.71a1.2,1.2,0,0,1-1.61,0,1,1,0,0,1,0-1.51,1.2,1.2,0,0,1,1.61,0,1,1,0,0,1,0,1.51Z"/></g></g></svg>