<svg xmlns="http://www.w3.org/2000/svg" viewBox="0 0 78.36 71.77"><defs><style>.cls-1{fill:#fff;}</style></defs><title>bk-icon-light</title><g id="Layer_2" data-name="Layer 2"><g id="Layer_2-2" data-name="Layer 2"><path class="cls-1" d="M34.51,34.14h.3a15,15,0,0,0,8.07-2.37h0v0a.46.46,0,0,0,.17-.36.5.5,0,0,0,0-.21l0,0-1.27-1.73-.08-.11,0-.07-.06-.07h0l0,0-.07-.05-.08,0h-.2l-.12,0-.07,0a11.6,11.6,0,0,1-6.15,1.76l-.63,0a11.67,11.67,0,0,1-7.88-19.67l0,0,0,0a.5.5,0,0,0,.08-.26.51.51,0,0,0-.05-.22l0-.06v0L25.08,8.61l0,0,0,0v0a.48.48,0,0,0-.35-.16.46.46,0,0,0-.3.11h0l0,0A15,15,0,0,0,34.51,34.14"/><path class="cls-1" d="M30.79,7.79l0,0a.45.45,0,0,0,.35.15l.17,0h0a11.63,11.63,0,0,1,4.14-.75H36A11.76,11.76,0,0,1,47.15,18.35a11.59,11.59,0,0,1-1.79,6.71l0,0-.09.25,1.69,2.31,0,0,.27.2.22-.17,0,0h0l.06-.07,0,0A15,15,0,0,0,36.07,3.91h-.6a14.85,14.85,0,0,0-5.81,1.17h0a.48.48,0,0,0-.27.42.5.5,0,0,0,.08.26Z"/><path class="cls-1" d="M60.36,27.09a18.63,18.63,0,0,1-4.2-4.37A16.4,16.4,0,0,1,54,9.31,21,21,0,0,1,58.77,16a19.63,19.63,0,0,1,1.78,8,22.25,22.25,0,0,1-.19,3.08m-2.24,7A31.25,31.25,0,0,0,51.36,36l-1.55-2.11a18.06,18.06,0,0,1,5.91-9.75,18.51,18.51,0,0,0,4.42,4.25h0a19.4,19.4,0,0,1-2,5.75m-13.55,6a15.52,15.52,0,0,0-3.76,5.31h.33c-.71.07-1.43.11-2.16.11a22.18,22.18,0,0,1-6.51-1v0a19.7,19.7,0,0,0-2-4.74,18.25,18.25,0,0,1,14.73-.23c-.23.19-.44.38-.65.57m-13.46,4h0A21.31,21.31,0,0,1,19.74,32.25c.73.23,9.05,3.08,11.39,11.81l0,.08h0m9.43-19.55a.71.71,0,0,1-.93.39.7.7,0,0,1-.4-.92.72.72,0,0,1,1.33.53m19.3-13.37A23.7,23.7,0,0,0,45.23,1.14a5.43,5.43,0,0,1-1-.33A10.46,10.46,0,0,1,42.47,0c-.27-.15-.15,1.06-.15,1.06l.06.14a7.83,7.83,0,0,0,1.35,2.35,3.15,3.15,0,0,0,1.13.78,7,7,0,0,0,.82.28l.18.06A20.16,20.16,0,0,1,53.18,8.6a18.54,18.54,0,0,0,1.87,14.56,18.81,18.81,0,0,0-6.16,9.46L42,23.26v0A2.4,2.4,0,0,0,39.91,22h0a2.42,2.42,0,0,0-1,.22l-.2.1L27.08,4.6A6.58,6.58,0,0,1,26,2.05h0a.15.15,0,0,0-.14-.12.14.14,0,0,0-.13.12h0c-.06.21-.12.41-.19.62l0,.16c-.4,1.31-.69,2.49-.13,3.58.12.21.24.43.43.71L37.83,25.56a2.38,2.38,0,0,0,2,1.17h0A2.44,2.44,0,0,0,41,26.45l.19-.1,7.15,9.7q0,.69,0,1.41a20.84,20.84,0,0,0-2.05,1.32,19.06,19.06,0,0,0-16.25,0,19.14,19.14,0,0,0-4.77-5,28,28,0,0,0-6-3.12,19.76,19.76,0,0,1-.65-3.36s0-.15,0-.19c0-.35-.08-.61-.13-.86A3.33,3.33,0,0,0,17.85,25a5.05,5.05,0,0,0-.89-.9c-1-.52-1.93-1.17-2.12-.94s0,.92,0,1.14A5.23,5.23,0,0,1,15.19,26,23.82,23.82,0,0,0,52,45a.5.5,0,0,0,.12-.71l-1.38-1.83a.49.49,0,0,0-.39-.19.53.53,0,0,0-.27.08,20.18,20.18,0,0,1-7.77,3c.34-.77,2.16-4.43,7.56-7.21l3.84,5.21A6.64,6.64,0,0,1,55,45.77h0a.13.13,0,0,0,.26,0h0c0-.21.09-.41.15-.62l0-.16c.33-1.32.55-2.49-.07-3.54-.12-.21-.26-.42-.45-.69l-2.72-3.68a29.48,29.48,0,0,1,5-1.44,19.75,19.75,0,0,1-2,2.57.48.48,0,0,0,0,.66l1.38,1.89,0,0a.46.46,0,0,0,.33.13.48.48,0,0,0,.36-.15,23.84,23.84,0,0,0,2.57-29.55"/><rect class="cls-1" x="35.76" y="57.28" width="1.53" height="5.05"/><path class="cls-1" d="M3.47,62.32h11c1.23,0,1.89-.7,1.89-2v-3H14.85v2.6a2.76,2.76,0,0,1-.06.69c-.06.11-.19.26-.61.26H8.87A2.87,2.87,0,0,0,9,59.78V57.29H7.56v2.55a1.69,1.69,0,0,1-.11.73.57.57,0,0,1-.57.27H3.33A2.45,2.45,0,0,1,2,60.53a1.48,1.48,0,0,1-.53-1.31V57.29H0v1.93c0,2.06,1.17,3.1,3.47,3.1"/><path class="cls-1" d="M30.13,68.62A3.17,3.17,0,0,0,29,67.75h0c-.78-.36-1-.47-1-.5-.28-.17-.42-.36-.42-.54a.39.39,0,0,1,.2-.36,1,1,0,0,1,.64-.16,3.41,3.41,0,0,1,1.68.58l.22.13V65.46l-.07,0a3.93,3.93,0,0,0-1.87-.49,2.68,2.68,0,0,0-1.67.51,1.72,1.72,0,0,0-.65,1.4,1.83,1.83,0,0,0,.4,1.15,3.26,3.26,0,0,0,1.18.84c.42.2.77.38,1,.52A.69.69,0,0,1,29,70a.47.47,0,0,1-.22.4,1.14,1.14,0,0,1-.65.17,3,3,0,0,1-1.83-.82l-.24-.2v1.61l.07,0a4.56,4.56,0,0,0,1,.48,4,4,0,0,0,1.1.14,2.43,2.43,0,0,0,1.63-.54,1.81,1.81,0,0,0,.64-1.44,1.87,1.87,0,0,0-.38-1.17"/><path class="cls-1" d="M34.58,65H33.13l-2.75,6.67H32l.61-1.55h2.64l.67,1.55h1.62L34.62,65.1Zm.14,3.89H33.09l.78-2Z"/><path class="cls-1" d="M25.09,69.88a5.77,5.77,0,0,0-.61-1,2.31,2.31,0,0,0-.36-.34,1.85,1.85,0,0,0,.66-.57,1.93,1.93,0,0,0-.31-2.44A2.32,2.32,0,0,0,22.91,65H20.46v6.67H22V69h.3a.78.78,0,0,1,.44.12,1.78,1.78,0,0,1,.44.46,13.35,13.35,0,0,1,.76,1.36c.17.32.3.54.4.69l0,.06h1.72L26,71.46a16.46,16.46,0,0,1-.86-1.58M23.52,67a.69.69,0,0,1-.23.55,1,1,0,0,1-.66.21H22V66.26h.62a1.13,1.13,0,0,1,.69.18.66.66,0,0,1,.22.54"/><path class="cls-1" d="M4.33,68.06a1.53,1.53,0,0,0,.47-.44,1.5,1.5,0,0,0,.26-.86,1.54,1.54,0,0,0-.61-1.25A2.28,2.28,0,0,0,2.93,65H.45v6.67H3.27a3.12,3.12,0,0,0,1.19-.22,1.89,1.89,0,0,0,.82-.68,1.93,1.93,0,0,0,.29-1,1.73,1.73,0,0,0-.41-1.14,1.83,1.83,0,0,0-.83-.56M2,67.67v-1.4h.74a.89.89,0,0,1,.59.19.57.57,0,0,1,.21.47.65.65,0,0,1-.23.54,1,1,0,0,1-.68.2Zm2,2a.68.68,0,0,1-.26.58,1.54,1.54,0,0,1-.86.2H2V68.92H3a1.23,1.23,0,0,1,.76.21.62.62,0,0,1,.26.52"/><path class="cls-1" d="M11.4,65.36h0a4,4,0,0,0-1.85-.43,3.92,3.92,0,0,0-1.9.45,3.33,3.33,0,0,0-1.3,1.25,3.43,3.43,0,0,0-.47,1.73,3.31,3.31,0,0,0,1.79,3,4,4,0,0,0,1.87.44,4,4,0,0,0,1.87-.44,3.34,3.34,0,0,0,1.8-3,3.35,3.35,0,0,0-1.81-3m.25,3a2,2,0,0,1-.59,1.48,2,2,0,0,1-1.51.57,2.15,2.15,0,0,1-1.09-.26,1.86,1.86,0,0,1-.75-.72,2.15,2.15,0,0,1-.27-1.07,2.27,2.27,0,0,1,.26-1.08,1.77,1.77,0,0,1,.74-.72,2.21,2.21,0,0,1,1.1-.27,2.38,2.38,0,0,1,1.1.26,1.86,1.86,0,0,1,.74.73,2.16,2.16,0,0,1,.27,1.08"/><polygon class="cls-1" points="46.93 65.01 45.15 65.01 43 67.69 43 65.01 41.48 65.01 41.48 71.69 43 71.69 43 68.78 45.68 71.69 47.67 71.69 44.36 68.24 46.93 65.01"/><polygon class="cls-1" points="62.63 65.01 61.15 68.72 59.56 65.01 58.33 65.01 56.76 68.71 55.27 65.01 53.67 65.01 56.42 71.77 57.02 71.77 58.94 67.26 60.82 71.68 60.86 71.77 61.47 71.77 64.21 65.01 62.63 65.01"/><polygon class="cls-1" points="72.3 65.01 72.3 66.27 74.56 66.27 74.56 71.69 76.09 71.69 76.09 66.27 78.36 66.27 78.36 65.01 72.3 65.01"/><path class="cls-1" d="M43.24,61.49a1.66,1.66,0,0,0,1.28-.62,2.07,2.07,0,0,0,1.95,1.38H63.4v-.14c0-.44.05-.78.05-1.09,0-2.54-1-3.83-2.84-3.83a4.1,4.1,0,0,0-3,1.67V57.72H56.12v2c0,1-.42,1.08-.74,1.08H47c-.69,0-1-.36-1-1.1V56.2H43.24c-1.42,0-2.31,1-2.31,2.69a2.34,2.34,0,0,0,2.31,2.6m-.85-2.61c0-.91.44-1.48,1.16-1.48h.91v1.37c0,.85-.44,1.45-1.07,1.45s-1-.69-1-1.34m15.29,1.88a3.63,3.63,0,0,1,2.83-2.23c.91,0,1.47.79,1.47,2v.19Z"/><path class="cls-1" d="M66.94,61.17v-4H65.48v4.14c0,.91-.42,1.33-1.31,1.33H64V64h.14c1.92,0,2.77-.87,2.77-2.81"/><path class="cls-1" d="M76,62.25c1.24,0,1.89-.71,1.89-2v-3H76.46v2.61a2,2,0,0,1-.07.68c0,.11-.18.26-.61.26H72.43V59.7a2.33,2.33,0,0,0-2.32-2.5,2.39,2.39,0,0,0-2.48,2.47,2.49,2.49,0,0,0,2.43,2.58H71a.94.94,0,0,1-1,.51h-.15V64H70c1.39,0,2.2-.58,2.4-1.72Zm-5-2.77v1.28h-.89a1.06,1.06,0,0,1-1-1.15,1,1,0,0,1,1-1,.91.91,0,0,1,.88.91"/><path class="cls-1" d="M19.8,62.32h.9a.93.93,0,0,1-.94.51V64c1.38,0,2.19-.58,2.4-1.72H33.08c1.26,0,1.9-.68,1.9-2v-3H33.51v2.6a2.76,2.76,0,0,1-.06.69c-.06.11-.18.26-.61.26H31.06a3.67,3.67,0,0,0-1.62-3,3.79,3.79,0,0,0-2-.52h-.23l1.25-1.76.16-.23H26.88l-2.25,3.38h2.68a2.06,2.06,0,0,1,1.7.74,2.33,2.33,0,0,1,.52,1.42H22.17V59.77a2.33,2.33,0,0,0-2.32-2.49,2.39,2.39,0,0,0-2.49,2.46,2.48,2.48,0,0,0,2.44,2.58m-.95-2.64a.94.94,0,0,1,1-1,.88.88,0,0,1,.87.9v1.29h-.88a1.08,1.08,0,0,1-1-1.16"/><path class="cls-1" d="M18.24,68.79a2.13,2.13,0,0,1-.16.93,1.15,1.15,0,0,1-.52.5,1.86,1.86,0,0,1-.89.19,1.63,1.63,0,0,1-.84-.2,1.24,1.24,0,0,1-.5-.49,1.94,1.94,0,0,1-.15-.84V65H13.65v4A2.91,2.91,0,0,0,14,70.47a2.38,2.38,0,0,0,1.06,1,3.63,3.63,0,0,0,1.6.33A3.29,3.29,0,0,0,19,71,2.69,2.69,0,0,0,19.77,69V65H18.24Z"/><polygon class="cls-1" points="12.87 64.35 14.32 64.35 14.31 62.89 12.87 62.89 12.87 64.35"/><rect class="cls-1" x="14.84" y="62.89" width="1.44" height="1.46"/><polygon class="cls-1" points="4.27 57.58 4.26 56.12 2.82 56.12 2.82 57.43 2.83 57.58 4.27 57.58"/><rect class="cls-1" x="4.79" y="56.11" width="1.44" height="1.46"/><polygon class="cls-1" points="43.67 54.18 42.23 54.18 42.23 55.64 43.68 55.64 43.67 54.18"/><rect class="cls-1" x="44.2" y="54.18" width="1.44" height="1.46"/><rect class="cls-1" x="72.9" y="62.82" width="1.44" height="1.46"/><path class="cls-1" d="M51.83,68.79a2.13,2.13,0,0,1-.16.93,1.2,1.2,0,0,1-.52.5,1.86,1.86,0,0,1-.89.19,1.57,1.57,0,0,1-.83-.2,1.15,1.15,0,0,1-.51-.49,1.94,1.94,0,0,1-.15-.84V65H47.24v4a2.89,2.89,0,0,0,.36,1.47,2.38,2.38,0,0,0,1.06,1,3.63,3.63,0,0,0,1.6.33A3.29,3.29,0,0,0,52.54,71,2.69,2.69,0,0,0,53.36,69V65H51.83Z"/><path class="cls-1" d="M66.73,65H65.28l-2.76,6.67h1.62l.61-1.55h2.64l.66,1.55h1.63L66.77,65.1Zm.13,3.89H65.24l.78-2Z"/><rect class="cls-1" x="70.12" y="65.01" width="1.53" height="6.67"/></g></g></svg>