<svg xmlns="http://www.w3.org/2000/svg" viewBox="0 0 57.24 24"><defs><style>.cls-1{fill:#4b4c4d;}.cls-2{fill:none;}</style></defs><title>bk-lang-arabic</title><g id="Layer_2" data-name="Layer 2"><g id="Layer_2-2" data-name="Layer 2"><path class="cls-1" d="M17.62,15H15.88a.92.92,0,0,1-.94-.46,9.21,9.21,0,0,1-.51-1.68l-.65.78-.31.38a.38.38,0,0,1-.3.16A3.42,3.42,0,0,1,12.08,14a.69.69,0,0,1-.48-.74,2.71,2.71,0,0,1,.42-1.5,5.9,5.9,0,0,1,2-1.51c0-.19-.05-.39-.08-.61a4.21,4.21,0,0,1-.05-.52.74.74,0,0,1,.29-.54l.55-.51c.1.53.2,1.15.29,1.85s.18,1.34.26,1.9a3.19,3.19,0,0,0,.27,1c.09.13.35.2.77.2h1.33ZM11.83,7l.71-1.24,1.06.7.58-.94,1.07.8-.62,1.15-1.07-.74-.67,1Zm2.42,5-.16-1.06-.86.56c-.31.22-.46.41-.46.59s.13.17.41.24a3.45,3.45,0,0,0,.65.1h.35a.21.21,0,0,0,.13-.2Z"/><path class="cls-1" d="M16,13.06h1.54A4.55,4.55,0,0,0,19,12.92a2.66,2.66,0,0,0,.82-.84h.11a3.4,3.4,0,0,0,.16.76,1.54,1.54,0,0,0,.6.22h2V15h-2a1.84,1.84,0,0,1-.89-.2,9.41,9.41,0,0,1-.51-.88,6.53,6.53,0,0,1-.62.85,1.7,1.7,0,0,1-1.11.23H16Zm1.43,4.07L18.08,16l1.12.78.6-1,1.06.8-.67,1.2L19.11,17l-.57,1Z"/><path class="cls-1" d="M21,13h2.12a4.78,4.78,0,0,0,1-.09c.29-.06.43-.17.43-.34a1.45,1.45,0,0,0-.33-.48c-.23-.27-.34-.45-.34-.55a.93.93,0,0,1,.08-.35l.12-.27.62-1.31A13.7,13.7,0,0,1,25.16,11a3.85,3.85,0,0,1,.18,1.13,2.86,2.86,0,0,1-.71,2.32,3.07,3.07,0,0,1-1.91.54H21Zm2.53,3.75.68-1.06,1.11.74-.72,1Z"/><path class="cls-1" d="M33.68,15h-2a13.51,13.51,0,0,1-1,3.18,2.17,2.17,0,0,1-2.1,1.33,2.58,2.58,0,0,1-.88-.15,10.91,10.91,0,0,1-1.53-.82l.12-.23.75.11a3.2,3.2,0,0,0,2.17-.79,15.65,15.65,0,0,0,2-2.16c-.28-.4-.46-.68-.57-.85s-.32-.54-.64-1.12l1-1.59a4.12,4.12,0,0,0,.71.93.94.94,0,0,0,.63.23h1.47V15Z"/><path class="cls-1" d="M32.23,13h1.35l.83-.12a4.1,4.1,0,0,0,.85-.22,2,2,0,0,0-.55-.37,7.2,7.2,0,0,0-.81-.28,5.09,5.09,0,0,1,.63-1.67,1.87,1.87,0,0,1,1.7-.71,2.34,2.34,0,0,1,1.46.49,1.54,1.54,0,0,1,.62,1.27,1.11,1.11,0,0,1-.22.79,3.66,3.66,0,0,1-.81.59,4.51,4.51,0,0,0,1.36.23H40V15H38.64a2.74,2.74,0,0,1-1.4-.67q-.59-.51-1-.93a10.42,10.42,0,0,0-1,.75,7.41,7.41,0,0,1-.74.59,1.34,1.34,0,0,1-.4.16,3.69,3.69,0,0,1-.52.1H32.23Z"/><path class="cls-1" d="M38.59,13h1.79c.44,0,.71-.06.82-.19a1.22,1.22,0,0,0,.17-.8A19,19,0,0,0,41.1,9.8c-.19-1.16-.37-2.36-.56-3.6a1.89,1.89,0,0,1,.19-1,3.34,3.34,0,0,1,.71-.7,9.71,9.71,0,0,0,1,1.41,5,5,0,0,0-.53.68,1.56,1.56,0,0,0-.15.81c0,.24.09,1,.28,2.26s.27,2.07.27,2.39a3.8,3.8,0,0,1-.52,2.12,1.76,1.76,0,0,1-1.57.8H38.59V13Z"/><path class="cls-1" d="M44.9,15a18,18,0,0,0-.14-2.1c-.09-.75-.22-1.84-.41-3.24s-.29-2.26-.29-2.54a1.8,1.8,0,0,1,.45-1.18c.24-.24.43-.44.55-.58,0,.44.06,1.34.18,2.71s.26,2.75.4,4.16a10.4,10.4,0,0,1-.12,1.43A6.78,6.78,0,0,1,45.2,15Z"/><rect class="cls-2" width="57.24" height="24"/></g></g></svg>