<svg xmlns="http://www.w3.org/2000/svg" viewBox="0 0 57.24 24"><defs><style>.cls-1{fill:none;}.cls-2{fill:#4b4c4d;}</style></defs><title>bk-lang-english</title><g id="Layer_2" data-name="Layer 2"><g id="Layer_2-2" data-name="Layer 2"><rect class="cls-1" width="57.24" height="24"/><path class="cls-2" d="M9.22,6.61h5.12v1H10.45v2.5h3.27v1H10.45V14h4.06v1H9.22Z"/><path class="cls-2" d="M17.21,9.59h.06a2.39,2.39,0,0,1,1.89-.76c1.47,0,2.21.87,2.21,2.6V15H20.23V11.5c0-1.13-.49-1.69-1.48-1.69a2,2,0,0,0-.84.2,1.49,1.49,0,0,0-.62.48V15H16.15V9h1Z"/><path class="cls-2" d="M27.45,14.44v-.07a2,2,0,0,1-1.71.8,2.53,2.53,0,0,1-2.11-1A3.2,3.2,0,0,1,23,12.12a3.36,3.36,0,0,1,.95-2.55,2.63,2.63,0,0,1,1.87-.74,2.58,2.58,0,0,1,1.05.23,1.59,1.59,0,0,1,.72.55L27.7,9h.89v5.45c0,2.07-.91,3.11-2.72,3.11a3.68,3.68,0,0,1-2.29-.88l.34-.61a3.12,3.12,0,0,0,1.8.56C26.87,16.62,27.45,15.89,27.45,14.44Zm0-1.33V10.73a1.21,1.21,0,0,0-.52-.72,1.64,1.64,0,0,0-2.24.33,2.56,2.56,0,0,0-.5,1.65,2.57,2.57,0,0,0,.53,1.76,1.48,1.48,0,0,0,1.19.53,1.52,1.52,0,0,0,.95-.34A1.57,1.57,0,0,0,27.45,13.11Z"/><path class="cls-2" d="M31.8,6.45V15H30.66V7.06Z"/><path class="cls-2" d="M33.81,7.13A.68.68,0,0,1,34,6.65a.69.69,0,0,1,1.17.48.63.63,0,0,1-.2.49.69.69,0,0,1-1,0A.66.66,0,0,1,33.81,7.13ZM35,9v6H33.9V9Z"/><path class="cls-2" d="M40.41,10.08A2.91,2.91,0,0,0,39,9.71a1.1,1.1,0,0,0-.7.2.66.66,0,0,0-.27.55.74.74,0,0,0,.25.59,2.46,2.46,0,0,0,.92.39,4.16,4.16,0,0,1,1.42.63,1.63,1.63,0,0,1,.55,1.31,1.62,1.62,0,0,1-.59,1.3,2.37,2.37,0,0,1-1.56.49,3.57,3.57,0,0,1-2.23-.72l.4-.63a3,3,0,0,0,1.65.46c.82,0,1.22-.31,1.22-.93a.73.73,0,0,0-.25-.6,2.85,2.85,0,0,0-1-.39c-1.29-.32-1.94-.94-1.94-1.87a1.45,1.45,0,0,1,.58-1.19,2.23,2.23,0,0,1,1.45-.47,3.22,3.22,0,0,1,2,.62Z"/><path class="cls-2" d="M43.93,6.45v3.2a2.4,2.4,0,0,1,1.87-.82c1.48,0,2.22.87,2.22,2.6V15H46.87V11.5c0-1.13-.49-1.69-1.48-1.69a2,2,0,0,0-.84.2,1.49,1.49,0,0,0-.62.48V15H42.79V7.06Z"/></g></g></svg>