<svg xmlns="http://www.w3.org/2000/svg" viewBox="0 0 108.69 103.54"><defs><style>.cls-1{fill:#c5944b;}.cls-2{fill:#fff;}.cls-3{fill:none;}</style></defs><title>Asset 7</title><g id="Layer_2" data-name="Layer 2"><g id="Layer_2-2" data-name="Layer 2"><rect class="cls-1" width="108.69" height="103.54"/><path class="cls-2" d="M50.12,50.28h.3a14.88,14.88,0,0,0,8.07-2.37h0a.46.46,0,0,0,.17-.36.54.54,0,0,0,0-.22v0l-1.28-1.74-.08-.11-.05-.06-.06-.07h0l0,0-.07,0-.08,0h0l-.11,0h-.07l-.12,0-.07,0A11.6,11.6,0,0,1,50.43,47H49.8a11.67,11.67,0,0,1-7.88-19.67l0,0,0,0a.43.43,0,0,0,.08-.27.46.46,0,0,0-.05-.21l0-.06,0,0-1.27-1.94,0,0,0,0h0a.48.48,0,0,0-.35-.16.46.46,0,0,0-.3.11h0l0,0a14.82,14.82,0,0,0-4.47,10.41,15,15,0,0,0,14.65,15.2"/><path class="cls-2" d="M46.4,23.93l0,0a.48.48,0,0,0,.35.16l.17,0h0a11.62,11.62,0,0,1,4.13-.76l.53,0A11.67,11.67,0,0,1,61,41.21l0,0-.09.26,1.69,2.3,0,.05.27.19.22-.16,0,0h0l.06-.07,0,0A15,15,0,0,0,51.68,20.06l-.6,0a14.9,14.9,0,0,0-5.81,1.18h0a.49.49,0,0,0-.27.42.45.45,0,0,0,.08.26Z"/><path class="cls-2" d="M76,43.24a18.34,18.34,0,0,1-4.2-4.38c-2.71-4-3.31-8.52-2.18-13.41a21.09,21.09,0,0,1,4.78,6.7,19.67,19.67,0,0,1,1.78,8A22.5,22.5,0,0,1,76,43.24m-2.25,7A31.83,31.83,0,0,0,67,52.12L65.42,50a18,18,0,0,1,5.92-9.75,18.4,18.4,0,0,0,4.41,4.24h0a19.5,19.5,0,0,1-2,5.75m-13.54,6a15.37,15.37,0,0,0-3.77,5.31h.33a19.23,19.23,0,0,1-2.15.12,21.77,21.77,0,0,1-6.51-1h0a19.77,19.77,0,0,0-2-4.75,18.27,18.27,0,0,1,14.74-.23c-.23.2-.45.39-.65.58m-13.47,4h0A21.31,21.31,0,0,1,35.35,48.39c.73.24,9,3.08,11.39,11.81l0,.09,0,0m9.43-19.55a.72.72,0,0,1-.93.4.7.7,0,0,1-.4-.92.72.72,0,0,1,.93-.4.7.7,0,0,1,.4.92m19.3-13.36A23.67,23.67,0,0,0,60.84,17.28a6.27,6.27,0,0,1-1-.32,12.33,12.33,0,0,1-1.75-.8c-.27-.16-.15,1.06-.15,1.06l.06.13a7.76,7.76,0,0,0,1.35,2.36,3.28,3.28,0,0,0,1.13.78c.23.09.48.18.82.28l.18.05a20.43,20.43,0,0,1,7.33,3.92A18.54,18.54,0,0,0,70.66,39.3a18.92,18.92,0,0,0-6.16,9.47L57.6,39.4v0a2.38,2.38,0,0,0-2.07-1.26h0a2.3,2.3,0,0,0-1,.22l-.2.09L42.69,20.75a6.65,6.65,0,0,1-1.13-2.55h0a.14.14,0,0,0-.14-.12.14.14,0,0,0-.13.12h0c-.06.21-.12.42-.19.63l-.05.16c-.4,1.31-.69,2.48-.12,3.58.11.21.24.43.42.71l12.1,18.44a2.37,2.37,0,0,0,2,1.17h0a2.41,2.41,0,0,0,1.12-.28l.19-.11L64,52.19q0,.69,0,1.41a22.83,22.83,0,0,0-2.05,1.33,18.95,18.95,0,0,0-16.25,0,19,19,0,0,0-4.77-5,28,28,0,0,0-6-3.12,19.87,19.87,0,0,1-.65-3.37s0-.15,0-.18c0-.35-.08-.62-.13-.86a3.06,3.06,0,0,0-.56-1.25,4.79,4.79,0,0,0-.89-.91c-1-.52-1.93-1.17-2.12-.94s0,.92,0,1.14a5.6,5.6,0,0,1,.34,1.74,23.81,23.81,0,0,0,36.8,19,.47.47,0,0,0,.12-.7l-1.38-1.83a.48.48,0,0,0-.39-.19.42.42,0,0,0-.26.08,20.45,20.45,0,0,1-7.78,3c.34-.77,2.16-4.44,7.56-7.21l3.84,5.21a6.52,6.52,0,0,1,1.25,2.44h0a.14.14,0,0,0,.13.13.13.13,0,0,0,.13-.13h0c0-.2.1-.41.15-.61l0-.17c.33-1.31.55-2.49-.07-3.54-.12-.2-.26-.41-.45-.68l-2.72-3.69a30.42,30.42,0,0,1,5-1.44,18.49,18.49,0,0,1-2,2.57.49.49,0,0,0,0,.67l1.38,1.88,0,0a.5.5,0,0,0,.69,0,23.84,23.84,0,0,0,2.57-29.55"/><rect class="cls-2" x="51.37" y="73.42" width="1.53" height="5.05"/><path class="cls-2" d="M19.08,78.47H30c1.23,0,1.89-.71,1.89-2v-3H30.47V76a2.34,2.34,0,0,1-.07.68c-.06.11-.18.26-.61.26H24.48a2.87,2.87,0,0,0,.15-1.06V73.43H23.17V76a1.65,1.65,0,0,1-.11.73c-.09.19-.27.27-.57.27H18.94a2.45,2.45,0,0,1-1.35-.3,1.51,1.51,0,0,1-.53-1.31V73.43H15.61v1.94c0,2,1.17,3.1,3.47,3.1"/><path class="cls-2" d="M45.74,84.76a3.06,3.06,0,0,0-1.18-.86h0a8.67,8.67,0,0,1-1-.51q-.42-.26-.42-.54a.4.4,0,0,1,.2-.36,1.14,1.14,0,0,1,.64-.15,3.38,3.38,0,0,1,1.68.57l.23.14V81.6l-.08,0a3.88,3.88,0,0,0-1.86-.48,2.63,2.63,0,0,0-1.68.51A1.69,1.69,0,0,0,41.58,83a1.83,1.83,0,0,0,.4,1.16,3.35,3.35,0,0,0,1.18.84c.42.2.77.37,1,.52a.68.68,0,0,1,.41.59.45.45,0,0,1-.22.4,1.1,1.1,0,0,1-.64.17,3,3,0,0,1-1.84-.82l-.24-.2v1.62l.07,0a5.42,5.42,0,0,0,1,.48,3.85,3.85,0,0,0,1.09.14,2.43,2.43,0,0,0,1.63-.54,1.84,1.84,0,0,0,.64-1.44,1.92,1.92,0,0,0-.38-1.18"/><path class="cls-2" d="M50.19,81.16H48.74L46,87.84H47.6l.62-1.56h2.63l.67,1.56h1.62l-2.91-6.59Zm.14,3.89H48.7l.78-2Z"/><path class="cls-2" d="M40.7,86a5.55,5.55,0,0,0-.61-1,2.15,2.15,0,0,0-.35-.33,2,2,0,0,0,.65-.58,1.88,1.88,0,0,0-.31-2.43,2.26,2.26,0,0,0-1.56-.54H36.07v6.67H37.6V85.14h.3a.72.72,0,0,1,.44.13,1.5,1.5,0,0,1,.44.46,13.67,13.67,0,0,1,.77,1.36,7.25,7.25,0,0,0,.39.68l0,.06H41.7l-.14-.22A17,17,0,0,1,40.7,86m-1.57-2.89a.72.72,0,0,1-.23.55,1,1,0,0,1-.66.2H37.6V82.4h.62a1.07,1.07,0,0,1,.69.19.62.62,0,0,1,.22.54"/><path class="cls-2" d="M20,84.2a1.49,1.49,0,0,0,.46-.44,1.45,1.45,0,0,0,.26-.85,1.58,1.58,0,0,0-.6-1.26,2.38,2.38,0,0,0-1.53-.49H16.06v6.68h2.82a2.94,2.94,0,0,0,1.19-.23,1.83,1.83,0,0,0,.82-.68,1.9,1.9,0,0,0,.29-1,1.7,1.7,0,0,0-.4-1.13A1.82,1.82,0,0,0,20,84.2m-2.37-.39V82.42h.74a.89.89,0,0,1,.59.18.59.59,0,0,1,.21.48.63.63,0,0,1-.23.53,1,1,0,0,1-.68.2Zm2,2a.68.68,0,0,1-.26.57,1.45,1.45,0,0,1-.86.21h-.92V85.07h1a1.29,1.29,0,0,1,.76.2.6.6,0,0,1,.26.53"/><path class="cls-2" d="M27,81.51h0a4.3,4.3,0,0,0-3.75,0A3.28,3.28,0,0,0,22,82.78a3.33,3.33,0,0,0,1.32,4.69,3.92,3.92,0,0,0,1.87.45A4,4,0,0,0,27,87.48a3.29,3.29,0,0,0,1.32-1.24,3.33,3.33,0,0,0,.48-1.74,3.27,3.27,0,0,0-.49-1.76A3.19,3.19,0,0,0,27,81.51m.25,3A2,2,0,0,1,26.67,86a2.05,2.05,0,0,1-1.51.58,2.28,2.28,0,0,1-1.09-.26,1.88,1.88,0,0,1-.75-.73,2.29,2.29,0,0,1,0-2.14,1.86,1.86,0,0,1,.74-.73,2.46,2.46,0,0,1,2.2,0,1.8,1.8,0,0,1,.74.73,2.15,2.15,0,0,1,.27,1.07"/><polygon class="cls-2" points="62.54 81.16 60.76 81.16 58.61 83.83 58.61 81.16 57.09 81.16 57.09 87.83 58.61 87.83 58.61 84.93 61.29 87.83 63.28 87.83 59.98 84.39 62.54 81.16"/><polygon class="cls-2" points="78.25 81.16 76.76 84.87 75.18 81.16 73.94 81.16 72.37 84.86 70.88 81.16 69.29 81.16 72.04 87.91 72.63 87.91 74.55 83.41 76.43 87.82 76.47 87.91 77.08 87.91 79.82 81.16 78.25 81.16"/><polygon class="cls-2" points="87.91 81.16 87.91 82.41 90.18 82.41 90.18 87.83 91.7 87.83 91.7 82.41 93.97 82.41 93.97 81.16 87.91 81.16"/><path class="cls-2" d="M58.85,77.63A1.66,1.66,0,0,0,60.13,77a2.07,2.07,0,0,0,1.95,1.38H79v-.13c0-.44.06-.78.06-1.1,0-2.54-1-3.82-2.84-3.82a4.07,4.07,0,0,0-3,1.67V73.86H71.73v2c0,1-.43,1.09-.75,1.09H62.6c-.69,0-1-.36-1-1.11V72.35H58.85c-1.42,0-2.3,1-2.3,2.68a2.33,2.33,0,0,0,2.3,2.6M58,75c0-.91.44-1.47,1.17-1.47h.9v1.37c0,.85-.44,1.45-1.07,1.45s-1-.7-1-1.35m15.29,1.89a3.63,3.63,0,0,1,2.83-2.23c.91,0,1.47.78,1.47,2v.2Z"/><path class="cls-2" d="M82.55,77.32v-4H81.09v4.13c0,.92-.41,1.34-1.31,1.34h-.14v1.3h.14c1.92,0,2.77-.87,2.77-2.81"/><path class="cls-2" d="M91.63,78.39c1.24,0,1.89-.7,1.89-2v-3H92.07V76a2.07,2.07,0,0,1-.07.69c0,.11-.18.26-.61.26H88V75.85a2.33,2.33,0,0,0-2.31-2.5,2.4,2.4,0,0,0-2.49,2.46,2.48,2.48,0,0,0,2.43,2.58h.91a.94.94,0,0,1-1,.51h-.15v1.22h.15c1.39,0,2.2-.58,2.4-1.73Zm-5-2.76v1.28h-.89a1.07,1.07,0,0,1-1-1.16.94.94,0,0,1,1-1,.9.9,0,0,1,.88.91"/><path class="cls-2" d="M35.41,78.47h.9a.94.94,0,0,1-.94.51v1.21c1.38,0,2.19-.58,2.4-1.72H48.69c1.26,0,1.9-.69,1.9-2v-3H49.13V76a2,2,0,0,1-.07.69c-.06.11-.18.26-.61.26H46.67a3.65,3.65,0,0,0-1.62-3,3.8,3.8,0,0,0-2-.53h-.23l1.25-1.76.16-.23H42.49l-2.25,3.38h2.69a2.08,2.08,0,0,1,1.69.74A2.45,2.45,0,0,1,45.15,77H37.78V75.92a2.34,2.34,0,0,0-2.32-2.5A2.4,2.4,0,0,0,33,75.89a2.49,2.49,0,0,0,2.44,2.58m-.95-2.65a.94.94,0,0,1,1-1,.91.91,0,0,1,.88.91V77h-.89a1.08,1.08,0,0,1-1-1.16"/><path class="cls-2" d="M33.85,84.94a2.13,2.13,0,0,1-.16.93,1.2,1.2,0,0,1-.52.5,1.86,1.86,0,0,1-.89.19,1.67,1.67,0,0,1-.83-.2,1.2,1.2,0,0,1-.5-.5,1.77,1.77,0,0,1-.16-.84V81.16H29.26v4a3,3,0,0,0,.36,1.48,2.38,2.38,0,0,0,1.06,1,3.63,3.63,0,0,0,1.6.33,3.34,3.34,0,0,0,2.28-.73,2.69,2.69,0,0,0,.82-2.09V81.16H33.85Z"/><polygon class="cls-2" points="28.48 80.49 29.93 80.49 29.92 79.03 28.48 79.03 28.48 80.49"/><rect class="cls-2" x="30.45" y="79.03" width="1.44" height="1.46"/><polygon class="cls-2" points="19.88 73.72 19.87 72.26 18.43 72.26 18.43 73.58 18.44 73.72 19.88 73.72"/><rect class="cls-2" x="20.4" y="72.26" width="1.44" height="1.46"/><polygon class="cls-2" points="59.28 70.33 57.84 70.33 57.84 71.79 59.29 71.79 59.28 70.33"/><rect class="cls-2" x="59.81" y="70.32" width="1.44" height="1.46"/><rect class="cls-2" x="88.52" y="78.97" width="1.44" height="1.46"/><path class="cls-2" d="M67.44,84.94a2.13,2.13,0,0,1-.16.93,1.15,1.15,0,0,1-.52.5,1.86,1.86,0,0,1-.89.19,1.67,1.67,0,0,1-.83-.2,1.15,1.15,0,0,1-.5-.5,1.77,1.77,0,0,1-.16-.84V81.16H62.85v4a3,3,0,0,0,.36,1.48,2.38,2.38,0,0,0,1.06,1,3.63,3.63,0,0,0,1.6.33,3.34,3.34,0,0,0,2.28-.73A2.69,2.69,0,0,0,69,85.1V81.16H67.44Z"/><path class="cls-2" d="M82.34,81.16H80.89l-2.75,6.68h1.61l.61-1.56H83l.67,1.56h1.62l-2.91-6.59Zm.14,3.89H80.85l.78-2Z"/><rect class="cls-2" x="85.73" y="81.16" width="1.53" height="6.67"/><rect class="cls-3" width="108.69" height="103.54"/></g></g></svg>