<svg xmlns="http://www.w3.org/2000/svg" viewBox="0 0 42 42"><defs><style>.cls-1{fill:none;}.cls-2{fill:#c8964b;}.cls-2,.cls-3{fill-rule:evenodd;}.cls-3{fill:#3c3d3e;}.cls-4{fill:#fff;}</style></defs><title>bk-menu-icon-securities</title><g id="Layer_2" data-name="Layer 2"><g id="Layer_1-2" data-name="Layer 1"><rect class="cls-1" width="42" height="42"/><path class="cls-2" d="M20.45,9.94a1.19,1.19,0,0,0,.88-1.15,1.1,1.1,0,0,0,0-.31l-1-3.66h0l0-.13h0a2.47,2.47,0,0,0-2.39-1.84,2.34,2.34,0,0,0-.64.08h0l-.13,0h0l-3.63,1a1.21,1.21,0,0,0-.88,1.16,1.15,1.15,0,0,0,0,.31L13,6.79a1.18,1.18,0,0,0,1.15.88l.26,0c-2.3,4-10.72,18.64-10.72,18.64a1.19,1.19,0,0,0,.44,1.63l1.22.72a1.28,1.28,0,0,0,.6.16,1.55,1.55,0,0,0,.31,0A1.25,1.25,0,0,0,7,28.2S15.38,13.65,17.68,9.63a1.18,1.18,0,0,0,.5.56,1.11,1.11,0,0,0,.59.16,1.06,1.06,0,0,0,.31,0Zm18,5.17a1.22,1.22,0,0,0-.6-1l-1.22-.71a1.17,1.17,0,0,0-.6-.16,1.06,1.06,0,0,0-.31,0,1.18,1.18,0,0,0-.73.56S26.62,28.35,24.32,32.37a1.18,1.18,0,0,0-.5-.56,1.11,1.11,0,0,0-.59-.16,1.06,1.06,0,0,0-.31,0l-1.37.37a1.19,1.19,0,0,0-.88,1.15,1.1,1.1,0,0,0,0,.31l1,3.66h0l0,.13h0a2.48,2.48,0,0,0,2.39,1.84,2.36,2.36,0,0,0,.65-.08l.12,0h0l3.62-1a1.2,1.2,0,0,0,.89-1.16,1.76,1.76,0,0,0,0-.31L29,35.21a1.16,1.16,0,0,0-.56-.72,1.14,1.14,0,0,0-.59-.16l-.26,0L38.29,15.7a1.14,1.14,0,0,0,.16-.59m-13.7,24Z"/><path class="cls-3" d="M16.07,24.4l6.09-10.58a1.2,1.2,0,0,0,.16-.6,1.19,1.19,0,0,0-.59-1l-1.23-.72a1.25,1.25,0,0,0-.6-.16,1.1,1.1,0,0,0-.31,0,1.22,1.22,0,0,0-.72.56l-6.1,10.58a1.2,1.2,0,0,0-.16.6,1.19,1.19,0,0,0,.59,1l1.23.72A1.28,1.28,0,0,0,15,25a1.06,1.06,0,0,0,.31,0,1.18,1.18,0,0,0,.73-.56m-1-.6-1.23-.71,6.1-10.58,1.23.71Zm3.14-13.61a1.17,1.17,0,0,0,.6.16,1.1,1.1,0,0,0,.31,0l1.37-.37a1.19,1.19,0,0,0,.88-1.15,1.06,1.06,0,0,0,0-.31l-1-3.66h0l0-.13h0a2.48,2.48,0,0,0-2.39-1.85,2.35,2.35,0,0,0-.64.09h0l-.13,0h0l-3.63,1a1.21,1.21,0,0,0-.88,1.16,1.15,1.15,0,0,0,0,.31L13,6.79a1.2,1.2,0,0,0,.55.72,1.17,1.17,0,0,0,.6.16l.26,0c-2.3,4-10.72,18.64-10.72,18.64a1.2,1.2,0,0,0-.16.6,1.18,1.18,0,0,0,.6,1l1.22.72a1.28,1.28,0,0,0,.6.16,1.55,1.55,0,0,0,.31,0A1.25,1.25,0,0,0,7,28.2S15.38,13.65,17.68,9.63a1.21,1.21,0,0,0,.49.56M6,27.6l-1.22-.71L16.89,5.74l-2.72.74L13.8,5.1l3.63-1,.13,0A1.27,1.27,0,0,1,19.13,5l0,.13,1,3.66-1.37.36-.7-2.62ZM27.39,13.38a1.19,1.19,0,0,0-.59-1l-1.23-.71a1.14,1.14,0,0,0-.59-.16,1.06,1.06,0,0,0-.31,0,1.18,1.18,0,0,0-.73.56l-8.5,14.77a1.28,1.28,0,0,0-.16.6,1.2,1.2,0,0,0,.6,1l1.22.72a1.32,1.32,0,0,0,.61.16,1.54,1.54,0,0,0,.3,0,1.25,1.25,0,0,0,.73-.56L27.23,14a1.16,1.16,0,0,0,.16-.59M17.7,28.15l-1.22-.71L25,12.66l1.22.72Zm20.75-13a1.22,1.22,0,0,0-.6-1l-1.22-.71a1.2,1.2,0,0,0-.6-.16,1.06,1.06,0,0,0-.31,0,1.18,1.18,0,0,0-.73.56S26.62,28.35,24.32,32.37a1.14,1.14,0,0,0-.5-.56,1.11,1.11,0,0,0-.59-.16,1.06,1.06,0,0,0-.31,0l-1.37.37a1.19,1.19,0,0,0-.88,1.15,1.06,1.06,0,0,0,0,.31l1,3.66h0l0,.13h0a2.49,2.49,0,0,0,2.39,1.85,2.37,2.37,0,0,0,.65-.09l.12,0h0l3.62-1a1.22,1.22,0,0,0,.89-1.16,1.76,1.76,0,0,0,0-.31L29,35.21a1.18,1.18,0,0,0-.56-.72,1.14,1.14,0,0,0-.59-.16l-.26,0c2.3-4,10.72-18.64,10.72-18.64a1.2,1.2,0,0,0,.16-.6M25.11,36.26l2.72-.74.36,1.38-3.63,1-.12,0A1.28,1.28,0,0,1,22.87,37l0-.13-1-3.66,1.37-.36.69,2.61L36,14.4l1.22.71Zm-.36,2.81ZM21,28.63l1.22.71a1.22,1.22,0,0,0,.61.17,1.54,1.54,0,0,0,.3,0,1.23,1.23,0,0,0,.73-.57l6.1-10.58a1.16,1.16,0,0,0,.16-.59,1.2,1.2,0,0,0-.6-1L28.25,16a1.17,1.17,0,0,0-.6-.16,1.06,1.06,0,0,0-.31,0,1.18,1.18,0,0,0-.73.56L20.51,27a1.28,1.28,0,0,0-.16.6,1.2,1.2,0,0,0,.6,1M27.65,17l1.22.71-6.1,10.59-1.22-.71Z"/><polygon class="cls-4" points="15.03 23.8 13.8 23.09 19.9 12.51 21.13 13.22 15.03 23.8"/><polygon class="cls-4" points="17.7 28.15 16.48 27.44 24.97 12.66 26.2 13.38 17.7 28.15"/><polygon class="cls-4" points="27.65 17.01 28.87 17.73 22.77 28.31 21.55 27.6 27.65 17.01"/></g></g></svg>