<svg xmlns="http://www.w3.org/2000/svg" viewBox="0 0 42 42"><defs><style>.cls-1{fill:none;}.cls-2{fill:#c8964b;}.cls-2,.cls-3{fill-rule:evenodd;}.cls-3{fill:#3c3d3e;}.cls-4{fill:#fff;}</style></defs><title>bk-menu-icon-data-and-research</title><g id="Layer_2" data-name="Layer 2"><g id="Layer_1-2" data-name="Layer 1"><rect class="cls-1" width="42" height="42"/><path class="cls-2" d="M38.08,7.76V7.64A2.33,2.33,0,0,0,35.77,5.3H6.23A2.33,2.33,0,0,0,3.91,7.63V34.37A2.34,2.34,0,0,0,6.23,36.7H29.55a2.33,2.33,0,0,0,2.32-2.33v-23a1.12,1.12,0,0,0-1.12-1.12H29.43a1.12,1.12,0,0,0-1.12,1.12V30.59a.38.38,0,0,0,0,.1v2.43H7.48V8.88h27v26.7a1.12,1.12,0,0,0,1.12,1.12H37a1.12,1.12,0,0,0,.79-.32,1.15,1.15,0,0,0,.33-.8Z"/><path class="cls-3" d="M17.24,21.38a1.12,1.12,0,0,0-1.12,1.12v8.22a1.12,1.12,0,0,0,1.12,1.12h1.3a1.12,1.12,0,0,0,1.12-1.12V22.5a1.12,1.12,0,0,0-1.12-1.12Zm1.3,9.34h-1.3V22.5h1.3Zm4.79-14.91a1.12,1.12,0,0,0-1.12,1.12V30.72a1.12,1.12,0,0,0,1.12,1.12h1.31a1.12,1.12,0,0,0,1.12-1.12V16.93a1.12,1.12,0,0,0-1.12-1.12Zm1.31,14.91H23.33V16.93h1.31Zm13.44-23V7.64A2.33,2.33,0,0,0,35.77,5.3H6.23A2.32,2.32,0,0,0,3.92,7.63V34.37A2.33,2.33,0,0,0,6.23,36.7H29.55a2.33,2.33,0,0,0,2.32-2.33v-23a1.12,1.12,0,0,0-1.12-1.12H29.43a1.12,1.12,0,0,0-1.12,1.12V30.59a.38.38,0,0,0,0,.1v2.43H7.48V8.88h27v26.7a1.12,1.12,0,0,0,1.12,1.12H37a1.09,1.09,0,0,0,.79-.33,1.11,1.11,0,0,0,.33-.79ZM35.64,35.58V7.76H6.36V34.24H29.42V30.69h0V11.34h1.32v23a1.21,1.21,0,0,1-1.2,1.21H6.23A1.21,1.21,0,0,1,5,34.37V7.63a1.21,1.21,0,0,1,1.2-1.21H35.77A1.21,1.21,0,0,1,37,7.64V35.58ZM11.3,27.23a1.12,1.12,0,0,0-1.12,1.12v2.37a1.12,1.12,0,0,0,1.12,1.12h1.31a1.12,1.12,0,0,0,1.12-1.12V28.35a1.12,1.12,0,0,0-1.12-1.12Zm1.31,3.49H11.3V28.35h1.31Z"/><rect class="cls-4" x="23.33" y="16.93" width="1.31" height="13.79"/><rect class="cls-4" x="17.04" y="22.5" width="1.51" height="8.22"/><rect class="cls-4" x="11.3" y="28.35" width="1.31" height="2.37"/></g></g></svg>