<svg xmlns="http://www.w3.org/2000/svg" viewBox="0 0 42 42"><defs><style>.cls-1,.cls-3{fill:none;}.cls-2{fill:#fff;}.cls-3{stroke:#4d4d4e;stroke-miterlimit:10;stroke-width:1.33px;}.cls-4{fill:#c8964b;}.cls-5{fill:#4d4d4e;}</style></defs><title>bk-menu-icon-announcements</title><g id="Layer_2" data-name="Layer 2"><g id="Layer_1-2" data-name="Layer 1"><rect class="cls-1" width="42" height="42"/><path class="cls-2" d="M16.24,22.16,14.69,22a1.48,1.48,0,0,1-.87-1.35V18.24a1.49,1.49,0,0,1,.81-1.32l1.61-.26Z"/><path class="cls-3" d="M16.24,22.16,14.69,22a1.48,1.48,0,0,1-.87-1.35V18.24a1.49,1.49,0,0,1,.81-1.32l1.61-.26Z"/><path class="cls-4" d="M16.36,22.16v5.51a1.08,1.08,0,0,0,1.5,1S25.16,24,30.47,23.9l.24,0-.33,6.24s-.94.77-.89,1.54A2.15,2.15,0,0,0,30.38,33s1.56,0,2.37,0,.87-.58.87-.58l.77-8.73,1.35-.07A3.67,3.67,0,0,0,39,20v-1a3.69,3.69,0,0,0-3.26-3.66L30.5,15c-6-.26-12.64-4.77-12.64-4.77a1.08,1.08,0,0,0-1.5,1V22.16Z"/><path class="cls-3" d="M16.36,22.16v5.51a1.08,1.08,0,0,0,1.5,1S25.16,24,30.47,23.9l.24,0-.33,6.24s-.94.77-.89,1.54A2.15,2.15,0,0,0,30.38,33s1.56,0,2.37,0,.87-.58.87-.58l.77-8.73,1.35-.07A3.67,3.67,0,0,0,39,20v-1a3.69,3.69,0,0,0-3.26-3.66L30.5,15c-6-.26-12.64-4.77-12.64-4.77a1.08,1.08,0,0,0-1.5,1V22.16Z"/><path class="cls-5" d="M8.17,28.75a.83.83,0,0,1-.53-.18,12.47,12.47,0,0,1,0-19.41A.84.84,0,0,1,8.25,9a.88.88,0,0,1,.57.31l.67.83a.85.85,0,0,1-.12,1.19,9.7,9.7,0,0,0,0,15.12.84.84,0,0,1,.12,1.18l-.67.83a.84.84,0,0,1-.57.31H8.17"/><path class="cls-5" d="M10.59,26.29a.82.82,0,0,1-.53-.19,9.36,9.36,0,0,1,0-14.5.84.84,0,0,1,1.18.12l.68.83a.85.85,0,0,1-.12,1.18,6.6,6.6,0,0,0,0,10.24.85.85,0,0,1,.11,1.19l-.68.83a.82.82,0,0,1-.65.3"/><path class="cls-2" d="M8.17,9.82l.67.83a10.55,10.55,0,0,0,0,16.43l-.67.83a11.61,11.61,0,0,1,0-18.09"/><path class="cls-2" d="M10.63,12.25l.68.83a7.45,7.45,0,0,0,0,11.54l-.68.83a8.52,8.52,0,0,1,0-13.2"/></g></g></svg>