<svg xmlns="http://www.w3.org/2000/svg" viewBox="0 0 42 42"><defs><style>.cls-1{fill:none;}.cls-2{fill:#c8964b;}.cls-3{fill:#4d4d4e;}.cls-4{fill:#fff;}</style></defs><title>bk-menu-icon-resources</title><g id="Layer_2" data-name="Layer 2"><g id="Layer_1-2" data-name="Layer 1"><rect class="cls-1" width="42" height="42"/><path class="cls-2" d="M3,32.64V11.18A1.82,1.82,0,0,1,4.8,9.36h6.44l1.91,1.9H27a1.83,1.83,0,0,1,1.82,1.83V15"/><path class="cls-3" d="M3.68,32.64H2.27V11.18A2.54,2.54,0,0,1,4.8,8.65h6.73l1.91,1.91H27a2.53,2.53,0,0,1,2.53,2.53V15H28.08V13.09A1.12,1.12,0,0,0,27,12H12.85l-1.91-1.91H4.8a1.12,1.12,0,0,0-1.12,1.12Z"/><path class="cls-4" d="M2.52,31.14,5.39,16.69a1.82,1.82,0,0,1,1.79-1.47H28.49a1.83,1.83,0,0,1,1.8,2.15L27.57,32.64H3.75a1.25,1.25,0,0,1-1.23-1.5"/><path class="cls-3" d="M28.16,33.35H3.75A2,2,0,0,1,1.82,31L4.69,16.55a2.55,2.55,0,0,1,2.49-2H28.49a2.51,2.51,0,0,1,1.94.91A2.54,2.54,0,0,1,31,17.49Zm-21-17.42a1.12,1.12,0,0,0-1.1.9L3.21,31.28a.54.54,0,0,0,.54.66H27l2.61-14.7a1.11,1.11,0,0,0-1.1-1.31Z"/><path class="cls-3" d="M36.88,31.29a1.26,1.26,0,0,1-.73-.22l-1-.66a.15.15,0,0,0-.13,0l-.74.31a.19.19,0,0,0-.11.12c-.09.41-.17.82-.27,1.23A1.17,1.17,0,0,1,33,33l-.09,0H31.79a.79.79,0,0,1-.63-.34,2,2,0,0,1-.37-.89q-.11-.47-.24-.93a.2.2,0,0,0-.08-.1l-.84-.35a.19.19,0,0,0-.13,0c-.37.23-.72.47-1.09.69a1.21,1.21,0,0,1-1.22.08,1.25,1.25,0,0,1-.12-.08c-.28-.28-.57-.55-.83-.84a.91.91,0,0,1-.11-.9,1.81,1.81,0,0,1,.18-.4L27,27.84a.18.18,0,0,0,0-.2c-.09-.19-.17-.4-.26-.59a.2.2,0,0,0-.11-.11c-.43-.11-.86-.21-1.29-.33a1.86,1.86,0,0,1-.49-.24.85.85,0,0,1-.4-.77c0-.29,0-.57,0-.85a1,1,0,0,1,.47-.9,1.66,1.66,0,0,1,.68-.26l1-.22a.15.15,0,0,0,.13-.11c.08-.23.18-.45.27-.68a.14.14,0,0,0,0-.16l-.69-1.15a1.28,1.28,0,0,1-.2-.93.86.86,0,0,1,.24-.45c.23-.23.45-.46.69-.68A1,1,0,0,1,28.11,19a1,1,0,0,1,.33.16l1.06.67a.23.23,0,0,0,.14,0l.79-.33a.19.19,0,0,0,.13-.13l.3-1.25a1.53,1.53,0,0,1,.36-.63.79.79,0,0,1,.56-.27h1.09a.9.9,0,0,1,.68.34,1.62,1.62,0,0,1,.34.74c.06.36.15.72.23,1.08a.2.2,0,0,0,.11.11l.75.32a.19.19,0,0,0,.13,0c.35-.23.7-.46,1.06-.68a1.19,1.19,0,0,1,1.22-.08.41.41,0,0,1,.11.07c.29.28.58.56.85.86a.9.9,0,0,1,.1.91,1.62,1.62,0,0,1-.19.4q-.3.53-.63,1.05a.14.14,0,0,0,0,.15c.1.24.21.49.3.74a.19.19,0,0,0,.14.12c.42.09.85.17,1.26.28a1.12,1.12,0,0,1,.87.89,2.29,2.29,0,0,1,0,.37v.68a.91.91,0,0,1-.4.78,2.15,2.15,0,0,1-.84.32l-.94.24a.2.2,0,0,0-.11.11c-.11.22-.2.45-.29.68a.17.17,0,0,0,0,.14c.21.37.43.73.64,1.09a1.49,1.49,0,0,1,.24.77.85.85,0,0,1-.26.62c-.23.23-.46.47-.7.69a.87.87,0,0,1-.68.25m0-.76a.61.61,0,0,0,.18-.1l.51-.5c.2-.2.21-.25.07-.51a.57.57,0,0,0-.08-.13l-.82-1.38a.12.12,0,0,1,0-.16,6.75,6.75,0,0,0,.57-1.36.22.22,0,0,1,.12-.11L38.55,26l.71-.21a.22.22,0,0,0,.16-.25q0-.37,0-.75a.33.33,0,0,0-.23-.35L39,24.39,37.44,24a.13.13,0,0,1-.12-.11,6.63,6.63,0,0,0-.59-1.43.15.15,0,0,1,0-.17l.85-1.43a.81.81,0,0,0,.12-.29.22.22,0,0,0,0-.19c-.2-.21-.4-.41-.61-.6a.26.26,0,0,0-.2-.07.75.75,0,0,0-.29.09l-1.4.89a.14.14,0,0,1-.18,0,6,6,0,0,0-1.38-.58.22.22,0,0,1-.18-.19c-.11-.54-.23-1.08-.35-1.62a.35.35,0,0,0-.4-.31H32c-.24,0-.28,0-.37.25l0,.1c-.14.54-.27,1.08-.41,1.62a.14.14,0,0,1-.11.13,6.36,6.36,0,0,0-1.47.62.16.16,0,0,1-.19,0l-.56-.36c-.3-.19-.59-.39-.9-.56s-.37-.12-.53.05-.3.31-.45.46-.18.22-.07.45a.54.54,0,0,0,.07.13l.88,1.47a.15.15,0,0,1,0,.16,7,7,0,0,0-.57,1.39.18.18,0,0,1-.11.1l-.82.18-.85.19a.36.36,0,0,0-.31.4v.59c0,.34,0,.36.35.46l.06,0c.53.13,1.05.27,1.58.39a.16.16,0,0,1,.13.13,6.07,6.07,0,0,0,.54,1.29.17.17,0,0,1,0,.18L27,29.33a1.94,1.94,0,0,0-.13.3.21.21,0,0,0,.06.22c.19.18.39.37.57.56a.28.28,0,0,0,.3.09.88.88,0,0,0,.22-.1l1.42-.91a.17.17,0,0,1,.19,0,6.63,6.63,0,0,0,1.48.62c.07,0,.09.05.11.12l.3,1.21c.06.22.13.43.2.64a.2.2,0,0,0,.21.13h.81a.28.28,0,0,0,.27-.15,1,1,0,0,0,.09-.22c.12-.54.24-1.07.35-1.6a.18.18,0,0,1,.13-.15A6.2,6.2,0,0,0,35,29.5a.17.17,0,0,1,.18,0l1.41.9a2.08,2.08,0,0,0,.3.12"/><path class="cls-2" d="M36.88,30.53a2.08,2.08,0,0,1-.3-.12c-.47-.29-.94-.6-1.41-.9a.17.17,0,0,0-.18,0,6.2,6.2,0,0,1-1.41.59.18.18,0,0,0-.13.15c-.11.53-.23,1.06-.35,1.6a1,1,0,0,1-.09.22.28.28,0,0,1-.27.15h-.81a.2.2,0,0,1-.21-.13c-.07-.21-.14-.42-.2-.64l-.3-1.21c0-.07,0-.11-.11-.12a6.63,6.63,0,0,1-1.48-.62.17.17,0,0,0-.19,0L28,30.4a.88.88,0,0,1-.22.1.28.28,0,0,1-.3-.09c-.18-.19-.38-.38-.57-.56a.21.21,0,0,1-.06-.22,1.94,1.94,0,0,1,.13-.3l.88-1.46a.17.17,0,0,0,0-.18,5.94,5.94,0,0,1-.54-1.3.16.16,0,0,0-.13-.12c-.53-.12-1-.26-1.58-.39l-.07,0c-.33-.1-.34-.12-.34-.47v-.58a.36.36,0,0,1,.31-.4l.85-.19.82-.18a.18.18,0,0,0,.11-.1,6.77,6.77,0,0,1,.57-1.39.15.15,0,0,0,0-.16L27,20.92a.83.83,0,0,1-.07-.13c-.11-.23-.1-.28.07-.45s.31-.3.45-.46.28-.2.53-.05.6.37.9.56l.56.36a.16.16,0,0,0,.19,0,6.36,6.36,0,0,1,1.47-.62.14.14,0,0,0,.11-.13c.14-.54.27-1.08.41-1.62l0-.1c.09-.23.13-.25.37-.25h.66a.35.35,0,0,1,.4.31c.12.54.24,1.08.35,1.62a.22.22,0,0,0,.17.19,5.84,5.84,0,0,1,1.39.58.14.14,0,0,0,.18,0l1.4-.89a.75.75,0,0,1,.29-.09.26.26,0,0,1,.2.07c.21.19.41.4.61.6a.26.26,0,0,1,0,.19.81.81,0,0,1-.12.29c-.28.48-.56,1-.85,1.43a.15.15,0,0,0,0,.17,6.63,6.63,0,0,1,.59,1.43.13.13,0,0,0,.12.11l1.58.35.17.05a.33.33,0,0,1,.23.35q0,.38,0,.75a.22.22,0,0,1-.16.25l-.71.2-1.13.29a.22.22,0,0,0-.12.11,6.75,6.75,0,0,1-.57,1.36.12.12,0,0,0,0,.16l.82,1.38a.57.57,0,0,1,.08.13c.14.26.13.31-.07.51l-.51.5a.61.61,0,0,1-.18.1M32.34,22a3.15,3.15,0,1,0,3.15,3.23A3.16,3.16,0,0,0,32.34,22"/><path class="cls-3" d="M32.34,22a3.15,3.15,0,1,1-3.17,3.13A3.16,3.16,0,0,1,32.34,22m2.38,3.16a2.38,2.38,0,1,0-2.37,2.38,2.36,2.36,0,0,0,2.37-2.38"/></g></g></svg>