<svg xmlns="http://www.w3.org/2000/svg" viewBox="0 0 42 42"><defs><style>.cls-1{fill:none;}.cls-2{fill:#c8964b;}.cls-3{fill:#fff;}.cls-4{fill:#4d4d4e;}</style></defs><title>bk-menu-icon-participants</title><g id="Layer_2" data-name="Layer 2"><g id="Layer_1-2" data-name="Layer 1"><rect class="cls-1" width="42" height="42"/><path class="cls-2" d="M16.88,35.54s0-3.53,2.13-5.7a14.42,14.42,0,0,1,5.54-3.24l3.41,8,3.41-7.8s3.54,1.06,5.3,3a9.6,9.6,0,0,1,2.14,5.75Z"/><path class="cls-3" d="M34.23,18.78a6.39,6.39,0,1,0-9.77,5.42l.09,2.4,3.41,8,3.41-7.8V24.11a6.41,6.41,0,0,0,2.86-5.33"/><path class="cls-4" d="M37.11,29.4A13.34,13.34,0,0,0,32,26.33V24.54A8.84,8.84,0,0,0,35.61,19a10,10,0,0,0,.76-1.58c.59-1.64.66-5-1.13-7A6.06,6.06,0,0,0,30.8,8.72h0l-.44-1.49a15.49,15.49,0,0,0-5.81.61c-2.6.94-5.75,3.52-5.39,7.43a9.68,9.68,0,0,0,1.13,3.56A8.86,8.86,0,0,0,24,24.52v1.65a14.67,14.67,0,0,0-5.37,3.26,9.87,9.87,0,0,0-2.29,6.11v.6H39.4v-.6a10.07,10.07,0,0,0-2.29-6.14M25.58,27.52l1.64.47-.46.79.72.83L27,30.92Zm3.33,3.39-.41-1.3.75-.76L28.79,28l1.56-.38ZM21.75,19.72l.71-3.22L30.36,13l3.29,3,.6,3.57a6.81,6.81,0,0,1-6.28,5,6.77,6.77,0,0,1-6.22-4.86m6.22,6a7.21,7.21,0,0,0,2.81-.58V26.3L28,27l-2.84-.82v-1a7.1,7.1,0,0,0,2.83.59M17.52,35a8.29,8.29,0,0,1,1.92-4.7,13.21,13.21,0,0,1,4.78-2.91L27.48,35Zm10.91,0,3.26-7.45a12,12,0,0,1,4.54,2.69,8.81,8.81,0,0,1,2,4.76Z"/><path class="cls-3" d="M22,29l2.58-13.95S21.81,5.87,14.29,6.5,4.2,14.71,4.2,14.71V31.08L2.6,35.54H25.72a12.43,12.43,0,0,0-1.87-4.47A16.17,16.17,0,0,0,22,29"/><path class="cls-2" d="M7.77,13.28l4.33.89a3.31,3.31,0,0,0,1.54-.75c.68-.63,1.08-1,1.08-1A6.35,6.35,0,0,0,16,13.94c.55.38,3.6-.51,3.6-.51l1.25-.15a9.18,9.18,0,0,1,.76,3.66c0,4.55-3.26,8.23-7.27,8.23S7,21.49,7,16.94a9.21,9.21,0,0,1,.75-3.66"/><path class="cls-4" d="M23.43,29.4c-.18-.19-.37-.38-.56-.55.4-2.69,1.82-12.35,1.66-13.77a12.53,12.53,0,0,0-2.08-5.2,1.06,1.06,0,0,0,.05-.31V9.39a1.07,1.07,0,0,0-1.07-1.07h-.34a9.65,9.65,0,0,0-6.8-2.46h-.38a9.65,9.65,0,0,0-6.8,2.46H6.7A1.07,1.07,0,0,0,5.64,9.39v.18a1.15,1.15,0,0,0,.06.37,12.66,12.66,0,0,0-2,5.14c-.17,1.5,0,14.73,0,16.15a11.14,11.14,0,0,0-1,4.31v.6H25.72v-.6a10.14,10.14,0,0,0-2.29-6.14M13.91,7.05h.38a9,9,0,0,1,4.84,1.27H9.07a9,9,0,0,1,4.84-1.27M4.85,15.21a11.06,11.06,0,0,1,1.81-4.58H21.54a11.06,11.06,0,0,1,1.81,4.58c.11,1-.81,7.8-1.56,12.82a16.39,16.39,0,0,0-3.68-1.75V24.45A8.9,8.9,0,0,0,22,17a9.34,9.34,0,0,0-.69-3.57l1-.3-.25-.81c-.87.26-1.79.52-2.62.75h0l-.09,0-.62.17a8.28,8.28,0,0,1-2.53.38,14.1,14.1,0,0,1-1.12-1.44l-.27-.47,0,0v0l-.35.39s-.41.41-1,1l-.27.22a3,3,0,0,1-1,.43c-.58-.16-2.26-.48-3.65-.74l-1-.19v0l-1.15-.21-.15.84,1,.17A9.53,9.53,0,0,0,6.59,17a8.87,8.87,0,0,0,3.87,7.49h0v1.74l-5.1,7-.5-2c-.06-5.08-.12-14.86,0-16M11.29,26V24.91a7,7,0,0,0,2.57.67v.5Zm3.42.08v-.52a7.12,7.12,0,0,0,2.55-.66v1.24Zm-.42-1.35c-3.78,0-6.85-3.5-6.85-7.8A8.72,8.72,0,0,1,8,13.77l.28.06,3.77.76h.14a4.55,4.55,0,0,0,2.43-1.53,5.11,5.11,0,0,0,1,1.21,1.25,1.25,0,0,0,.41.28c.11,0,.41.15,3.56-.72l.86-.1a8.64,8.64,0,0,1,.6,3.21c0,4.3-3.07,7.8-6.84,7.8M4.14,33.29,4.58,35H3.83a10,10,0,0,1,.31-1.66M5.53,35l5.63-7.75,2.7.07V35Zm9.18,0V27.28l2.88.07a12.79,12.79,0,0,1,4.95,2.84A8.73,8.73,0,0,1,24.49,35Z"/></g></g></svg>