<svg xmlns="http://www.w3.org/2000/svg" viewBox="0 0 42 42"><defs><style>.cls-1{fill:none;}.cls-2{fill:#4d4d4e;}.cls-3{fill:#fff;}.cls-4{fill:#c8964b;}</style></defs><title>bk-menu-icon-regulations</title><g id="Layer_2" data-name="Layer 2"><g id="Layer_1-2" data-name="Layer 1"><rect class="cls-1" width="42" height="42"/><path class="cls-2" d="M2.41,29.39a.65.65,0,1,1,0-1.3l3.06,0h0a.65.65,0,0,1,.65.64.66.66,0,0,1-.65.66l-3.06,0Z"/><path class="cls-2" d="M7,25.51a.61.61,0,0,1-.45-.19L4.37,23.18a.65.65,0,0,1,.91-.93l2.19,2.14a.66.66,0,0,1,0,.92.67.67,0,0,1-.47.2"/><path class="cls-2" d="M5.54,34.72a.69.69,0,0,1-.46-.18.65.65,0,0,1,0-.92l2.14-2.19a.65.65,0,0,1,.92,0,.66.66,0,0,1,0,.92L6,34.53a.62.62,0,0,1-.46.19"/><path class="cls-3" d="M14.13,35.45H27.87a1.81,1.81,0,0,0,0-3.62H14.13a1.81,1.81,0,1,0,0,3.62"/><path class="cls-2" d="M28.34,36.05H13.66a1.94,1.94,0,0,1-1.94-1.94v-.93a2,2,0,0,1,1.94-1.95H28.34a2,2,0,0,1,1.94,1.95v.93a1.94,1.94,0,0,1-1.94,1.94M13.66,32.43a.75.75,0,0,0-.75.75v.93a.76.76,0,0,0,.75.75H28.34a.76.76,0,0,0,.75-.75v-.93a.75.75,0,0,0-.75-.75Z"/><path class="cls-4" d="M11.44,25.29l5,1.94a3.39,3.39,0,0,0,4.37-1.92l5.35-12.22a3.39,3.39,0,0,0-1.91-4.37l-5-1.94a3.37,3.37,0,0,0-4.36,1.91L9.52,20.92a3.39,3.39,0,0,0,1.92,4.37"/><path class="cls-2" d="M17.64,28.06a4,4,0,0,1-1.43-.27l-5-1.95A4,4,0,0,1,9,20.7v0L14.32,8.46a4,4,0,0,1,5.14-2.24l5,1.94a4,4,0,0,1,2.19,2.11,3.93,3.93,0,0,1,.07,3v0L21.34,25.54a4,4,0,0,1-3.7,2.52m-7.57-6.91a2.79,2.79,0,0,0,1.59,3.58l5,1.94a2.77,2.77,0,0,0,3.59-1.57v0l5.35-12.21a2.8,2.8,0,0,0-.05-2.11A2.76,2.76,0,0,0,24,9.28L19,7.33a2.79,2.79,0,0,0-3.59,1.58v0Z"/><path class="cls-3" d="M37.07,28.2,22.49,22l1.7-4.11,14.59,6.16a2.23,2.23,0,1,1-1.71,4.11"/><path class="cls-2" d="M38.4,29.24a1.93,1.93,0,0,1-.75-.15l-15.39-6.5a.59.59,0,0,1-.32-.78l1.7-4.11a.58.58,0,0,1,.33-.32.59.59,0,0,1,.45,0l15.4,6.5a1.94,1.94,0,0,1,1,2.53L40.19,28a2,2,0,0,1-1.79,1.2M38.11,28a.8.8,0,0,0,.57,0,.76.76,0,0,0,.41-.4L39.76,26a.71.71,0,0,0,0-.57.73.73,0,0,0-.4-.41L24.52,18.71l-1.25,3Z"/><path class="cls-3" d="M24.28,16.63c-.15-.1-10.75-4.43-10.75-4.43"/><path class="cls-2" d="M24,17.16c-.34-.17-6.59-2.73-10.71-4.41l.46-1.11C24.42,16,24.55,16.09,24.62,16.13l-.34.5Z"/><line class="cls-3" x1="23.12" y1="19.97" x2="12.23" y2="15.29"/><rect class="cls-2" x="17.08" y="11.71" width="1.19" height="11.85" transform="translate(-5.5 26.91) rotate(-66.75)"/><line class="cls-3" x1="21.4" y1="23.04" x2="10.55" y2="18.58"/><rect class="cls-2" x="15.38" y="14.95" width="1.2" height="11.74" transform="translate(-9.35 27.67) rotate(-67.64)"/></g></g></svg>