<svg xmlns="http://www.w3.org/2000/svg" viewBox="0 0 42 42"><defs><style>.cls-1{fill:none;}.cls-2{fill:#cb993f;}.cls-3{fill:#4d4d4e;}</style></defs><title>bk-menu-icon-otc-platform</title><g id="Layer_2" data-name="Layer 2"><g id="Layer_1-2" data-name="Layer 1"><rect class="cls-1" width="42" height="42"/><path class="cls-2" d="M24.69,8.25h.2a1.4,1.4,0,0,1,1.18,1.59l-1.15,7.83,7.83-1.16a1.4,1.4,0,0,1,.41,2.77L21.6,21,23.31,9.44a1.4,1.4,0,0,1,1.38-1.19"/><path class="cls-3" d="M33,19.25l-.21,0a1.38,1.38,0,0,1-1.17-1.58l1.15-7.84L25,11a1.4,1.4,0,1,1-.41-2.76L36.1,6.5,34.39,18.06A1.4,1.4,0,0,1,33,19.25"/><path class="cls-2" d="M7.65,17.91a.75.75,0,0,1,0-.21,1.4,1.4,0,0,1,1.58-1.18l7.83,1.16L15.93,9.85a1.4,1.4,0,1,1,2.76-.41L20.4,21,8.84,19.29a1.4,1.4,0,0,1-1.19-1.38"/><path class="cls-3" d="M18.65,9.59a1.34,1.34,0,0,1,0,.2A1.4,1.4,0,0,1,17.05,11L9.22,9.82l1.15,7.83a1.4,1.4,0,0,1-2.76.41L5.9,6.5,17.46,8.21a1.39,1.39,0,0,1,1.19,1.38"/><path class="cls-2" d="M17.31,35l-.2,0a1.39,1.39,0,0,1-1.18-1.59l1.15-7.83L9.25,26.67a1.38,1.38,0,0,1-1.58-1.18A1.4,1.4,0,0,1,8.84,23.9L20.4,22.19,18.69,33.75A1.39,1.39,0,0,1,17.31,35"/><path class="cls-3" d="M9,24H9.2a1.39,1.39,0,0,1,1.17,1.59L9.22,33.38l7.83-1.16A1.4,1.4,0,1,1,17.46,35L5.9,36.7,7.61,25.14A1.4,1.4,0,0,1,9,24"/><path class="cls-2" d="M34.35,25.29a1.5,1.5,0,0,1,0,.2,1.38,1.38,0,0,1-1.58,1.18l-7.84-1.16,1.16,7.83a1.4,1.4,0,1,1-2.76.41L21.6,22.19,33.16,23.9a1.41,1.41,0,0,1,1.19,1.39"/><path class="cls-3" d="M23.35,33.61a1.48,1.48,0,0,1,0-.21A1.41,1.41,0,0,1,25,32.22l7.83,1.16-1.15-7.83A1.39,1.39,0,0,1,32.8,24a1.4,1.4,0,0,1,1.59,1.18L36.1,36.7,24.54,35a1.4,1.4,0,0,1-1.19-1.38"/></g></g></svg>