<?xml version="1.0" encoding="utf-8"?>
<!-- Generator: Adobe Illustrator 24.0.1, SVG Export Plug-In . SVG Version: 6.00 Build 0)  -->
<svg version="1.1" id="Layer_1" xmlns="http://www.w3.org/2000/svg" xmlns:xlink="http://www.w3.org/1999/xlink" x="0px" y="0px"
	 viewBox="0 0 813.5 346.6" style="enable-background:new 0 0 813.5 346.6;" xml:space="preserve">
<style type="text/css">
	.st0{fill:#C7964A;}
	.st1{fill:#435058;}
</style>
<g>
	<g>
		<g>
			<g>
				<g>
					<g>
						<g>
							<g>
								<path class="st0" d="M154.2,19.7c0.5,0,1.1,0,1.7,0.1c6.1,0.9,10.4,6.6,9.5,12.8l-9.3,62.9l62.9-9.3
									c6.1-0.9,11.9,3.3,12.8,9.5c0.9,6.1-3.3,11.8-9.5,12.8L129.4,122l13.7-92.8C144,23.7,148.8,19.7,154.2,19.7z"/>
							</g>
						</g>
						<g>
							<g>
								<path class="st1" d="M221,108c-0.5,0-1.1,0-1.7-0.1c-6.1-0.9-10.4-6.6-9.5-12.8l9.3-62.9l-62.9,9.3
									c-6.1,0.9-11.9-3.3-12.8-9.5c-0.9-6.1,3.3-11.8,9.5-12.8l92.8-13.7l-13.7,92.8C231.3,104,226.5,108,221,108z"/>
							</g>
						</g>
					</g>
					<g>
						<g>
							<g>
								<path class="st0" d="M17.5,97.2c0-0.5,0-1.1,0.1-1.7c0.9-6.1,6.6-10.4,12.8-9.5l62.9,9.3l-9.3-62.9
									c-0.9-6.1,3.3-11.9,9.5-12.8c6.1-0.9,11.8,3.3,12.8,9.5l13.7,92.8l-92.8-13.7C21.5,107.5,17.5,102.7,17.5,97.2z"/>
							</g>
						</g>
						<g>
							<g>
								<path class="st1" d="M105.8,30.4c0,0.5,0,1.1-0.1,1.7c-0.9,6.1-6.6,10.4-12.8,9.5l-62.9-9.3l9.3,62.9
									c0.9,6.1-3.3,11.9-9.5,12.8c-6.1,0.9-11.8-3.3-12.8-9.5L3.4,5.6l92.8,13.7C101.8,20.1,105.8,24.9,105.8,30.4z"/>
							</g>
						</g>
					</g>
					<g>
						<g>
							<g>
								<path class="st0" d="M95,234c-0.5,0-1.1,0-1.7-0.1c-6.1-0.9-10.4-6.6-9.5-12.8l9.3-62.9l-62.9,9.3
									c-6.1,0.9-11.9-3.3-12.8-9.5c-0.9-6.1,3.3-11.8,9.5-12.8l92.8-13.7l-13.7,92.8C105.3,230,100.5,234,95,234z"/>
							</g>
						</g>
						<g>
							<g>
								<path class="st1" d="M28.2,145.7c0.5,0,1.1,0,1.7,0.1c6.1,0.9,10.4,6.6,9.5,12.8l-9.3,62.9l62.9-9.3
									c6.1-0.9,11.9,3.3,12.8,9.5c0.9,6.1-3.3,11.8-9.5,12.8L3.4,248l13.7-92.8C18,149.7,22.7,145.7,28.2,145.7z"/>
							</g>
						</g>
					</g>
					<g>
						<g>
							<g>
								<path class="st0" d="M231.8,156.4c0,0.5,0,1.1-0.1,1.7c-0.9,6.1-6.6,10.4-12.8,9.5l-62.9-9.3l9.3,62.9
									c0.9,6.1-3.3,11.9-9.5,12.8c-6.1,0.9-11.8-3.3-12.8-9.5l-13.7-92.8l92.8,13.7C227.8,146.1,231.8,150.9,231.8,156.4z"/>
							</g>
						</g>
						<g>
							<g>
								<path class="st1" d="M143.5,223.2c0-0.5,0-1.1,0.1-1.7c0.9-6.1,6.6-10.4,12.8-9.5l62.9,9.3l-9.3-62.9
									c-0.9-6.1,3.3-11.9,9.5-12.8c6.1-0.9,11.8,3.3,12.8,9.5l13.7,92.8l-92.8-13.7C147.5,233.5,143.5,228.7,143.5,223.2z"/>
							</g>
						</g>
					</g>
				</g>
				<g>
					<g>
						<path class="st1" d="M382.3,0c27.4,0,50.2,8.7,68.4,26C468.9,43.3,478,65.1,478,91.2c0,26.1-9.2,47.8-27.6,64.9
							s-41.6,25.7-69.5,25.7c-26.7,0-49-8.6-66.8-25.7c-17.8-17.1-26.7-38.6-26.7-64.4c0-26.5,9-48.4,26.9-65.7
							C332.3,8.7,354.9,0,382.3,0z M383.3,24.1c-20.3,0-36.9,6.3-50,19c-13.1,12.7-19.6,28.9-19.6,48.6c0,19.1,6.5,35,19.6,47.7
							c13.1,12.7,29.5,19,49.2,19c19.8,0,36.3-6.5,49.5-19.4c13.2-12.9,19.8-29.1,19.8-48.3c0-18.8-6.6-34.6-19.8-47.4
							C418.8,30.5,402.6,24.1,383.3,24.1z"/>
						<path class="st1" d="M477.3,2.3h148.1v22.6h-61.8v154.9h-25.5V24.9h-60.8V2.3z"/>
						<path class="st1" d="M802.1,138.7v27.9c-18.6,10.1-40.1,15.2-64.5,15.2c-19.8,0-36.6-4-50.4-11.9
							c-13.8-7.9-24.7-18.9-32.7-32.9c-8-14-12.1-29.1-12.1-45.3c0-25.8,9.2-47.5,27.6-65.1c18.4-17.6,41.1-26.4,68.1-26.4
							c18.6,0,39.3,4.9,62,14.6v27.3c-20.7-11.8-41-17.8-60.8-17.8c-20.3,0-37.2,6.4-50.6,19.2c-13.4,12.8-20.1,28.9-20.1,48.1
							c0,19.5,6.6,35.4,19.8,48c13.2,12.5,30.1,18.8,50.6,18.8C760.6,158.5,781.6,151.9,802.1,138.7z"/>
					</g>
					<g>
						<path class="st1" d="M336.3,204.3c5.5,0,10,1.7,13.7,5.2c3.6,3.5,5.5,7.8,5.5,13c0,5.2-1.8,9.6-5.5,13
							c-3.7,3.4-8.3,5.1-13.9,5.1c-5.3,0-9.8-1.7-13.4-5.1c-3.6-3.4-5.3-7.7-5.3-12.9c0-5.3,1.8-9.7,5.4-13.1
							C326.3,206.1,330.9,204.3,336.3,204.3z M336.5,209.2c-4.1,0-7.4,1.3-10,3.8c-2.6,2.5-3.9,5.8-3.9,9.7c0,3.8,1.3,7,3.9,9.5
							c2.6,2.5,5.9,3.8,9.8,3.8c4,0,7.3-1.3,9.9-3.9c2.6-2.6,4-5.8,4-9.7c0-3.8-1.3-6.9-4-9.5C343.6,210.4,340.4,209.2,336.5,209.2z
							"/>
						<path class="st1" d="M382.1,204.9h5.1l-15,35.6H371l-15.3-35.6h5.1l10.7,24.9L382.1,204.9z"/>
						<path class="st1" d="M391,204.9h20.1v4.5h-15v10.8h14.5v4.5h-14.5v11h15.5v4.5H391V204.9z"/>
						<path class="st1" d="M417.2,240.3v-35.4h8.9c3.6,0,6.4,0.9,8.5,2.7c2.1,1.8,3.2,4.2,3.2,7.2c0,2.1-0.5,3.8-1.5,5.4
							c-1,1.5-2.5,2.6-4.4,3.4c1.1,0.7,2.2,1.8,3.3,3c1.1,1.3,2.6,3.5,4.6,6.7c1.2,2,2.2,3.5,3,4.5l1.9,2.5h-6l-1.5-2.3
							c-0.1-0.1-0.2-0.2-0.3-0.4l-1-1.4l-1.6-2.6l-1.7-2.8c-1-1.5-2-2.6-2.9-3.5c-0.9-0.9-1.7-1.5-2.4-1.9c-0.7-0.4-1.9-0.6-3.5-0.6
							h-1.3v15.4H417.2z M423.8,209.2h-1.5v11.2h1.9c2.6,0,4.3-0.2,5.3-0.7c1-0.4,1.7-1.1,2.2-2c0.5-0.9,0.8-1.9,0.8-3
							c0-1.1-0.3-2.1-0.9-3c-0.6-0.9-1.4-1.5-2.5-1.9C428,209.4,426.3,209.2,423.8,209.2z"/>
						<path class="st1" d="M453.3,204.8h29.6v4.5h-12.4v31h-5.1v-31h-12.2V204.8z"/>
						<path class="st1" d="M512.7,204.9h5.1v35.4h-5.1v-15.4h-19.9v15.4h-5.1v-35.4h5.1v15.3h19.9V204.9z"/>
						<path class="st1" d="M525.6,204.9h20.1v4.5h-15v10.8h14.5v4.5h-14.5v11h15.5v4.5h-20.6V204.9z"/>
						<path class="st1" d="M596.6,232.1v5.6c-3.7,2-8,3-12.9,3c-4,0-7.3-0.8-10.1-2.4c-2.8-1.6-4.9-3.8-6.5-6.6
							c-1.6-2.8-2.4-5.8-2.4-9.1c0-5.2,1.8-9.5,5.5-13c3.7-3.5,8.2-5.3,13.6-5.3c3.7,0,7.9,1,12.4,2.9v5.5
							c-4.1-2.4-8.2-3.6-12.2-3.6c-4.1,0-7.4,1.3-10.1,3.8c-2.7,2.6-4,5.8-4,9.6c0,3.9,1.3,7.1,4,9.6c2.6,2.5,6,3.8,10.1,3.8
							C588.3,236,592.5,234.7,596.6,232.1z"/>
						<path class="st1" d="M620.2,204.3c5.5,0,10,1.7,13.7,5.2c3.6,3.5,5.5,7.8,5.5,13c0,5.2-1.8,9.6-5.5,13
							c-3.7,3.4-8.3,5.1-13.9,5.1c-5.3,0-9.8-1.7-13.4-5.1c-3.6-3.4-5.3-7.7-5.3-12.9c0-5.3,1.8-9.7,5.4-13.1
							C610.2,206.1,614.8,204.3,620.2,204.3z M620.4,209.2c-4.1,0-7.4,1.3-10,3.8c-2.6,2.5-3.9,5.8-3.9,9.7c0,3.8,1.3,7,3.9,9.5
							c2.6,2.5,5.9,3.8,9.8,3.8c4,0,7.3-1.3,9.9-3.9c2.6-2.6,4-5.8,4-9.7c0-3.8-1.3-6.9-4-9.5C627.5,210.4,624.3,209.2,620.4,209.2z
							"/>
						<path class="st1" d="M670.3,204.9h5.1V225c0,2.7-0.2,4.8-0.6,6.2c-0.4,1.4-0.9,2.5-1.5,3.5c-0.6,0.9-1.3,1.7-2.1,2.5
							c-2.8,2.4-6.5,3.6-11,3.6c-4.6,0-8.3-1.2-11.1-3.6c-0.8-0.7-1.6-1.6-2.1-2.5c-0.6-0.9-1.1-2.1-1.4-3.4
							c-0.4-1.3-0.6-3.4-0.6-6.3v-20.1h5.1V225c0,3.3,0.4,5.7,1.1,7c0.8,1.3,1.9,2.3,3.5,3.1c1.6,0.8,3.4,1.2,5.5,1.2
							c3,0,5.5-0.8,7.4-2.4c1-0.8,1.7-1.8,2.2-3c0.4-1.2,0.7-3.1,0.7-5.9V204.9z"/>
						<path class="st1" d="M710.6,204.9h4.8v35.4H711L687.3,213v27.3h-4.8v-35.4h4.1l23.9,27.5V204.9z"/>
						<path class="st1" d="M720,204.8h29.6v4.5h-12.4v31h-5.1v-31H720V204.8z"/>
						<path class="st1" d="M754.4,204.9h20.1v4.5h-15v10.8H774v4.5h-14.5v11H775v4.5h-20.6V204.9z"/>
						<path class="st1" d="M780.5,240.3v-35.4h8.9c3.6,0,6.4,0.9,8.5,2.7c2.1,1.8,3.2,4.2,3.2,7.2c0,2.1-0.5,3.8-1.5,5.4
							c-1,1.5-2.5,2.6-4.4,3.4c1.1,0.7,2.2,1.8,3.3,3c1.1,1.3,2.6,3.5,4.6,6.7c1.2,2,2.2,3.5,3,4.5l1.9,2.5h-6l-1.5-2.3
							c-0.1-0.1-0.2-0.2-0.3-0.4l-1-1.4l-1.6-2.6l-1.7-2.8c-1-1.5-2-2.6-2.9-3.5c-0.9-0.9-1.7-1.5-2.4-1.9c-0.7-0.4-1.9-0.6-3.5-0.6
							h-1.3v15.4H780.5z M787.1,209.2h-1.5v11.2h1.9c2.6,0,4.3-0.2,5.3-0.7c1-0.4,1.7-1.1,2.2-2c0.5-0.9,0.8-1.9,0.8-3
							c0-1.1-0.3-2.1-0.9-3c-0.6-0.9-1.4-1.5-2.5-1.9C791.4,209.4,789.6,209.2,787.1,209.2z"/>
					</g>
				</g>
			</g>
		</g>
		<g>
			<path class="st1" d="M26.5,327.5h-7.7c-3.8,0-5.7-2-5.7-6H6.4c-4.3,0-6.4-2.7-6.4-8c0-3.5,0.9-6.1,2.8-8c1.5-1.5,3.1-2.3,5-2.3
				c2.3,0,4,0.8,5.2,2.4h0.1v-2h5.7l0.1,15.7c0,1.8,0.8,2.8,2.2,2.8h5.5V327.5z M9.1,298.7H3.9v-5.6h5.2V298.7z M13.2,316.1
				l-0.1-4.5c-1-1.7-2.3-2.5-3.9-2.5c-2.5,0-3.6,1.5-3.5,4.4c0.1,1.8,1,2.7,2.6,2.7H13.2z M16.9,298.7h-5.2v-5.6h5.2V298.7z"/>
			<path class="st1" d="M55,327.5H25.4V322h23.7c-1.1-6.5-4.2-9.8-9.3-9.8c-3.3,0-5.7,0.6-7.2,1.9l-2.2-4.5c2.2-1.9,5.3-2.9,9.5-2.9
				c5.2,0,9.2,2.3,11.9,6.8C54,317.1,55,321.8,55,327.5z M43.5,335.9h-5.2v-5.6h5.2V335.9z"/>
			<path class="st1" d="M54.1,334.9c3.3-0.1,6-1.1,8.3-3.3c2.4-2.3,3.6-5.1,3.6-8.7l-0.1-15.7h5.8l0.1,15.1c0,4.8-1.3,8.7-3.9,11.9
				c-2.5,3.2-5.9,4.9-10.2,5.3C56.8,338.4,55.6,336.8,54.1,334.9z"/>
			<path class="st1" d="M109,327.5H78.2l2.7-5.4h15c-0.3-3-1.3-5.5-3.1-7.3c-1.5-1.5-2.9-2.3-4.4-2.3v-5.3c3.6,0,6.6,1.2,8.8,3.7
				c2.4,2.5,3.9,6.3,4.5,11.2h7.3V327.5z"/>
			<path class="st1" d="M137.4,327.5h-5.6c-1.6,3.4-4.5,5-8.7,5c-4,0-7-1.7-8.9-5H108v-5.4h4.8c0-6.4,3.8-10.4,9.9-10.4
				c3.2,0,5.7,1.1,7.6,3.3c1.8,2,2.7,4.4,2.7,7.1h4.4V327.5z M127.3,322.1c0-1.7-0.5-3.1-1.4-4.2c-0.8-0.9-1.8-1.4-3-1.4
				c-1.2,0-2.2,0.4-2.9,1.4c-0.8,1-1.2,2.4-1.2,4.2c0,1.8,0.5,3.2,1.4,4.2c0.8,0.9,1.8,1.4,3,1.4
				C125.6,327.7,127.3,325.7,127.3,322.1z"/>
			<path class="st1" d="M149.5,320.3c0,4.4-2.6,7.2-7.3,7.2h-5.7v-5.4h3.7c2.1,0,3.7-1.3,3.7-3.8c0-3.4-0.1-7.9-0.1-13.3
				c-0.1-6.1-0.1-10.6-0.1-13.3h5.7c0.1,2.5,0.1,7.3,0.1,14.3C149.4,312,149.5,316.7,149.5,320.3z"/>
			<path class="st1" d="M162.4,327.5h-5.7l-0.3-35.8h5.7L162.4,327.5z"/>
			<path class="st1" d="M173.4,334.9c6.8-0.1,11.8-5,11.8-12v-15.7h5.7v9.2c0.3,3,2.4,5.6,4.7,5.6h6v5.4H196c-2.1,0-3.8-1.2-5-3.4
				c-0.5,8.6-6.2,14.8-14,15.4C176.1,338.4,174.9,336.8,173.4,334.9z"/>
			<path class="st1" d="M226.1,327.5h-4.8c-1.6,0-3-0.7-4.2-2.1c-0.6-0.8-1.1-1.5-1.3-2.4c-0.9,2.7-3.7,4.4-6.7,4.5h-8.5v-5.4h6.4
				c1,0,1.9-0.3,2.8-0.9c1.1-0.7,1.7-1.7,1.7-3l-0.1-11h5.7c0,2,0.1,4.9,0.2,8.6c0,1.9,0.5,3.5,1.7,4.6c0.9,1.1,1.9,1.5,3,1.5h4.3
				v1.4v2.6V327.5z M211.7,335.9h-5.2v-5.6h5.2V335.9z M219.4,335.9h-5.2v-5.6h5.2V335.9z"/>
			<path class="st1" d="M251,327.5h-25.9v-5.4h8.8c-0.5-0.5-0.9-1.1-1.1-1.7c-0.8-1.5-1.2-3.1-1.2-4.9c-0.1-2.9,1-5.1,3-6.8
				c1.7-1.4,3.8-2.2,6.2-2.2c3.2,0,5.7,1.2,7.6,3.6l-3,4.3c-1.1-1.4-2.5-2.1-4-2.1c-2.3,0-3.9,1.7-3.9,4.2c0,3.5,2.5,5.6,6.2,5.6
				h5.5L251,327.5z M242.8,302.8h-5.2v-5.6h5.2V302.8z"/>
			<path class="st1" d="M292.9,327.5h-7.7c-3.8,0-5.7-2-5.7-6h-6.7c-4.3,0-6.4-2.7-6.4-8c0-3.5,0.9-6.1,2.8-8c1.5-1.5,3.1-2.3,5-2.3
				c2.3,0,4,0.8,5.2,2.4h0.1v-2h5.7l0.1,15.7c0,1.8,0.8,2.8,2.2,2.8h5.5V327.5z M275.4,298.7h-5.2v-5.6h5.2V298.7z M279.5,316.1
				l-0.1-4.5c-1-1.7-2.3-2.5-3.9-2.5c-2.5,0-3.6,1.5-3.5,4.4c0.1,1.8,1,2.7,2.6,2.7H279.5z M283.3,298.7h-5.2v-5.6h5.2V298.7z"/>
			<path class="st1" d="M317.4,327.5h-4.8c-1.6,0-3-0.7-4.2-2.1c-0.6-0.8-1.1-1.5-1.3-2.4c-0.9,2.7-3.7,4.4-6.7,4.5h-8.5v-5.4h6.4
				c1,0,1.9-0.3,2.8-0.9c1.1-0.7,1.7-1.7,1.7-3l-0.1-11h5.7c0,2,0.1,4.9,0.2,8.6c0,1.9,0.5,3.5,1.7,4.6c0.9,1.1,1.9,1.5,3,1.5h4.3
				v1.4v2.6V327.5z M302.9,335.9h-5.2v-5.6h5.2V335.9z M310.7,335.9h-5.2v-5.6h5.2V335.9z"/>
			<path class="st1" d="M329.3,320.3c0,4.4-2.6,7.2-7.3,7.2h-5.7v-5.4h3.7c2.1,0,3.7-1.3,3.7-3.8c0-3.4-0.1-7.9-0.1-13.3
				c-0.1-6.1-0.1-10.6-0.1-13.3h5.7c0.1,2.5,0.1,7.3,0.1,14.3C329.3,312,329.3,316.7,329.3,320.3z"/>
			<path class="st1" d="M348.8,327.5h-6.6c-1.5,0-2.8-0.6-3.8-1.6c-1.2-1.2-1.8-2.8-1.8-4.9l-0.2-29.3h5.7l0.2,26.9
				c0,2,1,3.5,2.5,3.5h4V327.5z"/>
			<path class="st1" d="M377.2,327.5h-5.6c-1.6,3.4-4.5,5-8.7,5c-4,0-7-1.7-8.9-5h-6.2v-5.4h4.8c0-6.4,3.8-10.4,9.9-10.4
				c3.2,0,5.7,1.1,7.6,3.3c1.8,2,2.7,4.4,2.7,7.1h4.4V327.5z M367.1,322.1c0-1.7-0.5-3.1-1.4-4.2c-0.8-0.9-1.8-1.4-3-1.4
				c-1.2,0-2.2,0.4-2.9,1.4c-0.8,1-1.2,2.4-1.2,4.2c0,1.8,0.5,3.2,1.4,4.2c0.8,0.9,1.8,1.4,3,1.4
				C365.3,327.7,367.1,325.7,367.1,322.1z"/>
			<path class="st1" d="M389.2,320.3c0,4.4-2.6,7.2-7.3,7.2h-5.7v-5.4h3.7c2.1,0,3.7-1.3,3.7-3.8c0-3.4-0.1-7.9-0.1-13.3
				c-0.1-6.1-0.1-10.6-0.1-13.3h5.7c0.1,2.5,0.1,7.3,0.1,14.3C389.2,312,389.2,316.7,389.2,320.3z"/>
			<path class="st1" d="M402.2,327.5h-5.7l-0.3-35.8h5.7L402.2,327.5z"/>
			<path class="st1" d="M448.5,322.4c0,5.1-1.4,9.2-4.2,12.4c-2.8,3.2-6.5,4.7-11.1,4.7c-4.5,0-8.3-1.5-11.2-4.5
				c-3.1-3.2-4.6-7.4-4.6-12.6v-7h5.7v6.5c0,3.2,1,5.9,2.9,8.1c2,2.3,4.4,3.4,7.2,3.4c4,0,7-1.9,8.7-5.8c-0.4,0-1.1,0-2.1,0.1H438
				c-2.7,0-4.9-1.1-6.6-3.1c-1.6-1.9-2.4-4.2-2.3-6.8c0.1-3.6,1.3-6.4,3.7-8.3c1.9-1.6,4.1-2.3,6.4-2.1c6.2,0.5,9.3,3.4,9.3,8.7
				V322.4z M438,302.8h-5.2v-5.6h5.2V302.8z M442.7,322.2c-0.1-4.5-0.1-7-0.1-7.4c0-0.5-0.3-1.1-0.8-1.9c-0.6-0.9-1.6-1.4-2.7-1.4
				c-2.5,0-4.2,2.2-4.3,5.9c-0.1,2.7,1.8,4.9,4.1,4.9H442.7z M445.8,302.8h-5.2v-5.6h5.2V302.8z"/>
			<path class="st1" d="M461.5,327.5h-5.7l-0.3-35.8h5.7L461.5,327.5z"/>
			<path class="st1" d="M460.6,334.9c3.3-0.1,6-1.1,8.3-3.3c2.4-2.3,3.6-5.1,3.6-8.7l-0.1-15.7h5.8l0.1,15.1c0,4.8-1.3,8.7-3.9,11.9
				c-2.5,3.2-5.9,4.9-10.2,5.3C463.4,338.4,462.2,336.8,460.6,334.9z"/>
			<path class="st1" d="M487.1,334.9c4.9,0,9.2-2.8,10.9-7.4h-3.8c-5.3,0-9-4.6-9-9.9c0-6.3,4.5-10.4,10.1-10.4
				c5.9,0,9.3,3.4,9.3,8.7v6.4c0,9.5-5.5,16.5-14,17.2C489.8,338.4,488.7,336.8,487.1,334.9z M498.9,322c-0.1-4.5-0.1-7-0.1-7.5
				c0-1.2-1.6-3.4-3.5-3.4c-2.5,0-4.4,2.3-4.4,6.1c0,2.6,1.8,4.8,4.1,4.8H498.9z"/>
			<path class="st1" d="M518.8,288.3h-9.6l1.2-2.7h2.3c-0.3-0.5-0.5-1.1-0.5-1.7c0-2.2,1.6-3.9,3.6-3.9c1.1,0,2.1,0.5,2.9,1.5
				l-1.3,2c-0.4-0.5-0.9-0.7-1.5-0.7c-0.6,0-1,0.4-1,1.3c0,1,0.7,1.5,2.1,1.5h1.8V288.3z M528.9,316.6c0,3.2-1.3,5.8-3.9,7.9
				c-2.6,2-5.9,3-10,3h-4.6v-5.4h2.4c2.5,0,4.7-0.5,6.6-1.5c2.5-1.4,3.8-3.6,3.8-6.5c0-0.2-0.1-7.6-0.3-22.4h5.8L528.9,316.6z
				 M518.3,316.3c-1.1,1.4-3.7,1.9-5.7,2.1l-0.3-26.8h5.7L518.3,316.3z"/>
			<path class="st1" d="M541.9,327.5h-5.7l-0.3-35.8h5.7L541.9,327.5z"/>
			<path class="st1" d="M586,323.9c0,4.3-1.4,8-4.2,11c-2.8,3-6.2,4.6-10.1,4.6c-3.9,0-7.3-1.5-10.1-4.6c-2.8-3-4.2-6.7-4.2-11.1
				l-0.2-11.3h5.8c0,4.3,0,8.1,0.1,11.4c0,2.6,0.9,4.9,2.5,6.7c1.7,1.9,3.7,2.8,6.2,2.8c2.4,0,4.4-0.9,6.1-2.8
				c1.7-1.9,2.6-4.2,2.6-6.8l-0.4-32.8h5.8L586,323.9z"/>
			<path class="st1" d="M594.9,334.9c4.9,0,9.2-2.8,10.9-7.4H602c-5.3,0-9-4.6-9-9.9c0-6.3,4.5-10.4,10.1-10.4
				c5.9,0,9.3,3.4,9.3,8.7v6.4c0,9.5-5.5,16.5-14,17.2C597.6,338.4,596.4,336.8,594.9,334.9z M606.7,322c-0.1-4.5-0.1-7-0.1-7.5
				c0-1.2-1.6-3.4-3.5-3.4c-2.5,0-4.4,2.3-4.4,6.1c0,2.6,1.8,4.8,4.1,4.8H606.7z"/>
			<path class="st1" d="M625.4,327.5h-5.7l-0.3-35.8h5.7L625.4,327.5z"/>
			<path class="st1" d="M662.7,327.5h-30.9l2.7-5.4h15c-0.3-3-1.3-5.5-3.1-7.3c-1.5-1.5-2.9-2.3-4.4-2.3v-5.3c3.6,0,6.6,1.2,8.8,3.7
				c2.4,2.5,3.9,6.3,4.5,11.2h7.3V327.5z"/>
			<path class="st1" d="M677.4,320.3c0,4.4-2.5,7.2-7.2,7.2h-8.5v-5.4h6.4c2.1,0,3.7-1.3,3.7-3.8c0-2.2,0-4-0.1-5.5
				c-0.1-2.3-0.1-4.2-0.1-5.5h5.7C677.3,316,677.4,320.3,677.4,320.3z M669.1,302.8H664v-5.6h5.2V302.8z M677,302.8h-5.2v-5.6h5.2
				V302.8z"/>
			<path class="st1" d="M724.4,317.1c0,6.5-3.8,10.4-9.9,10.4c-2.9,0-5.2-0.9-7-2.6c-1.7-1.6-2.8-3.7-3.1-6.1h-2.8
				c-1.3,0-2.3,0.4-2.8,1.3c-0.3,0.6-0.4,1.7-0.4,3.3l0.2,16.1H693l-0.3-19.2c-0.1-4.8,2.3-7.2,7.1-7.2h2.2h2.9
				c1.3-4.3,4.4-6.4,9.2-6.4c3.2,0,5.7,1.1,7.7,3.3C723.5,312,724.4,314.3,724.4,317.1z M718.7,317.1c0-1.7-0.5-3.2-1.4-4.2
				c-0.8-0.9-1.8-1.4-3-1.4c-1.1,0-2.1,0.4-2.9,1.4c-0.8,1.1-1.2,2.4-1.2,4.2c0,1.7,0.5,3.2,1.4,4.2c0.8,0.9,1.8,1.4,3,1.4
				C716.9,322.7,718.7,320.7,718.7,317.1z"/>
			<path class="st1" d="M743.9,327.5h-6.6c-1.5,0-2.8-0.6-3.8-1.6c-1.2-1.2-1.8-2.8-1.8-4.9l-0.2-29.3h5.7l0.2,26.9
				c0,2,1,3.5,2.5,3.5h4V327.5z"/>
			<path class="st1" d="M784.1,327.5h-41.2v-5.4h5.4l-0.2-27.4h5.6l-0.3,17.8c2.6-3.5,6-5.3,10.2-5.3c7.5,0,11.7,5,12.6,14.9h7.9
				V327.5z M770.5,322.1c0.1-6.5-2.3-9.7-7.1-9.7c-5,0-8.7,3.2-10.9,9.7H770.5z M765.5,302.8h-5.1v-5.6h5.1V302.8z"/>
			<path class="st1" d="M798.7,320.3c0,4.4-2.5,7.2-7.2,7.2H783v-5.4h6.4c2.1,0,3.7-1.3,3.7-3.8c0-2.2,0-4-0.1-5.5
				c-0.1-2.3-0.1-4.2-0.1-5.5h5.7C798.7,316,798.7,320.3,798.7,320.3z M798.2,302.8H793v-5.6h5.2V302.8z"/>
		</g>
	</g>
</g>
</svg>
