<?xml version="1.0" encoding="utf-8"?>
<!-- Generator: Adobe Illustrator 25.0.0, SVG Export Plug-In . SVG Version: 6.00 Build 0)  -->
<svg version="1.1" id="Layer_1" xmlns="http://www.w3.org/2000/svg" xmlns:xlink="http://www.w3.org/1999/xlink" x="0px" y="0px"
	 viewBox="0 0 58.9 58.9" style="enable-background:new 0 0 58.9 58.9;" xml:space="preserve">
<style type="text/css">
	.st0{fill:#FFFFFF;}
	.st1{fill:#435058;}
	.st2{fill:#C8964B;}
</style>
<g>
	<g>
		<path class="st0" d="M52.9,14.6v40.3H21.4c-4.5,0-8.1-3.6-8.1-8.1V4.4H43L52.9,14.6z"/>
		<path class="st1" d="M52.9,56.2H21.4c-5.2,0-9.5-4.3-9.5-9.5V4.4c0-0.7,0.6-1.4,1.4-1.4H43c0.4,0,0.7,0.1,1,0.4l9.9,10.2
			c0.2,0.3,0.4,0.6,0.4,0.9v40.3C54.3,55.6,53.7,56.2,52.9,56.2z M14.6,5.7v41c0,3.7,3,6.8,6.8,6.8h30.2V15.1l-9.2-9.4H14.6z"/>
	</g>
	<g>
		<path class="st1" d="M52.9,16.1H43c-0.7,0-1.4-0.6-1.4-1.4V4.4h2.7v9.1h8.6V16.1z"/>
	</g>
	<g>
		<polygon class="st2" points="50.4,13.6 44.1,7.1 43.9,13.6 		"/>
	</g>
	<path class="st2" d="M8.1,49.9H45c1.7,0,3-1.3,3-3V35.4c0-1.7-1.3-3-3-3H8.1c-1.7,0-3,1.3-3,3v11.4C5.1,48.5,6.5,49.9,8.1,49.9z"/>
	<g>
		<path class="st0" d="M11.9,35.8c0.2-0.1,2.4-0.2,3.4-0.2c3.4,0,4.5,1.6,4.5,3.6c0,3.5-2.7,4.1-3.9,4.1c-0.3,0-1.2-0.1-1.2-0.2v4.1
			h-2.8V35.8z M15.7,41.1c0.5,0,1.2-0.4,1.2-1.7c0-1.3-0.6-1.6-1.2-1.6c0,0-0.1,0-0.1,0c-0.4,0-0.8,0.1-0.9,0.1v3
			C15.1,41.1,15.5,41.1,15.7,41.1z"/>
		<path class="st0" d="M21.9,35.8c0.2-0.1,2-0.2,3.3-0.2c4,0,6.2,2.4,6.2,5.8c0,3.8-2.1,6.1-6.5,6.1c-0.4,0-2.2-0.1-3-0.2V35.8z
			 M24.7,45.2c0.2,0,0.4,0.1,0.6,0.1c0,0,0,0,0,0c2,0,3.2-1.2,3.2-3.8c0-2.5-1.4-3.7-3.2-3.7c-0.2,0-0.4,0-0.6,0.1V45.2z"/>
		<path class="st0" d="M33.4,35.8h7.8V38h-5v2.3h4.2v2.2h-4.2v4.8h-2.8V35.8z"/>
	</g>
</g>
</svg>
