<svg xmlns="http://www.w3.org/2000/svg" viewBox="0 0 20 20"><defs><style>.cls-1{fill:none;}.cls-2{fill:#fff;}.cls-3{fill:#435058;}.cls-4{fill:#c8964b;}</style></defs><title>bk-rulebook-pdf</title><g id="Layer_2" data-name="Layer 2"><g id="Layer_1-2" data-name="Layer 1"><rect class="cls-1" width="20" height="20"/><path class="cls-2" d="M16.13,6V16.69H7.81a2.14,2.14,0,0,1-2.14-2.15V3.34h7.84Z"/><path class="cls-3" d="M16.13,17H7.81A2.52,2.52,0,0,1,5.3,14.52V3.34A.38.38,0,0,1,5.67,3h7.84a.35.35,0,0,1,.27.11l2.61,2.69A.43.43,0,0,1,16.5,6V16.66A.36.36,0,0,1,16.13,17ZM6,3.68V14.52a1.8,1.8,0,0,0,1.8,1.8h8V6.17L13.36,3.68Z"/><path class="cls-3" d="M16.13,6.43H13.51a.38.38,0,0,1-.37-.37V3.34h.72V5.75h2.27Z"/><path class="cls-4" d="M15.47,5.77,13.8,4.05l-.05,1.72Z"/><path class="cls-4" d="M4.29,15.36H14a.78.78,0,0,0,.8-.79v-3a.78.78,0,0,0-.8-.79H4.29a.77.77,0,0,0-.79.79v3A.82.82,0,0,0,4.29,15.36Z"/><path class="cls-2" d="M5.3,11.64a6.22,6.22,0,0,1,.9-.05c.89,0,1.18.42,1.18.95a1,1,0,0,1-1.34,1v1.08H5.3Zm1,1.4c.13,0,.32-.11.32-.45s-.16-.42-.32-.42h0l-.23,0V13A.58.58,0,0,0,6.3,13Z"/><path class="cls-2" d="M7.94,11.64a5.11,5.11,0,0,1,.87-.05,1.47,1.47,0,0,1,1.64,1.53,1.5,1.5,0,0,1-1.72,1.61l-.79-.05Zm.74,2.48c.05,0,.1,0,.16,0,.53,0,.84-.32.84-1s-.37-1-.84-1a.41.41,0,0,0-.16,0Z"/><path class="cls-2" d="M11,11.64H13v.58H11.72v.61h1.11v.58H11.72v1.27H11Z"/></g></g></svg>