<svg xmlns="http://www.w3.org/2000/svg" viewBox="0 0 20 20"><defs><style>.cls-1{fill:none;}.cls-2{fill:#c6974b;}.cls-3{fill:#4d4d4e;}</style></defs><title>bk-rulebook-print</title><g id="Layer_2" data-name="Layer 2"><g id="Layer_1-2" data-name="Layer 1"><rect class="cls-1" width="20" height="20"/><path class="cls-2" d="M14,7.91a.38.38,0,0,1-.39.39.37.37,0,0,1-.39-.39.38.38,0,0,1,.39-.39A.38.38,0,0,1,14,7.91Z"/><path class="cls-2" d="M15.29,7.91a.38.38,0,0,1-.39.39.37.37,0,0,1-.39-.39.38.38,0,0,1,.39-.39A.38.38,0,0,1,15.29,7.91Z"/><path class="cls-3" d="M17,6.19a1.24,1.24,0,0,0-1.11-.5h-.84V2.85H4.77V5.63H3.82A1.44,1.44,0,0,0,2.6,7v5.34a1.35,1.35,0,0,0,.39.9,1.37,1.37,0,0,0,.67.33c.22.05.44.05.66.11v3.45H12.5a.69.69,0,0,0,.45-.22c.72-.73,1.45-1.5,2.22-2.23.28-.28.56-.5.45-1A2.24,2.24,0,0,0,17,13.26l.11-.12a2,2,0,0,0,.28-1.28V7.13A3.54,3.54,0,0,0,17,6.19ZM5.72,3.74h8.45V5.63H5.72Zm8.84,10.13H12.28v2.22H5.38V12h9.18Zm1.73-1.67c0,.39-.11.44-.67.39V11H4.32v1.67c-.55.11-.66.06-.66-.5V7.25c0-.51,0-.56.55-.56H15.79c.39,0,.55.17.55.56C16.29,8.91,16.29,10.53,16.29,12.2Z"/><path class="cls-2" d="M16.29,7.25c0-.39-.17-.56-.56-.56H4.16c-.45,0-.56,0-.56.56v4.84c0,.5.11.61.67.5V10.92H15.56v1.61c.56.11.67.06.67-.39C16.29,10.53,16.29,8.92,16.29,7.25ZM13.62,8.3a.37.37,0,0,1-.39-.39.38.38,0,0,1,.39-.39.38.38,0,0,1,.39.39A.38.38,0,0,1,13.62,8.3Zm1.28,0a.37.37,0,0,1-.39-.39.38.38,0,0,1,.39-.39.38.38,0,0,1,.39.39A.38.38,0,0,1,14.9,8.3Z"/><path class="cls-3" d="M15.29,7.91a.38.38,0,0,1-.39.39.37.37,0,0,1-.39-.39.38.38,0,0,1,.39-.39A.38.38,0,0,1,15.29,7.91Z"/><path class="cls-3" d="M14,7.91a.38.38,0,0,1-.39.39.37.37,0,0,1-.39-.39.38.38,0,0,1,.39-.39A.38.38,0,0,1,14,7.91Z"/></g></g></svg>