<svg xmlns="http://www.w3.org/2000/svg" viewBox="0 0 20 20"><defs><style>.cls-1{fill:none;}.cls-2{fill:#c6974b;}.cls-3{fill:#4d4d4e;}</style></defs><title>bk-rulebook-history</title><g id="Layer_2" data-name="Layer 2"><g id="Layer_1-2" data-name="Layer 1"><rect class="cls-1" width="20" height="20"/><path class="cls-2" d="M2.82,5c.05,0,.1,0,.1.1L4.46,6.6A6.6,6.6,0,0,1,9.53,3.25a6.43,6.43,0,0,1,4.41,1A6.81,6.81,0,1,1,3.79,11.82H5.12c.11,0,.16,0,.21.15A5.29,5.29,0,0,0,8.4,15a5.44,5.44,0,0,0,6.92-2.73,5.33,5.33,0,0,0-3.84-7.51A5.4,5.4,0,0,0,5.53,7.46c0,.1,0,.15.06.2L7.38,9.44c0,.05,0,.05.1.1a0,0,0,0,1-.05.05H2.77C2.82,8.07,2.82,6.49,2.82,5Z"/><path class="cls-3" d="M10.44,17.12l-.57,0a7.09,7.09,0,0,1-6.38-5.21l-.09-.38H5.12a.52.52,0,0,1,.48.32,5,5,0,0,0,2.91,2.9A5.15,5.15,0,0,0,15,12.14,5,5,0,0,0,15,7.75a5,5,0,0,0-3.56-2.68A5.11,5.11,0,0,0,5.86,7.5L7.69,9.31h0l.09.09v.13a.36.36,0,0,1-.36.36h-5V9.58c0-1.52,0-3.09,0-4.61V4.24L3,4.75a.58.58,0,0,1,.16.15L4.4,6.1A6.93,6.93,0,0,1,9.49,2.94a6.8,6.8,0,0,1,4.62,1,7.1,7.1,0,0,1-3.67,13.17Zm-6.24-5a6.48,6.48,0,0,0,5.71,4.35,6.47,6.47,0,0,0,3.87-12,6.1,6.1,0,0,0-4.21-.92A6.25,6.25,0,0,0,4.72,6.75l-.2.34L3.13,5.71c0,1.19,0,2.39,0,3.57H6.78L5.37,7.88a.44.44,0,0,1-.11-.56,5.71,5.71,0,0,1,6.29-2.85,5.65,5.65,0,0,1,4,3,5.57,5.57,0,0,1,.07,4.94A5.75,5.75,0,0,1,8.29,15.3a5.65,5.65,0,0,1-3.23-3.17Z"/><path class="cls-3" d="M10.51,7.46v2.2c0,.1,0,.2.14.2.55.33,1.53,1,2.08,1.29a.55.55,0,0,1,.19.72.51.51,0,0,1-.7.19c-.65-.38-1.85-1.15-2.55-1.58a.25.25,0,0,1-.09-.14V7.51A.48.48,0,0,1,10.09,7C10.27,7,10.51,7.17,10.51,7.46Z"/></g></g></svg>