<svg xmlns="http://www.w3.org/2000/svg" viewBox="0 0 58.9 58.9"><title>bk-xls-icon</title><g id="a268f950-04a7-4117-97ac-55eb6f1730a4" data-name="Layer 2"><g id="a5633438-ab6c-4cc9-8d5d-bfc6ae107cee" data-name="Layer 1"><rect width="58.9" height="58.9" style="fill:none"/><path d="M52.9,14.6V54.9H21.4a8.07,8.07,0,0,1-8.1-8.1V4.4H43Z" style="fill:#fff"/><path d="M52.9,56.2H21.4a9.56,9.56,0,0,1-9.5-9.5V4.4A1.43,1.43,0,0,1,13.3,3H43a1.28,1.28,0,0,1,1,.4l9.9,10.2a1.8,1.8,0,0,1,.4.9V54.8A1.37,1.37,0,0,1,52.9,56.2ZM14.6,5.7v41a6.81,6.81,0,0,0,6.8,6.8H51.6V15.1L42.4,5.7Z" style="fill:#435058"/><path d="M52.9,16.1H43a1.43,1.43,0,0,1-1.4-1.4V4.4h2.7v9.1h8.6Z" style="fill:#435058"/><polygon points="50.4 13.6 44.1 7.1 43.9 13.6 50.4 13.6" style="fill:#178f3c"/><path d="M8.1,49.9H45a3,3,0,0,0,3-3V35.4a3,3,0,0,0-3-3H8.1a3,3,0,0,0-3,3V46.8A3.1,3.1,0,0,0,8.1,49.9Z" style="fill:#178f3c"/><path d="M18.33,39.21l1.84-3.73h3.09L20.12,41l3.23,5.66H20.22l-1.89-3.8-1.88,3.8H13.33L16.55,41l-3.14-5.56H16.5Z" style="fill:#fff"/><path d="M26.93,44.62h4.71V46.7H24.22V35.48h2.71Z" style="fill:#fff"/><path d="M38.57,43.72a1.11,1.11,0,0,0-.42-.93,5.09,5.09,0,0,0-1.47-.68A14.74,14.74,0,0,1,35,41.42a3.26,3.26,0,0,1-2.18-2.94,2.64,2.64,0,0,1,.54-1.65,3.45,3.45,0,0,1,1.54-1.11,5.87,5.87,0,0,1,2.23-.4,5.4,5.4,0,0,1,2.18.43A3.49,3.49,0,0,1,40.75,37a3.27,3.27,0,0,1,.53,1.83h-2.7a1.38,1.38,0,0,0-.42-1.07A1.65,1.65,0,0,0,37,37.37a1.86,1.86,0,0,0-1.14.31,1,1,0,0,0-.42.82,1,1,0,0,0,.46.78,5.94,5.94,0,0,0,1.63.73,9.46,9.46,0,0,1,1.91.8,3.22,3.22,0,0,1,1.82,2.89A2.76,2.76,0,0,1,40.17,46a5,5,0,0,1-3.05.84,6.15,6.15,0,0,1-2.47-.49A3.76,3.76,0,0,1,33,45a3.47,3.47,0,0,1-.56-2h2.71a1.72,1.72,0,0,0,.47,1.33,2.16,2.16,0,0,0,1.51.43,1.76,1.76,0,0,0,1.06-.29A.94.94,0,0,0,38.57,43.72Z" style="fill:#fff"/></g></g></svg>