<svg id="Layer_1" data-name="Layer 1" xmlns="http://www.w3.org/2000/svg" viewBox="0 0 58.86 58.86"><defs><style>.cls-1{fill:#435058;}</style></defs><path class="cls-1" d="M55.49,52.1H5.7V4.26a2.5,2.5,0,0,0-5,0V57.1H55.49a2.5,2.5,0,0,0,0-5Z"/><path class="cls-1" d="M41.53,50.11a1.9,1.9,0,0,1-1.89-1.9V43.6a1.9,1.9,0,0,1,1.89-1.9h2.21a1.9,1.9,0,0,1,1.89,1.9v4.61a1.9,1.9,0,0,1-1.89,1.9Z"/><path class="cls-1" d="M31.46,49.79a1.89,1.89,0,0,1-1.89-1.9V38.82a1.89,1.89,0,0,1,1.89-1.9h2.21a1.9,1.9,0,0,1,1.89,1.9v9.07a1.9,1.9,0,0,1-1.89,1.9Z"/><path class="cls-1" d="M58.14,40.05h0l0-.21h0l-.66-6a1.53,1.53,0,0,0-.11-.48,1.89,1.89,0,0,0-2-1.2l-2.24.23a1.88,1.88,0,0,0-.48.12,1.92,1.92,0,0,0-.8.58,1.89,1.89,0,0,0-.41,1.11C45.74,29.59,13,2.78,13,2.78a1.88,1.88,0,0,0-1.4-.41,2,2,0,0,0-.48.11,1.86,1.86,0,0,0-.8.59L8.9,4.83A1.88,1.88,0,0,0,8.61,6.7a1.85,1.85,0,0,0,.57.79S42.06,34.39,47.77,39a1.8,1.8,0,0,0-.4.1,1.91,1.91,0,0,0-1.2,2l.25,2.25a1.53,1.53,0,0,0,.11.48,1.92,1.92,0,0,0,2,1.21l5.94-.63h0l.22,0h0a4.09,4.09,0,0,0,1-.24A4,4,0,0,0,58.14,40.05Zm-1.89.21a2,2,0,0,1-1.8,2.25l-.21,0-5.94.63-.24-2.26,4.45-.46L10.38,6l1.4-1.76,42,34.32-.47-4.28,2.24-.23.65,6Z"/><path class="cls-1" d="M21.43,49.79a1.89,1.89,0,0,1-1.89-1.9v-19A1.89,1.89,0,0,1,21.43,27h2.21a1.9,1.9,0,0,1,1.89,1.9v19a1.9,1.9,0,0,1-1.89,1.9Z"/><path class="cls-1" d="M11.13,49.79a1.9,1.9,0,0,1-1.89-1.9V19.52a1.89,1.89,0,0,1,1.89-1.89h2.21a1.89,1.89,0,0,1,1.89,1.89V47.89a1.89,1.89,0,0,1-1.89,1.9Z"/></svg>