<svg id="Layer_1" data-name="Layer 1" xmlns="http://www.w3.org/2000/svg" viewBox="0 0 58.86 58.86"><defs><style>.cls-1{fill:#435058;}</style></defs><path class="cls-1" d="M31.56,5.6A13.43,13.43,0,1,0,45,19,13.42,13.42,0,0,0,31.56,5.6ZM40.64,15,27.78,27.81l-5.3-5.3a1.19,1.19,0,0,1,0-1.69l1.32-1.33a1.19,1.19,0,0,1,1.69,0l2.29,2.29,9.84-9.85a1.21,1.21,0,0,1,1.69,0l1.33,1.33A1.21,1.21,0,0,1,40.64,15Z"/><path class="cls-1" d="M52.44,33.21a4,4,0,0,0-5.73.06L40.14,40S29.21,34.31,24,33.75a15.53,15.53,0,0,0-9.89,2.4L1.84,44.52l1,1.26c3,3.83,7.49,9.64,7.72,10l.38.55.65.11.29,0c.63,0,1.6-.58,7.41-5.22,3.67,1.14,14.6,4.5,16.14,4.72a6.82,6.82,0,0,0,4.44-1.28L53.11,39.17l.13-.17A4.48,4.48,0,0,0,52.44,33.21Zm-1.7,4.12L38,52.3a3.71,3.71,0,0,1-2.13.65c-1.1-.15-10.66-3.06-16.43-4.85l-.76-.24-.62.5c-2.15,1.72-4.55,3.59-5.87,4.55-1.26-1.64-3.68-4.75-6-7.71l9.6-6.59a12.59,12.59,0,0,1,7.86-1.88c4.25.46,13.25,4.61,15.17,5.51,1.34.73.51,3.44-1.79,2.58-1.35-.51-6-2.29-8.66-3.18a1.5,1.5,0,0,0-1.91,1l0,.07a1.49,1.49,0,0,0,.92,1.83L36,47.66h.05l.07,0c1.12.39,3.56.76,5.53-2.46a5,5,0,0,0,.67-3.16l6.11-6.73a1.39,1.39,0,0,1,2,.09A1.46,1.46,0,0,1,50.74,37.33Z"/></svg>