<svg id="Layer_1" data-name="Layer 1" xmlns="http://www.w3.org/2000/svg" viewBox="0 0 58.86 58.86"><defs><style>.cls-1{fill:#435058;}</style></defs><path class="cls-1" d="M58.08,55a2.5,2.5,0,0,1-2.5,2.5H.78V4.68a2.5,2.5,0,0,1,5,0V52.52h49.8A2.5,2.5,0,0,1,58.08,55Zm-39.2-4.65a2.89,2.89,0,0,0,2.88-2.89V33.64a2.88,2.88,0,0,0-2.88-2.89H15.51a2.88,2.88,0,0,0-2.88,2.89V47.48a2.89,2.89,0,0,0,2.88,2.89Zm15.29,0a2.89,2.89,0,0,0,2.88-2.89V18.56a2.89,2.89,0,0,0-2.88-2.89H30.8a2.89,2.89,0,0,0-2.88,2.89V47.48a2.89,2.89,0,0,0,2.88,2.89Zm15.7,0a2.89,2.89,0,0,0,2.88-2.89V4.23a2.88,2.88,0,0,0-2.88-2.89H46.5a2.88,2.88,0,0,0-2.88,2.89V47.48a2.89,2.89,0,0,0,2.88,2.89Z"/></svg>