<svg id="Layer_1" data-name="Layer 1" xmlns="http://www.w3.org/2000/svg" viewBox="0 0 58.86 58.86"><defs><style>.cls-1{fill:#435058;}</style></defs><path class="cls-1" d="M29.43,2.26A27.05,27.05,0,1,0,56.48,29.31,27,27,0,0,0,29.43,2.26Zm23,26.07-22.52.74L46,13.34A23,23,0,0,1,52.45,28.33Zm-23,24a23,23,0,0,1-1-46.07l-.53,23.79s0,0,0,0a0,0,0,0,1,0,0,.71.71,0,0,0,0,.17,1.05,1.05,0,0,0,.05.19.5.5,0,0,0,.11.17.67.67,0,0,0,.09.14,1,1,0,0,0,.18.13,1.1,1.1,0,0,0,.14.09.86.86,0,0,0,.23.05.7.7,0,0,0,.14,0h0l23.55-.77A23.08,23.08,0,0,1,29.43,52.36Z"/></svg>