<svg id="Layer_1" data-name="Layer 1" xmlns="http://www.w3.org/2000/svg" viewBox="0 0 58.86 58.86"><defs><style>.cls-1{fill:#435058;}</style></defs><path class="cls-1" d="M55.49,52.1H5.7V4.26a2.5,2.5,0,0,0-5,0V57.1H55.49a2.5,2.5,0,0,0,0-5Z"/><path class="cls-1" d="M20.37,50.27a1.89,1.89,0,0,0,1.89-1.9V43.76a1.89,1.89,0,0,0-1.89-1.9H18.16a1.9,1.9,0,0,0-1.89,1.9v4.61a1.9,1.9,0,0,0,1.89,1.9Z"/><path class="cls-1" d="M30.45,50a1.9,1.9,0,0,0,1.89-1.9V39a1.9,1.9,0,0,0-1.89-1.9H28.24A1.89,1.89,0,0,0,26.35,39v9.07A1.89,1.89,0,0,0,28.24,50Z"/><path class="cls-1" d="M55.65,3.26a3.34,3.34,0,0,0-1-.24h0l-.22,0h0L48.5,2.37a1.91,1.91,0,0,0-2,1.2,1.53,1.53,0,0,0-.11.48l-.25,2.26a1.89,1.89,0,0,0,.41,1.39,1.93,1.93,0,0,0,1.19.69C42.06,13,9.18,39.92,9.18,39.92a1.91,1.91,0,0,0-.28,2.67l1.4,1.76a1.92,1.92,0,0,0,.8.58,2,2,0,0,0,.48.12,1.93,1.93,0,0,0,1.4-.42s32.76-26.8,38.47-31.44a1.9,1.9,0,0,0,.41,1.12,1.92,1.92,0,0,0,.8.58,1.53,1.53,0,0,0,.48.11l2.24.24a1.9,1.9,0,0,0,2-1.2,1.66,1.66,0,0,0,.11-.49l.66-6h0l0-.21h0A3.94,3.94,0,0,0,55.65,3.26Zm.58,4.11-.65,6-2.24-.24.47-4.28-42,34.33-1.4-1.76L52.51,7l-4.45-.47.24-2.25,5.94.62.21,0a2,2,0,0,1,1.8,2.26Z"/><path class="cls-1" d="M40.48,50a1.89,1.89,0,0,0,1.88-1.9v-19a1.89,1.89,0,0,0-1.88-1.9H38.26a1.9,1.9,0,0,0-1.89,1.9v19A1.9,1.9,0,0,0,38.26,50Z"/><path class="cls-1" d="M50.77,50a1.89,1.89,0,0,0,1.89-1.9V19.69a1.89,1.89,0,0,0-1.89-1.9H48.56a1.9,1.9,0,0,0-1.89,1.9V48.05A1.9,1.9,0,0,0,48.56,50Z"/></svg>