<svg xmlns="http://www.w3.org/2000/svg" viewBox="0 0 1740.99 32.41"><defs><style>.cls-1{fill:#3685c2;}.cls-2,.cls-27{font-size:12px;}.cls-13,.cls-14,.cls-15,.cls-2,.cls-21,.cls-22,.cls-27,.cls-28,.cls-32,.cls-34{fill:#fff;}.cls-13,.cls-14,.cls-15,.cls-2,.cls-20,.cls-21,.cls-22,.cls-27,.cls-28,.cls-32,.cls-34{font-family:Tajawal-Medium, Tajawal;font-weight:500;}.cls-3{letter-spacing:0.02em;}.cls-4{letter-spacing:0em;}.cls-5{letter-spacing:0.01em;}.cls-11,.cls-32,.cls-6{letter-spacing:0.02em;}.cls-14,.cls-7{letter-spacing:0.01em;}.cls-8{letter-spacing:-0.01em;}.cls-9{letter-spacing:0.03em;}.cls-10{letter-spacing:0em;}.cls-11,.cls-30{font-size:10px;fill:#c7954a;font-family:Tajawal-Bold, Tajawal;font-weight:700;}.cls-12{letter-spacing:-0.03em;}.cls-15{letter-spacing:0.02em;}.cls-16{fill:none;stroke:#fff;stroke-miterlimit:10;opacity:0.1;}.cls-17{letter-spacing:0.01em;}.cls-18{letter-spacing:0.02em;}.cls-19{letter-spacing:-0.01em;}.cls-21{letter-spacing:0.01em;}.cls-22{letter-spacing:0.02em;}.cls-23{letter-spacing:0.01em;}.cls-24{letter-spacing:0.02em;}.cls-25{letter-spacing:0em;}.cls-26{letter-spacing:-0.01em;}.cls-28,.cls-33{letter-spacing:0.02em;}.cls-29{letter-spacing:0em;}.cls-31{letter-spacing:0em;}.cls-34{letter-spacing:0.01em;}</style></defs><title>dummy-ticker</title><g id="Layer_2" data-name="Layer 2"><g id="Layer_2-2" data-name="Layer 2"><path class="cls-1" d="M861,29.11c-.22-.17-.52-.62-.83-.62a1.1,1.1,0,0,0-1.11,1.25c0,.25.57.66.91.7C860.75,30.54,861.07,30.05,861,29.11Z"/><text class="cls-2" transform="translate(16.5 11.91)"><tspan class="cls-3">Sha</tspan><tspan class="cls-4" x="19.55" y="0">r</tspan><tspan class="cls-3" x="24.37" y="0">es in Bou</tspan><tspan class="cls-5" x="72.32" y="0">r</tspan><tspan class="cls-6" x="77.27" y="0">sa </tspan><tspan x="91.83" y="0">K</tspan><tspan class="cls-3" x="98.43" y="0">u</tspan><tspan class="cls-7" x="105.08" y="0">w</tspan><tspan class="cls-6" x="113.6" y="0">ait </tspan><tspan class="cls-8" x="130.88" y="0">r</tspan><tspan class="cls-6" x="135.71" y="0">oc</tspan><tspan class="cls-4" x="148.41" y="0">k</tspan><tspan class="cls-3" x="153.83" y="0">et sk</tspan><tspan class="cls-9" x="179.18" y="0">y</tspan><tspan class="cls-7" x="185.19" y="0">w</tspan><tspan class="cls-3" x="193.71" y="0">a</tspan><tspan class="cls-10" x="199.89" y="0">r</tspan><tspan class="cls-6" x="204.78" y="0">ds on t</tspan><tspan class="cls-10" x="241.38" y="0">r</tspan><tspan class="cls-6" x="246.26" y="0">ading debut</tspan><tspan class="cls-11"><tspan x="0" y="16">BOUR</tspan><tspan class="cls-7" x="24.62" y="16">S</tspan><tspan x="30.08" y="16">A KU</tspan><tspan class="cls-12" x="51.58" y="16">W</tspan><tspan x="59.31" y="16" xml:space="preserve">AIT  </tspan><tspan class="cls-13" x="79.28" y="16">4 </tspan><tspan class="cls-14" x="87.56" y="16">w</tspan><tspan class="cls-15" x="94.66" y="16">eeks ago</tspan></tspan></text><line class="cls-16" x1="600.59" x2="600.59" y2="32.09"/><line class="cls-16" x1="348.6" x2="348.6" y2="32.09"/><line class="cls-16" x1="0.5" x2="0.5" y2="32.09"/><text class="cls-2" transform="translate(364.6 11.91)">K<tspan class="cls-6" x="6.6" y="0">u</tspan><tspan class="cls-17" x="13.25" y="0">w</tspan><tspan class="cls-18" x="21.77" y="0">ait s</tspan><tspan class="cls-7" x="44.4" y="0">t</tspan><tspan class="cls-6" x="49.15" y="0">ocks d</tspan><tspan class="cls-19" x="82.79" y="0">r</tspan><tspan class="cls-6" x="87.61" y="0">op with emir in hospital</tspan><tspan class="cls-11"><tspan x="0" y="16">KU</tspan><tspan class="cls-12" x="12.84" y="16">W</tspan><tspan x="20.57" y="16">AIT BOURSE</tspan><tspan class="cls-20" x="73.38" y="16" xml:space="preserve">  </tspan><tspan class="cls-13" x="78.44" y="16">2 mo</tspan><tspan class="cls-21" x="100.28" y="16">n</tspan><tspan class="cls-22" x="105.83" y="16">ths ago</tspan></tspan></text><text class="cls-2" transform="translate(616.59 11.91)"><tspan class="cls-6">Video: M</tspan><tspan class="cls-23" x="46.14" y="0">S</tspan><tspan class="cls-24" x="52.55" y="0">CI delays </tspan><tspan x="102.96" y="0">K</tspan><tspan class="cls-6" x="109.56" y="0">u</tspan><tspan class="cls-17" x="116.21" y="0">w</tspan><tspan class="cls-18" x="124.73" y="0">ait&apos;s eme</tspan><tspan x="173.29" y="0">r</tspan><tspan class="cls-6" x="178.17" y="0">ging mar</tspan><tspan class="cls-4" x="226.62" y="0">k</tspan><tspan class="cls-6" x="232.03" y="0">et upg</tspan><tspan x="266.62" y="0">r</tspan><tspan class="cls-18" x="271.51" y="0">ade due </tspan><tspan class="cls-7" x="316.83" y="0">t</tspan><tspan class="cls-6" x="321.58" y="0">o </tspan><tspan class="cls-4" x="331.32" y="0">C</tspan><tspan class="cls-25" x="338.07" y="0">o</tspan><tspan class="cls-6" x="344.59" y="0">vid</tspan><tspan class="cls-26" x="360.33" y="0">-</tspan><tspan class="cls-6" x="363.63" y="0">19 pandemic</tspan><tspan class="cls-11"><tspan x="0" y="16">EMERGING MARKET</tspan><tspan class="cls-27" x="86.61" y="16" xml:space="preserve">  </tspan><tspan class="cls-28" x="92.68" y="16">5 mo</tspan><tspan class="cls-21" x="114.75" y="16">n</tspan><tspan class="cls-13" x="120.3" y="16">ths ago</tspan></tspan></text><line class="cls-16" x1="1067.4" x2="1067.4" y2="32.09"/><text class="cls-2" transform="translate(1083.4 11.91)">K<tspan class="cls-6" x="6.6" y="0">u</tspan><tspan class="cls-17" x="13.25" y="0">w</tspan><tspan class="cls-18" x="21.77" y="0">ait s</tspan><tspan class="cls-7" x="44.4" y="0">t</tspan><tspan class="cls-6" x="49.15" y="0">ock exchange delays t</tspan><tspan class="cls-29" x="166.26" y="0">r</tspan><tspan class="cls-6" x="171.14" y="0">ading debut on co</tspan><tspan class="cls-4" x="267.8" y="0">r</tspan><tspan class="cls-6" x="272.62" y="0">onavi</tspan><tspan class="cls-23" x="301.2" y="0">r</tspan><tspan class="cls-24" x="306.14" y="0">us</tspan><tspan class="cls-30"><tspan class="cls-6" x="0" y="16">KU</tspan><tspan class="cls-12" x="12.84" y="16">W</tspan><tspan class="cls-6" x="20.57" y="16">AIT </tspan><tspan class="cls-31" x="37.94" y="16">S</tspan><tspan x="43.35" y="16">T</tspan><tspan class="cls-6" x="48.77" y="16">OCK E</tspan><tspan class="cls-31" x="75.45" y="16">X</tspan><tspan class="cls-6" x="81.59" y="16" xml:space="preserve">CHANGE  </tspan><tspan class="cls-28" x="124.47" y="16">5 mo</tspan><tspan class="cls-21" x="146.54" y="16">n</tspan><tspan class="cls-32" x="152.09" y="16">ths ago</tspan></tspan></text><line class="cls-16" x1="1421.58" x2="1421.58" y2="32.09"/><text class="cls-2" transform="translate(1437.58 11.91)">K<tspan class="cls-6" x="6.6" y="0">u</tspan><tspan class="cls-17" x="13.25" y="0">w</tspan><tspan class="cls-18" x="21.77" y="0">ait leads d</tspan><tspan class="cls-4" x="76.8" y="0">r</tspan><tspan class="cls-24" x="81.62" y="0">op in Middle East s</tspan><tspan class="cls-7" x="181.79" y="0">t</tspan><tspan class="cls-24" x="186.54" y="0">ocks af</tspan><tspan class="cls-7" x="224.07" y="0">t</tspan><tspan class="cls-6" x="228.82" y="0">er downg</tspan><tspan x="279.14" y="0">r</tspan><tspan class="cls-6" x="284.02" y="0">ade</tspan><tspan class="cls-30"><tspan class="cls-6" x="0" y="16">MIDDLE EA</tspan><tspan class="cls-31" x="48.69" y="16">S</tspan><tspan class="cls-6" x="54.1" y="16">TERN </tspan><tspan class="cls-31" x="80.41" y="16">S</tspan><tspan x="85.82" y="16">T</tspan><tspan class="cls-33" x="91.24" y="16" xml:space="preserve">OCK MARKETS  </tspan><tspan class="cls-28" x="160.54" y="16">5 mo</tspan><tspan class="cls-34" x="182.61" y="16">n</tspan><tspan class="cls-28" x="188.16" y="16">ths ago</tspan></tspan></text></g></g></svg>