<svg xmlns="http://www.w3.org/2000/svg" viewBox="0 0 16 16"><defs><style>.cls-1{opacity:0.2;isolation:isolate;}.cls-2{fill:#b3b3b3;}.cls-3{fill:#999;}.cls-4{fill:none;}</style></defs><title>market-top-losers</title><g id="Layer_2" data-name="Layer 2"><g id="Layer_1-2" data-name="Layer 1"><g id="Group_146" data-name="Group 146"><g id="Group_39" data-name="Group 39"><g id="Path_20" data-name="Path 20" class="cls-1"><rect class="cls-2" x="1.07" y="6.79" width="3.09" height="8.72"/><rect class="cls-2" x="4.66" y="11.09" width="3.08" height="4.42"/></g><g id="Path_21" data-name="Path 21" class="cls-1"><rect class="cls-2" x="8.26" y="9.38" width="3.08" height="6.13"/><rect class="cls-2" x="11.84" y="13.7" width="3.09" height="1.81"/></g><g id="Group_38" data-name="Group 38"><g id="Path_22" data-name="Path 22"><polygon class="cls-3" points="15.36 9.65 15 9.99 9.37 4.36 7.02 6.71 0.65 0.35 1 0 7.02 6.01 9.37 3.66 15.36 9.65"/></g><g id="Rectangle_21" data-name="Rectangle 21"><path class="cls-3" d="M15.43,10.06V6.24h-.5v3l.43.43L15,10l-.42-.42H11.84V8.89H7.77V10.6H4.66V6.3H.57V16H15.43V13.2H11.84V10.06ZM4.16,15.51H1.07V6.79H4.16Zm3.58,0H4.66V11.09H7.74Zm3.61,0H8.26V9.38h3.09Zm3.58-1.81v1.81H11.84V13.7Z"/></g><g id="Path_23" data-name="Path 23"><polygon class="cls-3" points="15.36 9.65 15 9.99 14.58 9.57 14.93 9.57 14.93 9.22 15.36 9.65"/></g></g></g></g><rect class="cls-4" width="16" height="16"/></g></g></svg>