<svg xmlns="http://www.w3.org/2000/svg" viewBox="0 0 16 16"><defs><style>.cls-1{fill:#999;}.cls-2{fill:#f0f0f0;}.cls-3{opacity:0.2;}.cls-4{fill:#b3b3b3;}.cls-5{fill:none;}</style></defs><title>market-top-values</title><g id="Layer_2" data-name="Layer 2"><g id="Layer_1-2" data-name="Layer 1"><g id="Group_148" data-name="Group 148"><g id="Group_46" data-name="Group 46"><g id="Group_41" data-name="Group 41"><g id="Path_25" data-name="Path 25"><path class="cls-1" d="M9.74.93c-2.74,0-4.88,1-4.88,2.28a1.55,1.55,0,0,0,.43.94,1.64,1.64,0,0,0,.25.21l.15.1.22.13.31.16a2.83,2.83,0,0,0,.36.16L6.92,5a5.87,5.87,0,0,0,1.55.33,9.55,9.55,0,0,0,1.2.07c.4,0,.82,0,1.34-.07a5.79,5.79,0,0,0,1.09-.19l.25-.07.18-.06.37-.14.35-.16.31-.16.22-.13.15-.1a1.33,1.33,0,0,0,.26-.21,1.52,1.52,0,0,0,.43-.94v0C14.62,1.92,12.47.93,9.74.93ZM11,4.87a11.37,11.37,0,0,1-1.22.07,10,10,0,0,1-1.22-.07,5.53,5.53,0,0,1-2.7-.93l0,0a1,1,0,0,1-.42-.72c0-.85,1.76-1.76,4.38-1.76s4.36.9,4.38,1.75a1,1,0,0,1-.46.76A5.53,5.53,0,0,1,11,4.87Z"/></g><g id="Path_26" data-name="Path 26"><path class="cls-1" d="M14.19,4.15a1.64,1.64,0,0,0-.25-.21l-.14-.09-.14.09a5.53,5.53,0,0,1-2.7.93,11.37,11.37,0,0,1-1.22.07,10,10,0,0,1-1.22-.07,5.53,5.53,0,0,1-2.7-.93l0,0-.1-.06-.14.09a1.27,1.27,0,0,0-.25.21,1.64,1.64,0,0,0,.25.21l.15.1.22.13.31.16a2.83,2.83,0,0,0,.36.16L6.92,5a5.87,5.87,0,0,0,1.55.33,9.55,9.55,0,0,0,1.2.07c.4,0,.82,0,1.34-.07a5.79,5.79,0,0,0,1.09-.19l.25-.07.18-.06.37-.14.35-.16.31-.16.22-.13a1,1,0,0,1,.34.66,1,1,0,0,1-.46.75l.14-.09.13.09a1.33,1.33,0,0,1,.26.21,1.52,1.52,0,0,0,.43-.94v0A1.6,1.6,0,0,0,14.19,4.15Z"/></g><g id="Path_27" data-name="Path 27"><path class="cls-1" d="M14.19,6.08a1.33,1.33,0,0,1-.26.21l-.33.2.18-.1a1,1,0,0,1,.34.65,1.06,1.06,0,0,1-.46.76l.14-.09.13.09a1.33,1.33,0,0,1,.26.21,1.6,1.6,0,0,0,.43-1V7A1.52,1.52,0,0,0,14.19,6.08Z"/></g><g id="Path_28" data-name="Path 28"><path class="cls-1" d="M14.19,8a1.64,1.64,0,0,1-.25.21l-.16.1a1,1,0,0,1,.34.65,1.09,1.09,0,0,1-.4.72h.15l.07,0a1.64,1.64,0,0,1,.25.21A1.6,1.6,0,0,0,14.62,9V9A1.52,1.52,0,0,0,14.19,8Z"/></g><g id="Path_29" data-name="Path 29"><path class="cls-1" d="M14.19,9.94a1.59,1.59,0,0,1-.24.2l-.08,0-.08.05a1,1,0,0,1,.33.66,1.06,1.06,0,0,1-.42.74l.1,0h.07l.08,0a1.21,1.21,0,0,1,.24.21,1.6,1.6,0,0,0,.43-.95v0A1.47,1.47,0,0,0,14.19,9.94Z"/><path class="cls-1" d="M14.19,11.87a1.21,1.21,0,0,0-.24-.21l-.08,0H13.8l-.1,0h0l-.53.27c-.12.05-.25.11-.38.15a7.19,7.19,0,0,1-1.11.36,5,5,0,0,1-.56.11,1.46,1.46,0,0,0-.37-.68,1.42,1.42,0,0,0,.37-.72l.39,0,.3-.06.12,0a5.12,5.12,0,0,0,.56-.15l.21-.07a6.37,6.37,0,0,0,1.11-.55l.08-.05.08,0a1.59,1.59,0,0,0,.24-.2,1.64,1.64,0,0,0-.25-.21l-.07,0h-.15l-.06,0a5.56,5.56,0,0,1-2.56.91,1.49,1.49,0,0,0-.38-.71,1.37,1.37,0,0,0,.38-.71,5.73,5.73,0,0,0,1-.18,6.28,6.28,0,0,0,1.66-.72l.16-.1A1.64,1.64,0,0,0,14.19,8a1.33,1.33,0,0,0-.26-.21l-.13-.09-.14.09a5.83,5.83,0,0,1-2.53.92A2.23,2.23,0,0,0,9.75,7.37c.35,0,.72,0,1.16-.06H11l.39,0a5.63,5.63,0,0,0,.69-.14l.07,0A2.65,2.65,0,0,0,12.55,7a5.38,5.38,0,0,0,.51-.2l.06,0,.24-.12.24-.13.33-.2a1.33,1.33,0,0,0,.26-.21,1.33,1.33,0,0,0-.26-.21l-.13-.09-.14.09a5.58,5.58,0,0,1-2.61.92l-.12,0-.06.06c-.43,0-.79.06-1.13.06a11.07,11.07,0,0,1-1.15-.06l-.12-.09-.08.07-.34,0c-.23,0-.45-.09-.68-.15L7,6.46a4.12,4.12,0,0,1-.77-.36,2.85,2.85,0,0,1-.37-.23l0,0h0a1,1,0,0,1-.4-.69,1,1,0,0,1,.33-.68l-.15-.1a1.64,1.64,0,0,1-.25-.21,1.58,1.58,0,0,0-.43,1,1.56,1.56,0,0,0,.42.94,1.55,1.55,0,0,0-.37.72C2.86,7.06,1.39,7.92,1.39,9a1.55,1.55,0,0,0,.43.94,1.63,1.63,0,0,0-.43,1,1.56,1.56,0,0,0,.42.94,1.6,1.6,0,0,0-.42,1A1.57,1.57,0,0,0,2.07,14,6.09,6.09,0,0,0,5,15H5c.41,0,.83.07,1.24.07s.69,0,1.09-.05l.21,0A2.54,2.54,0,0,0,8,14.94a10.17,10.17,0,0,0,1.7.14c2.73,0,4.88-1,4.88-2.25v0A1.49,1.49,0,0,0,14.19,11.87ZM5.69,6.39l.22.13.31.16,0,0a7.56,7.56,0,0,0-.83,0A.9.9,0,0,1,5.69,6.39Zm-.78.91.49,0a8.19,8.19,0,0,1,.87,0c2.41,0,4.09.76,4.34,1.55a.48.48,0,0,1,0,.2,1.09,1.09,0,0,1-.08.31,1,1,0,0,1-.38.45,5.47,5.47,0,0,1-2.2.87,4.1,4.1,0,0,1-.49.06,7.54,7.54,0,0,1-.9.06H6.27a6.26,6.26,0,0,1-.86,0l-.36,0-.15,0a5.45,5.45,0,0,1-2.55-.91A1,1,0,0,1,1.89,9C1.89,8.28,3.06,7.54,4.91,7.3ZM2.23,10.24a4.87,4.87,0,0,0,.88.45l.37.14a5.37,5.37,0,0,0,1.43.31H5l.43,0,.77,0a13.24,13.24,0,0,0,1.34-.07L8,11.1H8L8.32,11a3.83,3.83,0,0,0,.58-.16l.17-.05.3-.11h0l.06,0,.35-.16.31-.16.22-.13a.93.93,0,0,1,.28.45.8.8,0,0,1,.05.21,1,1,0,0,1-.08.29,1,1,0,0,1-.38.46l-.46.28a5.61,5.61,0,0,1-1.17.47l-.4.09H8.11l-.53.07-.11,0-.06.06c-.23,0-.45,0-.65,0h0a4,4,0,0,1-.48,0,5.24,5.24,0,0,1-.56,0l-.3,0-.27,0H4.9a5.4,5.4,0,0,1-2.55-.92,1,1,0,0,1-.46-.73A1,1,0,0,1,2.23,10.24Zm5.36,4.27-.12,0-.06.06c-.28,0-.54,0-.78.05H6.27a10.51,10.51,0,0,1-1.12-.06l-.24,0a5.46,5.46,0,0,1-2.56-.92,1,1,0,0,1-.46-.74,1,1,0,0,1,.33-.67l.22.13.31.16.35.16.37.14a2.35,2.35,0,0,0,.35.11l.35.09.15,0,.3,0,.26,0H5l.38,0a6.79,6.79,0,0,0,.78,0,11,11,0,0,0,1.23-.06h.13L8.08,13h0l.54-.12.06,0q.31-.09.63-.21h0l.15-.07.26-.12a3.9,3.9,0,0,0,.35-.19l.18-.1a.93.93,0,0,1,.28.44.8.8,0,0,1,.05.21,1,1,0,0,1-.08.3h0a1,1,0,0,1-.38.45,5.61,5.61,0,0,1-2.14.86Zm2.15.07H9.39A5.58,5.58,0,0,0,10.47,14a1.54,1.54,0,0,0,.64-.94h0l.17,0a9.05,9.05,0,0,0,1.52-.43l.3-.12.37-.17.3-.14a1.06,1.06,0,0,1,.34.67C14.1,13.68,12.35,14.58,9.74,14.58Z"/></g><g id="Path_30" data-name="Path 30"><path class="cls-1" d="M10.49,13.13h0Zm0,0h0Z"/></g></g><g id="Group_45" data-name="Group 45"><g id="Group_43" data-name="Group 43"><g id="Group_42" data-name="Group 42"><g id="Path_33" data-name="Path 33"><path class="cls-2" d="M10.49,13.13h0Z"/></g></g></g><g id="Group_44" data-name="Group 44"><g id="Path_34" data-name="Path 34" class="cls-3"><path class="cls-4" d="M10.65,9a1.09,1.09,0,0,1-.08.31,1,1,0,0,1-.38.45,5.47,5.47,0,0,1-2.2.87,4.1,4.1,0,0,1-.49.06,7.54,7.54,0,0,1-.9.06H6.27a6.26,6.26,0,0,1-.86,0l-.36,0-.15,0a5.45,5.45,0,0,1-2.55-.91A1,1,0,0,1,1.89,9c0-.69,1.17-1.43,3-1.67l.49,0a8.19,8.19,0,0,1,.87,0c2.41,0,4.09.76,4.34,1.55A.48.48,0,0,1,10.65,9Z"/></g><g id="Path_35" data-name="Path 35" class="cls-3"><path class="cls-4" d="M10.65,10.9a1,1,0,0,1-.08.29,1,1,0,0,1-.38.46l-.46.28a5.61,5.61,0,0,1-1.17.47l-.4.09H8.11l-.53.07-.11,0-.06.06c-.23,0-.45,0-.65,0h0a4,4,0,0,1-.48,0,5.24,5.24,0,0,1-.56,0l-.3,0-.27,0H4.9a5.4,5.4,0,0,1-2.55-.92,1,1,0,0,1-.46-.73,1,1,0,0,1,.34-.68,4.87,4.87,0,0,0,.88.45l.37.14a5.37,5.37,0,0,0,1.43.31H5l.43,0,.77,0a13.24,13.24,0,0,0,1.34-.07L8,11.1H8L8.32,11a3.83,3.83,0,0,0,.58-.16l.17-.05.3-.11h0l.06,0,.35-.16.31-.16.22-.13a.93.93,0,0,1,.28.45A.8.8,0,0,1,10.65,10.9Z"/></g><g id="Path_36" data-name="Path 36" class="cls-3"><path class="cls-4" d="M10.57,13.12h0a1,1,0,0,1-.38.45,5.61,5.61,0,0,1-2.14.86l-.46.07-.12,0-.06.06c-.28,0-.54,0-.78.05H6.27a10.51,10.51,0,0,1-1.12-.06l-.24,0a5.46,5.46,0,0,1-2.56-.92,1,1,0,0,1-.46-.74,1,1,0,0,1,.33-.67l.22.13.31.16.35.16.37.14a2.35,2.35,0,0,0,.35.11l.35.09.15,0,.3,0,.26,0H5l.38,0a6.79,6.79,0,0,0,.78,0,11,11,0,0,0,1.23-.06h.13L8.08,13h0l.54-.12.06,0q.31-.09.63-.21h0l.15-.07.26-.12a3.9,3.9,0,0,0,.35-.19l.18-.1a.93.93,0,0,1,.28.44.8.8,0,0,1,.05.21A1,1,0,0,1,10.57,13.12Z"/></g></g></g></g></g><rect class="cls-5" width="16" height="16"/></g></g></svg>