<svg xmlns="http://www.w3.org/2000/svg" viewBox="0 0 16 16"><defs><style>.cls-1{fill:#999;}.cls-2{fill:#b3b3b3;opacity:0.2;}.cls-3{fill:none;}</style></defs><title>market-top-sector</title><g id="Layer_2" data-name="Layer 2"><g id="Layer_1-2" data-name="Layer 1"><g id="Path_13" data-name="Path 13"><path class="cls-1" d="M8,.49A7.51,7.51,0,1,0,15.51,8,7.52,7.52,0,0,0,8,.49ZM8.25,1A7,7,0,0,1,15,7.76H8.25ZM8,15A7,7,0,0,1,7.75,1V8.11l5,5A6.93,6.93,0,0,1,8,15Zm5.11-2.23L8.6,8.26H15A6.93,6.93,0,0,1,13.12,12.78Z"/><path class="cls-2" d="M15,7.76H8.25V1A7,7,0,0,1,15,7.76Z"/><path class="cls-2" d="M15,8.26a6.93,6.93,0,0,1-1.88,4.52L8.6,8.26Z"/></g><rect class="cls-3" width="16" height="16"/></g></g></svg>