<svg xmlns="http://www.w3.org/2000/svg" viewBox="0 0 16 16"><defs><style>.cls-1{opacity:0.2;isolation:isolate;}.cls-2{fill:#b3b3b3;}.cls-3{fill:#999;}.cls-4{fill:none;}</style></defs><title>market-top-gainers</title><g id="Layer_2" data-name="Layer 2"><g id="Layer_1-2" data-name="Layer 1"><g id="Group_37" data-name="Group 37"><g id="Path_16" data-name="Path 16" class="cls-1"><rect class="cls-2" x="1.1" y="13.71" width="3.07" height="1.8"/><rect class="cls-2" x="4.66" y="9.41" width="3.08" height="6.1"/></g><g id="Path_17" data-name="Path 17" class="cls-1"><rect class="cls-2" x="8.25" y="11.11" width="3.08" height="4.4"/><rect class="cls-2" x="11.82" y="6.84" width="3.07" height="8.67"/></g><g id="Group_36" data-name="Group 36"><g id="Path_18" data-name="Path 18"><polygon class="cls-3" points="15.39 0 15.39 3.82 14.9 3.82 14.9 0.84 8.98 6.76 6.64 4.42 1.03 10.02 0.69 9.68 6.64 3.72 8.98 6.07 14.56 0.49 11.58 0.49 11.58 0 15.39 0"/></g><g id="Rectangle_17" data-name="Rectangle 17"><path class="cls-3" d="M11.33,6.34v4.28H8.23V8.92H4.17v4.3H.61V16H15.38V6.34ZM4.17,15.51H1.1v-1.8H4.17Zm3.57,0H4.66V9.41H7.74Zm.51,0v-4.4h3.08v4.4Zm6.64,0H11.82V6.84h3.07Z"/></g></g></g><rect class="cls-4" width="16" height="16"/></g></g></svg>