<svg xmlns="http://www.w3.org/2000/svg" xmlns:xlink="http://www.w3.org/1999/xlink" viewBox="0 0 112.76 36.88"><defs><style>.cls-1{fill:none;}.cls-2{fill:#1a1a1a;}.cls-3{clip-path:url(#clip-path);}.cls-4{fill:url(#linear-gradient);}.cls-5{fill:url(#linear-gradient-2);}.cls-6{fill:url(#linear-gradient-3);}.cls-7{fill:url(#linear-gradient-4);}.cls-8{fill:#f9f9f9;}.cls-9{fill:#f9f9fa;}</style><clipPath id="clip-path"><path class="cls-1" d="M24.44,16.24,19.35,13.3,9.54,7.64c-.54-.32-1.08-.13-1.08.53V31.24c0,.49.39.71.86.43l10-5.79,5.09-2.94,4.88-2.82c.58-.33.52-.78,0-1s-4.92-2.84-4.92-2.84Z"/></clipPath><linearGradient id="linear-gradient" x1="2282.43" y1="-2905.34" x2="2282.43" y2="-2903.26" gradientTransform="translate(-27374.43 34871.14) scale(12)" gradientUnits="userSpaceOnUse"><stop offset="0" stop-color="#257cb0"/><stop offset="0.29" stop-color="#4a93b5"/><stop offset="0.77" stop-color="#78bcbb"/><stop offset="1" stop-color="#89cfbd"/></linearGradient><linearGradient id="linear-gradient-2" x1="2281.91" y1="-2904.82" x2="2283.24" y2="-2904.82" gradientTransform="translate(-27374.43 34871.14) scale(12)" gradientUnits="userSpaceOnUse"><stop offset="0" stop-color="#52c1ad"/><stop offset="1" stop-color="#dee89a"/></linearGradient><linearGradient id="linear-gradient-3" x1="2282.57" y1="-2904.3" x2="2282.57" y2="-2903.25" gradientTransform="translate(-27374.43 34871.14) scale(12)" gradientUnits="userSpaceOnUse"><stop offset="0" stop-color="#ec413d"/><stop offset="0.17" stop-color="#da4452"/><stop offset="0.57" stop-color="#b0487a"/><stop offset="0.86" stop-color="#954a92"/><stop offset="1" stop-color="#8a4a9d"/></linearGradient><linearGradient id="linear-gradient-4" x1="2283.34" y1="-2904.58" x2="2283.34" y2="-2904.02" gradientTransform="translate(-27374.43 34871.14) scale(12)" gradientUnits="userSpaceOnUse"><stop offset="0" stop-color="#f58879"/><stop offset="0.12" stop-color="#f69079"/><stop offset="0.71" stop-color="#fcb877"/><stop offset="1" stop-color="#fec874"/></linearGradient></defs><title>mobile-app-icon-01</title><g id="Layer_2" data-name="Layer 2"><g id="Layer_2-2" data-name="Layer 2"><path class="cls-2" d="M112.76,31.9a5,5,0,0,1-5,5H5a5,5,0,0,1-5-5V5A5,5,0,0,1,5,0H107.77a5,5,0,0,1,5,5V31.9Z"/><g class="cls-3"><path class="cls-4" d="M8.46,7.1v25L21.05,19.59Z"/></g><g class="cls-3"><path class="cls-5" d="M24.44,16.24,19.35,13.3,8.46,7V7.1L21.05,19.59Z"/></g><g class="cls-3"><path class="cls-6" d="M8.46,32.08v.09l10.89-6.29,5.09-2.94-3.39-3.35Z"/></g><g class="cls-3"><path class="cls-7" d="M24.44,16.24l-3.39,3.35,3.39,3.35,5.81-3.35Z"/></g><path class="cls-8" d="M87.75,24.47a3,3,0,0,1-1.29-.26,2.46,2.46,0,0,1-1-.8h-.08a8.43,8.43,0,0,1,.08,1.2v3h-1.1V17.08h.9l.15,1h0a2.66,2.66,0,0,1,1-.86,3,3,0,0,1,1.29-.27,2.67,2.67,0,0,1,2.23,1,4.31,4.31,0,0,1,.79,2.77,4.34,4.34,0,0,1-.8,2.78,2.69,2.69,0,0,1-2.22,1Zm-.16-6.59a2,2,0,0,0-1.61.61,3.23,3.23,0,0,0-.51,2v.24A3.64,3.64,0,0,0,86,22.89a2,2,0,0,0,1.64.66,1.71,1.71,0,0,0,1.48-.76,3.66,3.66,0,0,0,.53-2.1,3.54,3.54,0,0,0-.53-2.09,1.78,1.78,0,0,0-1.51-.72Zm5.73,6.46h-1.1V14h1.1Zm6.32,0-.22-1h0a3.05,3.05,0,0,1-1.08.92,3.33,3.33,0,0,1-1.35.24,2.45,2.45,0,0,1-1.7-.55,2.06,2.06,0,0,1-.61-1.59c0-1.46,1.17-2.23,3.52-2.3l1.23,0v-.45A1.89,1.89,0,0,0,99,18.27a1.53,1.53,0,0,0-1.18-.41,4.77,4.77,0,0,0-2,.56l-.34-.84a5.48,5.48,0,0,1,1.17-.46A5.18,5.18,0,0,1,97.91,17a2.79,2.79,0,0,1,1.92.57,2.41,2.41,0,0,1,.63,1.85v5Zm-2.48-.77A2.21,2.21,0,0,0,98.77,23a2.08,2.08,0,0,0,.59-1.58v-.65l-1.1,0a4.15,4.15,0,0,0-1.9.41,1.25,1.25,0,0,0-.58,1.13,1.09,1.09,0,0,0,.37.9,1.47,1.47,0,0,0,1,.32Zm3.94-6.49h1.18l1.59,4.14a16.34,16.34,0,0,1,.65,2.05h0c.06-.23.18-.61.36-1.16s.78-2.22,1.8-5h1.18l-3.12,8.27a4,4,0,0,1-1.09,1.74,2.31,2.31,0,0,1-1.52.51,4.77,4.77,0,0,1-1-.11v-.88a4,4,0,0,0,.81.08,1.68,1.68,0,0,0,1.62-1.28l.41-1-2.93-7.3Zm-33.73.67a2.47,2.47,0,0,1-.2,4.21,1.1,1.1,0,0,0-.42.75.85.85,0,0,0,.39.65l.55.42A2.66,2.66,0,0,1,69,25.91c0,1.43-1.39,2.87-4,2.87-2.2,0-3.26-1.05-3.26-2.17a2.17,2.17,0,0,1,1.17-1.85,6.4,6.4,0,0,1,2.9-.7,1.6,1.6,0,0,1-.46-1,1.46,1.46,0,0,1,.15-.59l-.48,0a2.4,2.4,0,0,1-2.52-2.38,2.71,2.71,0,0,1,1-2,4.16,4.16,0,0,1,2.72-.84h3.13l-1,.55ZM66.29,24.5a1.83,1.83,0,0,0-.35,0,5.89,5.89,0,0,0-1.59.25A1.69,1.69,0,0,0,63,26.29c0,1.08,1.05,1.85,2.68,1.85,1.45,0,2.23-.7,2.23-1.64,0-.77-.5-1.18-1.66-2Zm.44-2.89a1.54,1.54,0,0,0,.38-1.11c0-1.09-.65-2.79-1.91-2.79a1.38,1.38,0,0,0-1.06.5,1.75,1.75,0,0,0-.34,1.12c0,1,.59,2.71,1.9,2.71a1.56,1.56,0,0,0,1-.43Zm-8.92,2.64a3.58,3.58,0,0,1-3.7-3.58A3.76,3.76,0,0,1,58,17a3.55,3.55,0,0,1,3.62,3.58,3.7,3.7,0,0,1-3.85,3.68ZM59.7,23a2.74,2.74,0,0,0,.46-1.69c0-1.33-.64-3.88-2.52-3.88a2.14,2.14,0,0,0-1.36.51,2.28,2.28,0,0,0-.7,1.86c0,1.5.74,4,2.58,4A1.93,1.93,0,0,0,59.7,23ZM49.59,24.25a3.58,3.58,0,0,1-3.71-3.58A3.76,3.76,0,0,1,49.81,17a3.55,3.55,0,0,1,3.63,3.58A3.7,3.7,0,0,1,49.59,24.25ZM51.48,23a2.74,2.74,0,0,0,.46-1.69c0-1.33-.64-3.88-2.52-3.88a2.18,2.18,0,0,0-1.37.51,2.3,2.3,0,0,0-.69,1.86c0,1.5.74,4,2.58,4A1.94,1.94,0,0,0,51.48,23Zm-6.75,1-2.19.5a15.73,15.73,0,0,1-2.51.26,5.42,5.42,0,0,1-5.81-5.52c0-3,2.27-5.71,6.16-5.71a9.11,9.11,0,0,1,2.33.32,6.14,6.14,0,0,1,2,1L43.46,16l-.53.12.38-.61A4.35,4.35,0,0,0,40,14.1a4.21,4.21,0,0,0-4.22,4.5,5.39,5.39,0,0,0,5.4,5.57,4.56,4.56,0,0,0,1.93-.38V21.33l-2.3.12,1.22-.65H45.3l-.39.38a.33.33,0,0,0-.15.24c0,.14,0,.58,0,.74V24Z"/><path class="cls-8" d="M72.19,23.58c-.5,0-.61-.14-.61-.73V14.21a.28.28,0,0,0,0-.09c.06-.54.22-.63.69-.9H70.1L69,13.76h1.17v9.41c0,.31-.06.35-.41.81h2.7l.56-.34-.78-.07Zm6.21.14c-.17.09-.33.2-.5.27a3.5,3.5,0,0,1-1.47.29,3.22,3.22,0,0,1-2-.59,3.92,3.92,0,0,1-1.55-3.2A3.43,3.43,0,0,1,76.34,17a2.93,2.93,0,0,1,1.56.43A2.52,2.52,0,0,1,79,18.92L75.4,20.36l-1.17.09c.38,1.92,1.68,3,3.12,3A3.85,3.85,0,0,0,79.2,23l-.8.76ZM77,19.2c.28-.1.43-.19.43-.41a1.5,1.5,0,0,0-1.5-1.3,1.87,1.87,0,0,0-1.74,2.11c0,.26,0,.53,0,.8L77,19.2Zm2.88-2.1v1h-.12v-1h-.33V17h.78v.11Zm1.36,1v-1h0l-.31,1h-.1l-.31-1h0v1h-.11V17h.19l.28.89h0l.28-.89h.19V18.1Z"/><path class="cls-9" d="M37.25,10.59h-.76a4.6,4.6,0,0,0-.22-.89H35.18a4.27,4.27,0,0,0-.22.89h-.72c0-.07.19-.57.56-1.52a11.2,11.2,0,0,0,.55-1.57h.89a12.77,12.77,0,0,0,.51,1.55A14,14,0,0,1,37.25,10.59Zm-1.1-1.34a13.5,13.5,0,0,1-.4-1.32h0q0,.09-.42,1.32Zm4.15,1.34h-.58a5.54,5.54,0,0,0-.66-1,5.55,5.55,0,0,1-.77-1.34h0a8.32,8.32,0,0,1,.06.94c0,.39,0,.86,0,1.43h-.58q0-.73,0-1.62t0-1.47h.7a4.36,4.36,0,0,0,.59,1,6,6,0,0,1,.71,1.27h0a8.63,8.63,0,0,1-.06-.95q0-.64,0-1.32h.59q0,.58,0,1.47C40.27,9.57,40.28,10.1,40.3,10.59Zm3.43-1.65a1.71,1.71,0,0,1-.43,1.17,1.49,1.49,0,0,1-1.21.5l-1,0c0-.47,0-1,0-1.61s0-1.06,0-1.47h1a1.62,1.62,0,0,1,1.24.42,1.52,1.52,0,0,1,.38,1Zm-.64.1a1.15,1.15,0,0,0-.27-.77A1,1,0,0,0,42,8l-.28,0q0,.48,0,1c0,.38,0,.75,0,1.12a1.06,1.06,0,0,0,.31,0,.89.89,0,0,0,.75-.32A1.25,1.25,0,0,0,43.09,9Zm3.81,1.55h-.7a5.63,5.63,0,0,0-.42-1,.57.57,0,0,0-.48-.2H45c0,.4,0,.81,0,1.23H44.4q0-.72,0-1.62t0-1.47h1.13c.72,0,1.08.25,1.08.74a.82.82,0,0,1-.62.82v0a.73.73,0,0,1,.42.37A9.18,9.18,0,0,1,46.9,10.59ZM46,8.41c0-.32-.2-.47-.61-.47A2.29,2.29,0,0,0,45,8c0,.24,0,.56,0,1h.22C45.76,8.93,46,8.76,46,8.41ZM50.29,9a1.72,1.72,0,0,1-.44,1.2,1.46,1.46,0,0,1-1.1.48,1.4,1.4,0,0,1-1-.44,1.54,1.54,0,0,1-.42-1.12,1.72,1.72,0,0,1,.44-1.2,1.46,1.46,0,0,1,1.1-.48,1.4,1.4,0,0,1,1,.44A1.54,1.54,0,0,1,50.29,9Zm-.65.07a1.3,1.3,0,0,0-.25-.81.81.81,0,0,0-.63-.31.74.74,0,0,0-.59.31,1.26,1.26,0,0,0-.24.79,1.22,1.22,0,0,0,.26.8.76.76,0,0,0,.62.31.72.72,0,0,0,.59-.31,1.25,1.25,0,0,0,.24-.78Zm2,1.53H51Q51,9.86,51,9T51,7.5h.67q0,.6,0,1.47T51.63,10.59Zm3.43-1.65a1.71,1.71,0,0,1-.43,1.17,1.48,1.48,0,0,1-1.21.5l-1,0c0-.47,0-1,0-1.61s0-1.06,0-1.47h1a1.62,1.62,0,0,1,1.24.42,1.48,1.48,0,0,1,.38,1Zm-.64.1a1.15,1.15,0,0,0-.27-.77A1,1,0,0,0,53.34,8l-.28,0q0,.48,0,1c0,.38,0,.75,0,1.12a1.06,1.06,0,0,0,.31,0,.89.89,0,0,0,.75-.32A1.19,1.19,0,0,0,54.42,9Zm5.2,1.55h-.76a4.6,4.6,0,0,0-.22-.89H57.55a4.27,4.27,0,0,0-.22.89h-.72c0-.07.19-.57.56-1.52a11.2,11.2,0,0,0,.55-1.57h.9a11.64,11.64,0,0,0,.5,1.55,14,14,0,0,1,.5,1.54Zm-1.1-1.34a13.5,13.5,0,0,1-.4-1.32h0q0,.09-.42,1.32Zm3.86-.94a.93.93,0,0,1-.42.84,1.86,1.86,0,0,1-1,.27h-.16c0,.3,0,.69,0,1.18h-.67q0-.69,0-1.62t0-1.47h1.18a1.41,1.41,0,0,1,.76.2.69.69,0,0,1,.31.62Zm-.61.13c0-.34-.23-.51-.67-.51a1.53,1.53,0,0,0-.36,0c0,.3,0,.63,0,1h.13C61.48,9,61.77,8.8,61.77,8.44Zm3.45-.13a.93.93,0,0,1-.42.84,1.86,1.86,0,0,1-1,.27h-.16c0,.3,0,.69,0,1.18H63Q63,9.9,63,9T63,7.5h1.18a1.41,1.41,0,0,1,.76.2.69.69,0,0,1,.31.62Zm-.61.13c0-.34-.22-.51-.67-.51a1.53,1.53,0,0,0-.36,0c0,.3,0,.63,0,1h.13C64.32,9,64.61,8.8,64.61,8.44ZM69.86,9a1.68,1.68,0,0,1-.44,1.2,1.46,1.46,0,0,1-1.1.48,1.4,1.4,0,0,1-1-.44,1.54,1.54,0,0,1-.42-1.12,1.72,1.72,0,0,1,.44-1.2,1.46,1.46,0,0,1,1.11-.48,1.4,1.4,0,0,1,1,.44A1.54,1.54,0,0,1,69.86,9Zm-.65.07A1.24,1.24,0,0,0,69,8.25a.81.81,0,0,0-.63-.31.76.76,0,0,0-.59.31A1.26,1.26,0,0,0,67.5,9a1.22,1.22,0,0,0,.26.8.77.77,0,0,0,.62.31A.72.72,0,0,0,69,9.84a1.25,1.25,0,0,0,.24-.78Zm3.86,1.53h-.58a5.78,5.78,0,0,0-.65-1,5.36,5.36,0,0,1-.78-1.34h0a8.32,8.32,0,0,1,.06.94c0,.39,0,.86,0,1.43h-.59c0-.49,0-1,0-1.62s0-1.06,0-1.47h.71a4.1,4.1,0,0,0,.58,1,6.18,6.18,0,0,1,.72,1.27h0a8.63,8.63,0,0,1-.06-.95q0-.64,0-1.32h.59Q73,8.08,73,9C73,9.57,73.05,10.1,73.07,10.59Z"/></g></g></svg>