<svg xmlns="http://www.w3.org/2000/svg" viewBox="0 0 127.77 36.88"><defs><style>.cls-1{fill:#1a1a1a;}.cls-2{fill:#fff;}</style></defs><title>mobile-app-icon-02</title><g id="Layer_2" data-name="Layer 2"><g id="Layer_2-2" data-name="Layer 2"><path class="cls-1" d="M127.75,33.19a3.66,3.66,0,0,1-3.66,3.69H3.69A3.69,3.69,0,0,1,0,33.19V3.71A3.71,3.71,0,0,1,3.69,0h120.4a3.69,3.69,0,0,1,3.68,3.71l0,29.48Z"/><path class="cls-2" d="M28,18.24a5.62,5.62,0,0,1,2.65-4.69,5.69,5.69,0,0,0-4.5-2.44c-1.88-.21-3.71,1.15-4.68,1.15S19,11.13,17.45,11.18a6,6,0,0,0-5,3.08c-2.17,3.8-.56,9.36,1.54,12.41,1,1.5,2.25,3.17,3.85,3.1s2.13-1,4-1,2.4,1,4,1,2.74-1.5,3.73-3a12.43,12.43,0,0,0,1.7-3.5,5.42,5.42,0,0,1-3.25-5ZM25,9.09a5.5,5.5,0,0,0,1.24-3.94A5.57,5.57,0,0,0,22.61,7a5.25,5.25,0,0,0-1.29,3.79A4.57,4.57,0,0,0,25,9.09Z"/><path class="cls-2" d="M50.62,29.57H48.45l-1.2-3.78H43.1L42,29.57H39.85L44,16.72H46.5Zm-3.73-5.36-1.07-3.36c-.13-.33-.33-1.15-.65-2.42h0c-.12.54-.33,1.36-.6,2.42l-1.05,3.36Zm14.28.6a5.23,5.23,0,0,1-1.28,3.73,3.72,3.72,0,0,1-2.84,1.23,2.84,2.84,0,0,1-2.63-1.31v4.86h-2v-10c0-1,0-2-.09-3h1.81l.12,1.46h0a3.62,3.62,0,0,1,5.82-.38,5.28,5.28,0,0,1,1.08,3.44Zm-2.07.09a4,4,0,0,0-.6-2.24,2.11,2.11,0,0,0-1.78-.91,2.09,2.09,0,0,0-1.37.5,2.32,2.32,0,0,0-.81,1.33,3.44,3.44,0,0,0-.1.63v1.54a2.45,2.45,0,0,0,.62,1.71,2.05,2.05,0,0,0,1.6.69,2.09,2.09,0,0,0,1.8-.9,3.87,3.87,0,0,0,.64-2.35Zm12.68-.09a5.23,5.23,0,0,1-1.28,3.73,3.72,3.72,0,0,1-2.84,1.23A2.84,2.84,0,0,1,65,28.46v4.86H63v-10c0-1,0-2-.09-3H64.7l.12,1.46h0a3.62,3.62,0,0,1,5.82-.38A5.29,5.29,0,0,1,71.78,24.81Zm-2.09.09a4,4,0,0,0-.6-2.24,2.11,2.11,0,0,0-1.78-.91,2.09,2.09,0,0,0-1.37.5,2.22,2.22,0,0,0-.81,1.33,2.88,2.88,0,0,0-.1.63v1.54a2.45,2.45,0,0,0,.62,1.71,2,2,0,0,0,1.59.69,2.09,2.09,0,0,0,1.81-.9,3.87,3.87,0,0,0,.64-2.35ZM83.61,26a3.45,3.45,0,0,1-1.13,2.67A5,5,0,0,1,79,29.75,6.26,6.26,0,0,1,75.68,29l.47-1.71a5.65,5.65,0,0,0,3,.79,2.74,2.74,0,0,0,1.8-.52,1.67,1.67,0,0,0,.64-1.39A1.78,1.78,0,0,0,81,24.81a5,5,0,0,0-1.76-1q-3.35-1.24-3.35-3.69a3.2,3.2,0,0,1,1.18-2.58,4.67,4.67,0,0,1,3.13-1,6.26,6.26,0,0,1,2.9.61l-.52,1.67a5,5,0,0,0-2.45-.59,2.52,2.52,0,0,0-1.7.55,1.54,1.54,0,0,0-.51,1.16,1.51,1.51,0,0,0,.58,1.25,6.26,6.26,0,0,0,1.86,1,6.12,6.12,0,0,1,2.43,1.57A3,3,0,0,1,83.61,26Zm6.78-4.11H88.13v4.5c0,1.15.4,1.71,1.2,1.71a3,3,0,0,0,.92-.1l.06,1.56a4.64,4.64,0,0,1-1.6.23A2.39,2.39,0,0,1,86.83,29a3.65,3.65,0,0,1-.69-2.5V21.83H84.8V20.29h1.34V18.6l2-.61v2.32h2.26l0,1.54Zm10.16,3a5.13,5.13,0,0,1-1.23,3.51,4.36,4.36,0,0,1-3.38,1.41,4.14,4.14,0,0,1-3.23-1.35A4.91,4.91,0,0,1,91.51,25a5,5,0,0,1,1.24-3.52,4.29,4.29,0,0,1,3.34-1.38,4.17,4.17,0,0,1,3.25,1.36,4.81,4.81,0,0,1,1.21,3.39Zm-2.12,0a4.28,4.28,0,0,0-.54-2.19,2,2,0,0,0-1.84-1.11,2.09,2.09,0,0,0-1.89,1.11,4.19,4.19,0,0,0-.54,2.23,4.33,4.33,0,0,0,.54,2.19,2.1,2.1,0,0,0,3.71,0,4.27,4.27,0,0,0,.56-2.21Zm8.77-2.8a3.57,3.57,0,0,0-.65-.06,1.88,1.88,0,0,0-1.65.81,3.18,3.18,0,0,0-.52,1.84v4.86h-2V23.21c0-1,0-1.94-.07-2.92h1.79l.08,1.77h.06a3.1,3.1,0,0,1,1-1.46,2.55,2.55,0,0,1,1.47-.5,4.22,4.22,0,0,1,.52,0v2Zm9.16,2.4a4.34,4.34,0,0,1-.09.94h-6.13a2.66,2.66,0,0,0,.89,2.1,3,3,0,0,0,2,.65,6.85,6.85,0,0,0,2.49-.44l.31,1.42a7.72,7.72,0,0,1-3.09.56,4.38,4.38,0,0,1-3.36-1.27,4.76,4.76,0,0,1-1.22-3.4,5.25,5.25,0,0,1,1.14-3.48,3.87,3.87,0,0,1,3.21-1.48,3.42,3.42,0,0,1,3,1.48,4.89,4.89,0,0,1,.83,2.92Zm-2-.54a2.83,2.83,0,0,0-.4-1.59,1.75,1.75,0,0,0-1.63-.85,1.94,1.94,0,0,0-1.64.83,3.14,3.14,0,0,0-.6,1.61ZM42.52,12.18a9.19,9.19,0,0,1-1.47-.09V5.88a12.74,12.74,0,0,1,1.74-.13c2.34,0,3.42,1.17,3.42,3.07,0,2.17-1.28,3.36-3.69,3.36Zm.33-5.63a4.58,4.58,0,0,0-.8.06v4.71a5.59,5.59,0,0,0,.68,0,2.22,2.22,0,0,0,2.4-2.52,2,2,0,0,0-2.28-2.27Zm6.72,5.67a2.16,2.16,0,0,1-2.18-2.34,2.2,2.2,0,0,1,2.26-2.39,2.13,2.13,0,0,1,2.18,2.33A2.23,2.23,0,0,1,49.57,12.22Zm0-4c-.73,0-1.2.68-1.2,1.64s.47,1.63,1.18,1.63,1.18-.73,1.18-1.65-.46-1.62-1.16-1.62Zm9.76-.65L58,12.11H57l-.58-2c-.15-.48-.27-1-.38-1.48h0a8.43,8.43,0,0,1-.37,1.48l-.62,2h-.93L52.8,7.57h1l.51,2.17c.13.52.23,1,.32,1.46h0a14.18,14.18,0,0,1,.37-1.46l.64-2.17h.83l.62,2.13c.15.52.27,1,.38,1.5h0a10.86,10.86,0,0,1,.31-1.5l.56-2.13Zm5.2,4.54h-1V9.51c0-.82-.31-1.21-.92-1.21a1,1,0,0,0-1,1.1v2.71h-1V8.86c0-.39,0-.83,0-1.29h.89l0,.71h0A1.62,1.62,0,0,1,63,7.49c1,0,1.57.73,1.57,1.91l0,2.71Zm2.78,0h-1V5.46h1v6.65Zm3.67.11a2.16,2.16,0,0,1-2.18-2.34A2.2,2.2,0,0,1,71.1,7.49a2.13,2.13,0,0,1,2.17,2.33A2.23,2.23,0,0,1,71,12.22Zm0-4c-.73,0-1.2.68-1.2,1.64s.47,1.63,1.18,1.63,1.18-.73,1.18-1.65-.46-1.62-1.16-1.62Zm6.17,3.89-.08-.52h0a1.55,1.55,0,0,1-1.33.63,1.32,1.32,0,0,1-1.39-1.34c0-1.12,1-1.71,2.66-1.71V9.09c0-.6-.31-.9-.94-.9A2.09,2.09,0,0,0,75,8.53l-.2-.67a2.77,2.77,0,0,1,1.55-.4c1.18,0,1.78.63,1.78,1.88V11a7.61,7.61,0,0,0,.06,1.08l-.91,0Zm-.14-2.27c-1.12,0-1.68.27-1.68.92a.64.64,0,0,0,.68.71,1,1,0,0,0,1-.92V9.84ZM83,12.11l0-.73h0a1.52,1.52,0,0,1-1.45.84A2.07,2.07,0,0,1,79.53,9.9a2.14,2.14,0,0,1,2-2.41,1.38,1.38,0,0,1,1.29.62h0V5.46h1v5.42c0,.44,0,.86,0,1.23Zm-.14-2.66a1.1,1.1,0,0,0-1.06-1.19c-.75,0-1.2.66-1.2,1.6s.47,1.55,1.18,1.55a1.14,1.14,0,0,0,1.08-1.21V9.45Zm7.39,2.77A2.16,2.16,0,0,1,88,9.88a2.2,2.2,0,0,1,2.26-2.39,2.13,2.13,0,0,1,2.17,2.33A2.23,2.23,0,0,1,90.2,12.22Zm0-4c-.73,0-1.19.68-1.19,1.64s.48,1.63,1.19,1.63,1.18-.73,1.18-1.65S91,8.22,90.25,8.22Zm7.62,3.89h-1V9.51c0-.82-.31-1.21-.92-1.21a1,1,0,0,0-1,1.1v2.71h-1V8.86c0-.39,0-.83,0-1.29h.89l0,.71h0a1.64,1.64,0,0,1,1.43-.79c1,0,1.57.73,1.57,1.91v2.71Zm6.76-3.79h-1.1v2.21c0,.56.19.83.58.83a2.81,2.81,0,0,0,.46,0l0,.77a2,2,0,0,1-.79.11c-.79,0-1.27-.44-1.27-1.59V8.32h-.66V7.57h.66V6.73l1-.29V7.57h1.1ZM110,12.11h-1V9.53c0-.81-.31-1.23-.91-1.23a1,1,0,0,0-1,1.08v2.75h-1V5.46h1V8.19h0a1.52,1.52,0,0,1,1.37-.75c1,0,1.53.75,1.53,1.94v2.73Zm5.45-2h-3a1.31,1.31,0,0,0,1.43,1.36,3.89,3.89,0,0,0,1.22-.21l.17.71a4,4,0,0,1-1.52.27,2.12,2.12,0,0,1-2.26-2.3,2.2,2.2,0,0,1,2.14-2.43c1.16,0,1.88.85,1.88,2.16A1.79,1.79,0,0,1,115.4,10.09Zm-.91-.73c0-.71-.35-1.21-1-1.21a1.19,1.19,0,0,0-1.1,1.21Z"/></g></g></svg>