<svg xmlns="http://www.w3.org/2000/svg" viewBox="0 0 12.47 12.47"><defs><style>.cls-1{fill:#fff;}</style></defs><title>social-linkedin</title><g id="Layer_2" data-name="Layer 2"><g id="Layer_2-2" data-name="Layer 2"><path class="cls-1" d="M12.47,12.47h0V7.9c0-2.24-.48-4-3.1-4A2.71,2.71,0,0,0,6.93,5.28h0V4.14H4.41v8.33H7V8.35c0-1.09.21-2.14,1.55-2.14S9.89,7.45,9.89,8.42v4.05Z"/><path class="cls-1" d="M.21,4.14H2.79v8.33H.21Z"/><path class="cls-1" d="M1.5,0a1.51,1.51,0,0,0,0,3A1.51,1.51,0,0,0,3,1.5,1.5,1.5,0,0,0,1.5,0Z"/></g></g></svg>