<svg xmlns="http://www.w3.org/2000/svg" viewBox="0 0 15.92 12.94"><defs><style>.cls-1{fill:#fff;}</style></defs><title>social-twitter</title><g id="Layer_2" data-name="Layer 2"><g id="Layer_2-2" data-name="Layer 2"><path class="cls-1" d="M15.92,1.53A7,7,0,0,1,14,2.05,3.24,3.24,0,0,0,15.48.24,6.49,6.49,0,0,1,13.41,1,3.27,3.27,0,0,0,7.76,3.27,3.05,3.05,0,0,0,7.84,4,9.22,9.22,0,0,1,1.11.6,3.25,3.25,0,0,0,2.11,5a3.2,3.2,0,0,1-1.47-.4v0A3.28,3.28,0,0,0,3.25,7.8a3.3,3.3,0,0,1-.85.11,2.56,2.56,0,0,1-.62-.06,3.31,3.31,0,0,0,3.05,2.28,6.61,6.61,0,0,1-4,1.39,5,5,0,0,1-.78,0,9.14,9.14,0,0,0,5,1.47A9.23,9.23,0,0,0,14.3,3.65c0-.15,0-.29,0-.42A6.43,6.43,0,0,0,15.92,1.53Z"/></g></g></svg>