<svg xmlns="http://www.w3.org/2000/svg" viewBox="0 0 13 13"><defs><style>.cls-1{fill:#fff;}</style></defs><title>social-instagram</title><g id="Layer_2" data-name="Layer 2"><g id="Layer_2-2" data-name="Layer 2"><path class="cls-1" d="M8.94,0H4.06A4.06,4.06,0,0,0,0,4.06V8.94A4.06,4.06,0,0,0,4.06,13H8.94A4.06,4.06,0,0,0,13,8.94V4.06A4.06,4.06,0,0,0,8.94,0Zm2.84,8.94a2.84,2.84,0,0,1-2.84,2.84H4.06A2.84,2.84,0,0,1,1.22,8.94V4.06A2.84,2.84,0,0,1,4.06,1.22H8.94a2.84,2.84,0,0,1,2.84,2.84Z"/><path class="cls-1" d="M6.5,3.25A3.25,3.25,0,1,0,9.75,6.5,3.26,3.26,0,0,0,6.5,3.25Zm0,5.28a2,2,0,1,1,2-2A2,2,0,0,1,6.5,8.53Z"/><circle class="cls-1" cx="9.99" cy="3.01" r="0.43"/></g></g></svg>